<svg width="120" height="40" viewBox="0 0 120 40" fill="none" xmlns="http://www.w3.org/2000/svg">
<g clip-path="url(#clip0_134_9178)">
<path d="M110.303 0H9.70294C9.33595 0 8.97294 0 8.60794 0.002C8.30194 0.004 7.99795 0.01 7.68895 0.015C7.01747 0.0223323 6.34753 0.0808351 5.68495 0.19C5.02367 0.302207 4.38312 0.513588 3.78495 0.817C3.18666 1.12335 2.64004 1.52151 2.16495 1.997C1.6882 2.47032 1.29078 3.01732 0.987945 3.617C0.684024 4.21585 0.473264 4.85757 0.362945 5.52C0.251673 6.18171 0.191828 6.85105 0.183945 7.522C0.173945 7.829 0.173945 8.137 0.168945 8.443V31.56C0.173945 31.87 0.174945 32.17 0.183945 32.481C0.192154 33.152 0.252334 33.8213 0.363945 34.483C0.473553 35.1461 0.683989 35.7885 0.987945 36.388C1.29107 36.9854 1.68888 37.5297 2.16595 38C2.6387 38.4771 3.18498 38.8751 3.78395 39.179C4.38247 39.4831 5.02329 39.6954 5.68495 39.809C6.34759 39.9179 7.01746 39.9771 7.68895 39.986C7.99895 39.993 8.30194 39.997 8.60794 39.997C8.97394 39.999 9.33595 39.999 9.70294 39.999H110.303C110.663 39.999 111.027 39.999 111.387 39.997C111.691 39.997 112.004 39.993 112.309 39.987C112.979 39.9782 113.648 39.9187 114.309 39.809C114.973 39.6946 115.616 39.4823 116.217 39.179C116.816 38.875 117.361 38.4769 117.834 38C118.31 37.5273 118.709 36.9827 119.016 36.386C119.318 35.7862 119.527 35.1438 119.635 34.481C119.746 33.8192 119.808 33.15 119.82 32.479C119.824 32.169 119.824 31.869 119.824 31.558C119.832 31.194 119.832 30.833 119.832 30.464V9.536C119.832 9.17 119.832 8.806 119.824 8.444C119.824 8.138 119.824 7.83 119.82 7.524C119.808 6.85266 119.746 6.18314 119.635 5.521C119.526 4.8589 119.317 4.21723 119.015 3.618C118.398 2.41511 117.419 1.43588 116.217 0.818C115.616 0.515273 114.973 0.303946 114.309 0.191C113.648 0.0810377 112.979 0.0221968 112.309 0.015C112.004 0.01 111.691 0.004 111.387 0.002C111.027 0 110.662 0 110.303 0Z" fill="#A6A6A6"/>
<path d="M8.61302 39.125C8.30802 39.125 8.01102 39.121 7.70902 39.115C7.08249 39.1066 6.45744 39.0518 5.83902 38.951C5.26286 38.8516 4.70472 38.6669 4.18302 38.403C3.6659 38.1414 3.19422 37.7984 2.78602 37.387C2.37208 36.9801 2.02753 36.5082 1.76602 35.99C1.50108 35.4687 1.31762 34.9099 1.22202 34.333C1.11931 33.7131 1.06382 33.0863 1.05602 32.458C1.04902 32.248 1.04102 31.545 1.04102 31.545V8.445C1.04102 8.445 1.05002 7.753 1.05602 7.55C1.06347 6.92272 1.11863 6.29691 1.22102 5.678C1.31663 5.09952 1.50008 4.53905 1.76502 4.016C2.02573 3.4983 2.36849 3.0262 2.78002 2.618C3.19097 2.20578 3.66406 1.86058 4.18202 1.595C4.70266 1.33189 5.25988 1.14851 5.83502 1.051C6.45538 0.949562 7.08246 0.894742 7.71102 0.887L8.61302 0.875H111.382L112.295 0.888C112.918 0.895224 113.539 0.949378 114.153 1.05C114.734 1.14872 115.297 1.33341 115.824 1.598C116.862 2.13288 117.706 2.97908 118.239 4.018C118.499 4.53755 118.68 5.0935 118.774 5.667C118.878 6.29093 118.936 6.9216 118.948 7.554C118.951 7.837 118.951 8.142 118.951 8.444C118.959 8.819 118.959 9.176 118.959 9.536V30.465C118.959 30.828 118.959 31.183 118.951 31.54C118.951 31.865 118.951 32.163 118.947 32.47C118.936 33.091 118.879 33.7103 118.777 34.323C118.684 34.9041 118.502 35.4673 118.237 35.993C117.973 36.5056 117.63 36.9733 117.221 37.379C116.812 37.7927 116.34 38.1377 115.821 38.401C115.296 38.6671 114.733 38.8525 114.153 38.951C113.535 39.0519 112.91 39.1064 112.284 39.114C111.991 39.121 111.684 39.125 111.387 39.125L110.303 39.127L8.61302 39.125Z" fill="black"/>
<path d="M24.937 20.3C24.9478 19.4655 25.1696 18.6474 25.5815 17.9217C25.9934 17.1959 26.5821 16.5861 27.293 16.149C26.8414 15.5039 26.2456 14.973 25.553 14.5984C24.8604 14.2238 24.09 14.0158 23.303 13.991C21.623 13.815 19.995 14.996 19.139 14.996C18.267 14.996 16.949 14.008 15.531 14.038C14.6132 14.0676 13.7189 14.3344 12.935 14.8125C12.1511 15.2906 11.5044 15.9636 11.058 16.766C9.12396 20.114 10.567 25.035 12.419 27.742C13.346 29.067 14.429 30.547 15.847 30.495C17.234 30.437 17.752 29.61 19.427 29.61C21.085 29.61 21.571 30.495 23.017 30.462C24.506 30.437 25.443 29.13 26.337 27.792C27.0034 26.8479 27.5164 25.8043 27.857 24.7C26.992 24.3343 26.2538 23.7221 25.7345 22.9396C25.2153 22.1571 24.9379 21.2391 24.937 20.3ZM22.205 12.21C23.0165 11.236 23.4165 9.98407 23.32 8.71997C22.0799 8.85015 20.9345 9.44287 20.112 10.38C19.7099 10.8374 19.402 11.3696 19.2057 11.9462C19.0094 12.5227 18.9286 13.1322 18.968 13.74C19.5881 13.7464 20.2016 13.612 20.7623 13.347C21.323 13.082 21.8162 12.6932 22.205 12.21Z" fill="white"/>
<path d="M42.4702 27.14H37.7382L36.6012 30.496H34.5962L39.0802 18.078H41.1632L45.6462 30.496H43.6072L42.4702 27.14ZM38.2272 25.59H41.9792L40.1292 20.144H40.0782L38.2272 25.59ZM55.3272 25.97C55.3272 28.783 53.8222 30.59 51.5492 30.59C50.9738 30.62 50.4015 30.4874 49.8978 30.2075C49.3942 29.9275 48.9795 29.5115 48.7012 29.007H48.6582V33.491H46.7982V21.442H48.5982V22.948H48.6312C48.9223 22.4456 49.3441 22.0315 49.8517 21.7498C50.3594 21.4681 50.9339 21.3292 51.5142 21.348C53.8122 21.348 55.3272 23.164 55.3272 25.97ZM53.4172 25.97C53.4172 24.137 52.4702 22.932 51.0252 22.932C49.6052 22.932 48.6502 24.162 48.6502 25.97C48.6502 27.794 49.6052 29.016 51.0252 29.016C52.4702 29.016 53.4172 27.819 53.4172 25.97ZM65.2932 25.97C65.2932 28.783 63.7872 30.59 61.5142 30.59C60.9388 30.62 60.3665 30.4874 59.8628 30.2075C59.3592 29.9275 58.9445 29.5115 58.6662 29.007H58.6232V33.491H56.7642V21.442H58.5632V22.948H58.5972C58.8883 22.4456 59.3101 22.0315 59.8177 21.7498C60.3254 21.4681 60.8999 21.3292 61.4802 21.348C63.7782 21.348 65.2932 23.164 65.2932 25.97ZM63.3832 25.97C63.3832 24.137 62.4352 22.932 60.9902 22.932C59.5702 22.932 58.6152 24.162 58.6152 25.97C58.6152 27.794 59.5702 29.016 60.9902 29.016C62.4352 29.016 63.3832 27.819 63.3832 25.97ZM71.8782 27.036C72.0162 28.268 73.2122 29.076 74.8482 29.076C76.4142 29.076 77.5412 28.268 77.5412 27.157C77.5412 26.193 76.8612 25.617 75.2512 25.221L73.6422 24.833C71.3622 24.283 70.3032 23.216 70.3032 21.485C70.3032 19.343 72.1702 17.871 74.8222 17.871C77.4462 17.871 79.2452 19.343 79.3052 21.485H77.4292C77.3172 20.246 76.2932 19.498 74.7952 19.498C73.2972 19.498 72.2742 20.255 72.2742 21.356C72.2742 22.234 72.9282 22.751 74.5292 23.146L75.8972 23.482C78.4452 24.085 79.5032 25.108 79.5032 26.925C79.5032 29.248 77.6532 30.703 74.7102 30.703C71.9562 30.703 70.0962 29.283 69.9762 27.036H71.8782ZM83.5142 19.3V21.442H85.2362V22.914H83.5142V27.905C83.5142 28.681 83.8592 29.042 84.6162 29.042C84.8205 29.0384 85.0244 29.024 85.2272 28.999V30.462C84.887 30.5256 84.5412 30.5544 84.1952 30.548C82.3622 30.548 81.6472 29.859 81.6472 28.103V22.914H80.3312V21.442H81.6472V19.3H83.5142ZM86.2332 25.97C86.2332 23.121 87.9112 21.331 90.5272 21.331C93.1522 21.331 94.8222 23.121 94.8222 25.97C94.8222 28.826 93.1612 30.608 90.5272 30.608C87.8942 30.608 86.2332 28.826 86.2332 25.97ZM92.9282 25.97C92.9282 24.016 92.0332 22.862 90.5272 22.862C89.0212 22.862 88.1272 24.024 88.1272 25.97C88.1272 27.932 89.0212 29.076 90.5272 29.076C92.0332 29.076 92.9282 27.932 92.9282 25.97ZM96.3542 21.442H98.1272V22.983H98.1702C98.2903 22.502 98.5723 22.077 98.9687 21.7793C99.3651 21.4816 99.8518 21.3293 100.347 21.348C100.561 21.3471 100.775 21.3702 100.984 21.417V23.155C100.714 23.0725 100.432 23.0346 100.149 23.043C99.8792 23.032 99.61 23.0796 99.3601 23.1825C99.1103 23.2853 98.8856 23.4411 98.7016 23.639C98.5176 23.8368 98.3786 24.0722 98.2941 24.3289C98.2096 24.5856 98.1817 24.8575 98.2122 25.126V30.496H96.3542V21.442ZM109.552 27.837C109.302 29.48 107.702 30.608 105.654 30.608C103.02 30.608 101.385 28.844 101.385 26.013C101.385 23.173 103.029 21.331 105.575 21.331C108.081 21.331 109.655 23.051 109.655 25.797V26.434H103.261V26.546C103.232 26.8792 103.274 27.2148 103.384 27.5307C103.494 27.8465 103.67 28.1352 103.901 28.3777C104.131 28.6202 104.41 28.8109 104.72 28.9372C105.03 29.0634 105.363 29.1223 105.697 29.11C106.136 29.151 106.577 29.0493 106.953 28.82C107.33 28.5906 107.622 28.2459 107.787 27.837H109.552ZM103.27 25.135H107.796C107.813 24.8354 107.768 24.5356 107.663 24.2544C107.558 23.9732 107.397 23.7167 107.188 23.5009C106.98 23.2851 106.729 23.1148 106.452 23.0005C106.174 22.8863 105.876 22.8306 105.576 22.837C105.274 22.8351 104.973 22.8932 104.693 23.008C104.413 23.1227 104.159 23.2918 103.944 23.5054C103.73 23.7191 103.56 23.9731 103.444 24.2528C103.329 24.5325 103.269 24.8323 103.27 25.135Z" fill="white"/>
<path d="M37.9939 8.73101C38.3835 8.70306 38.7745 8.76192 39.1386 8.90336C39.5028 9.0448 39.831 9.26528 40.0996 9.54892C40.3682 9.83256 40.5706 10.1723 40.692 10.5436C40.8134 10.9148 40.851 11.3085 40.8019 11.696C40.8019 13.602 39.7719 14.698 37.9939 14.698H35.8389V8.73001L37.9939 8.73101ZM36.7659 13.854H37.8909C38.1692 13.8705 38.4477 13.8248 38.7062 13.7201C38.9646 13.6154 39.1964 13.4544 39.3848 13.2489C39.5732 13.0434 39.7134 12.7984 39.7953 12.5318C39.8771 12.2653 39.8985 11.9839 39.8579 11.708C39.8956 11.4332 39.8721 11.1535 39.789 10.8889C39.706 10.6242 39.5654 10.3813 39.3774 10.1773C39.1894 9.97337 38.9587 9.81353 38.7017 9.70923C38.4447 9.60493 38.1678 9.55875 37.8909 9.57401H36.7659V13.854ZM41.8489 12.444C41.8209 12.1483 41.8549 11.8499 41.9489 11.5681C42.0429 11.2863 42.1947 11.0273 42.3946 10.8075C42.5945 10.5878 42.8381 10.4122 43.1098 10.2921C43.3815 10.172 43.6753 10.1099 43.9724 10.1099C44.2694 10.1099 44.5632 10.172 44.8349 10.2921C45.1066 10.4122 45.3502 10.5878 45.5501 10.8075C45.75 11.0273 45.9018 11.2863 45.9958 11.5681C46.0898 11.8499 46.1239 12.1483 46.0959 12.444C46.1254 12.7406 46.0925 13.0401 45.9992 13.3232C45.9059 13.6063 45.7544 13.8667 45.5543 14.0877C45.3543 14.3087 45.1101 14.4853 44.8377 14.6061C44.5652 14.727 44.2704 14.7894 43.9724 14.7894C43.6743 14.7894 43.3795 14.727 43.1071 14.6061C42.8346 14.4853 42.5905 14.3087 42.3904 14.0877C42.1904 13.8667 42.0388 13.6063 41.9455 13.3232C41.8523 13.0401 41.8193 12.7406 41.8489 12.444ZM45.1819 12.444C45.1819 11.468 44.7429 10.897 43.9739 10.897C43.2009 10.897 42.7669 11.468 42.7669 12.444C42.7669 13.428 43.2009 13.994 43.9739 13.994C44.7439 13.994 45.1819 13.424 45.1819 12.444ZM51.7419 14.698H50.8189L49.8889 11.381H49.8189L48.8919 14.698H47.9789L46.7369 10.195H47.6389L48.4449 13.631H48.5119L49.4379 10.195H50.2899L51.2159 13.631H51.2859L52.0889 10.195H52.9779L51.7419 14.698ZM54.0219 10.195H54.8769V10.91H54.9429C55.0556 10.6531 55.2456 10.4377 55.4866 10.294C55.7275 10.1502 56.0072 10.0852 56.2869 10.108C56.506 10.0916 56.726 10.1246 56.9306 10.2047C57.1353 10.2848 57.3193 10.4099 57.469 10.5708C57.6187 10.7316 57.7303 10.9241 57.7955 11.134C57.8608 11.3438 57.878 11.5656 57.8459 11.783V14.698H56.9569V12.006C56.9569 11.282 56.6429 10.922 55.9849 10.922C55.8361 10.9151 55.6877 10.9405 55.5497 10.9963C55.4116 11.0522 55.2873 11.1372 55.1852 11.2455C55.0831 11.3539 55.0057 11.4831 54.9581 11.6242C54.9106 11.7653 54.8941 11.915 54.9099 12.063V14.698H54.0219V10.195ZM59.2619 8.43701H60.1499V14.697H59.2619V8.43701ZM61.3859 12.444C61.3579 12.1483 61.3919 11.8499 61.4859 11.5681C61.5799 11.2863 61.7317 11.0273 61.9316 10.8075C62.1315 10.5878 62.3751 10.4122 62.6468 10.2921C62.9185 10.172 63.2123 10.1099 63.5094 10.1099C63.8064 10.1099 64.1002 10.172 64.3719 10.2921C64.6436 10.4122 64.8872 10.5878 65.0871 10.8075C65.287 11.0273 65.4388 11.2863 65.5328 11.5681C65.6268 11.8499 65.6609 12.1483 65.6329 12.444C65.6624 12.7406 65.6295 13.0401 65.5362 13.3232C65.4429 13.6063 65.2914 13.8667 65.0913 14.0877C64.8913 14.3087 64.6471 14.4853 64.3747 14.6061C64.1022 14.727 63.8074 14.7894 63.5094 14.7894C63.2113 14.7894 62.9165 14.727 62.6441 14.6061C62.3716 14.4853 62.1275 14.3087 61.9274 14.0877C61.7274 13.8667 61.5758 13.6063 61.4825 13.3232C61.3893 13.0401 61.3563 12.7406 61.3859 12.444ZM64.7189 12.444C64.7189 11.468 64.2799 10.897 63.5109 10.897C62.7379 10.897 62.3039 11.468 62.3039 12.444C62.3039 13.428 62.7379 13.994 63.5109 13.994C64.2809 13.994 64.7189 13.424 64.7189 12.444ZM66.5689 13.424C66.5689 12.614 67.1719 12.146 68.2439 12.08L69.4639 12.01V11.621C69.4639 11.146 69.1489 10.877 68.5419 10.877C68.0449 10.877 67.7019 11.059 67.6029 11.377H66.7429C66.8329 10.604 67.5609 10.107 68.5829 10.107C69.7109 10.107 70.3479 10.67 70.3479 11.621V14.698H69.4929V14.065H69.4229C69.2801 14.2921 69.0796 14.4772 68.8419 14.6014C68.6042 14.7256 68.3378 14.7845 68.0699 14.772C67.8808 14.7917 67.6897 14.7716 67.5089 14.7129C67.3281 14.6542 67.1616 14.5582 67.0201 14.4312C66.8787 14.3042 66.7655 14.1489 66.6877 13.9754C66.61 13.802 66.5695 13.6141 66.5689 13.424ZM69.4629 13.04V12.663L68.3629 12.733C67.7429 12.775 67.4629 12.986 67.4629 13.383C67.4629 13.788 67.8139 14.023 68.2969 14.023C68.4384 14.0373 68.5813 14.023 68.7172 13.9809C68.8531 13.9389 68.9792 13.87 69.0879 13.7783C69.1967 13.6866 69.2859 13.574 69.3503 13.4472C69.4147 13.3204 69.453 13.1819 69.4629 13.04ZM71.5159 12.444C71.5159 11.021 72.2479 10.12 73.3859 10.12C73.6671 10.1072 73.9463 10.1747 74.1906 10.3146C74.435 10.4545 74.6345 10.661 74.7659 10.91H74.8329V8.43701H75.7209V14.697H74.8699V13.987H74.7999C74.6581 14.2345 74.4513 14.4385 74.2019 14.5769C73.9524 14.7153 73.6699 14.7827 73.3849 14.772C72.2399 14.772 71.5159 13.871 71.5159 12.444ZM72.4339 12.444C72.4339 13.399 72.8839 13.974 73.6369 13.974C74.3869 13.974 74.8489 13.391 74.8489 12.448C74.8489 11.51 74.3809 10.918 73.6369 10.918C72.8889 10.918 72.4339 11.498 72.4339 12.444ZM79.3979 12.444C79.3699 12.1483 79.4039 11.8499 79.4979 11.5681C79.5919 11.2863 79.7437 11.0273 79.9436 10.8075C80.1435 10.5878 80.3871 10.4122 80.6588 10.2921C80.9305 10.172 81.2243 10.1099 81.5214 10.1099C81.8184 10.1099 82.1122 10.172 82.3839 10.2921C82.6556 10.4122 82.8992 10.5878 83.0991 10.8075C83.299 11.0273 83.4508 11.2863 83.5448 11.5681C83.6388 11.8499 83.6729 12.1483 83.6449 12.444C83.6744 12.7406 83.6415 13.0401 83.5482 13.3232C83.4549 13.6063 83.3034 13.8667 83.1033 14.0877C82.9033 14.3087 82.6591 14.4853 82.3867 14.6061C82.1142 14.727 81.8194 14.7894 81.5214 14.7894C81.2233 14.7894 80.9285 14.727 80.6561 14.6061C80.3836 14.4853 80.1395 14.3087 79.9394 14.0877C79.7394 13.8667 79.5878 13.6063 79.4945 13.3232C79.4013 13.0401 79.3683 12.7406 79.3979 12.444ZM82.7309 12.444C82.7309 11.468 82.2929 10.897 81.5229 10.897C80.7509 10.897 80.3159 11.468 80.3159 12.444C80.3159 13.428 80.7509 13.994 81.5229 13.994C82.2929 13.994 82.7309 13.424 82.7309 12.444ZM84.8369 10.194H85.6929V10.91H85.7589C85.8716 10.6531 86.0616 10.4377 86.3026 10.294C86.5435 10.1502 86.8232 10.0852 87.1029 10.108C87.322 10.0916 87.542 10.1246 87.7466 10.2047C87.9513 10.2848 88.1353 10.4099 88.285 10.5708C88.4347 10.7316 88.5463 10.9241 88.6115 11.134C88.6768 11.3438 88.694 11.5656 88.6619 11.783V14.698H87.7729V12.006C87.7729 11.282 87.4589 10.922 86.8009 10.922C86.6521 10.9151 86.5037 10.9405 86.3657 10.9963C86.2276 11.0522 86.1033 11.1372 86.0012 11.2455C85.8991 11.3539 85.8217 11.4831 85.7741 11.6242C85.7266 11.7653 85.7101 11.915 85.7259 12.063V14.698H84.8369V10.194ZM93.6829 9.07401V10.215H94.6589V10.964H93.6829V13.279C93.6829 13.751 93.8769 13.958 94.3199 13.958C94.4332 13.9575 94.5464 13.9505 94.6589 13.937V14.677C94.4991 14.7058 94.3372 14.7212 94.1749 14.723C93.1869 14.723 92.7939 14.375 92.7939 13.507V10.964H92.0789V10.215H92.7939V9.07401H93.6829ZM95.8729 8.43701H96.7529V10.918H96.8229C96.9412 10.6587 97.1366 10.4421 97.3825 10.2979C97.6284 10.1537 97.9128 10.0888 98.1969 10.112C98.4148 10.1002 98.6327 10.1366 98.8349 10.2187C99.0372 10.3008 99.2188 10.4265 99.3668 10.5869C99.5149 10.7473 99.6257 10.9383 99.6914 11.1465C99.7571 11.3546 99.776 11.5747 99.7469 11.791V14.698H98.8579V12.01C98.8579 11.29 98.5229 10.926 97.8949 10.926C97.7421 10.9135 97.5884 10.9344 97.4446 10.9875C97.3007 11.0406 97.1702 11.1244 97.0622 11.2332C96.9542 11.342 96.8712 11.4731 96.8192 11.6173C96.7671 11.7615 96.7472 11.9153 96.7609 12.068V14.698H95.8729V8.43701ZM104.929 13.482C104.808 13.8934 104.547 14.2493 104.19 14.4874C103.834 14.7256 103.405 14.831 102.979 14.785C102.682 14.7931 102.387 14.7364 102.114 14.6189C101.842 14.5014 101.598 14.3259 101.4 14.1046C101.202 13.8834 101.054 13.6216 100.968 13.3376C100.881 13.0536 100.857 12.7541 100.898 12.46C100.858 12.1652 100.883 11.8653 100.969 11.5808C101.056 11.2962 101.203 11.0335 101.399 10.8105C101.596 10.5875 101.839 10.4094 102.11 10.2882C102.382 10.167 102.676 10.1055 102.974 10.108C104.227 10.108 104.983 10.964 104.983 12.378V12.688H101.803V12.738C101.789 12.9033 101.81 13.0697 101.864 13.2266C101.918 13.3834 102.004 13.5271 102.117 13.6486C102.23 13.7701 102.368 13.8666 102.52 13.9319C102.673 13.9973 102.837 14.03 103.003 14.028C103.215 14.0532 103.43 14.0147 103.621 13.9175C103.811 13.8203 103.969 13.6687 104.073 13.482H104.929ZM101.803 12.031H104.078C104.089 11.8798 104.069 11.7278 104.018 11.585C103.967 11.4421 103.887 11.3115 103.782 11.2016C103.678 11.0917 103.551 11.0048 103.411 10.9467C103.271 10.8885 103.12 10.8604 102.969 10.864C102.815 10.8621 102.663 10.891 102.52 10.949C102.378 11.007 102.248 11.0929 102.14 11.2017C102.031 11.3104 101.945 11.4399 101.887 11.5823C101.83 11.7247 101.801 11.8773 101.803 12.031Z" fill="white"/>
</g>
<defs>
<clipPath id="clip0_134_9178">
<rect width="120" height="40" fill="white"/>
</clipPath>
</defs>
</svg>
