<svg width="135" height="40" viewBox="0 0 135 40" fill="none" xmlns="http://www.w3.org/2000/svg">
<g clip-path="url(#clip0_134_9186)">
<path d="M130.001 39.7964H4.9995C2.25 39.7964 0 37.5707 0 34.85V5.15361C0 2.43201 2.25 0.203613 4.9995 0.203613H130.001C132.746 0.203613 135 2.43201 135 5.15361V34.85C135 37.5707 132.75 39.7964 130.001 39.7964Z" fill="black"/>
<path d="M130.001 0.994759C132.314 0.994759 134.198 2.86136 134.198 5.15276V34.8501C134.198 37.1388 132.314 39.0054 130.001 39.0054H4.9995C2.682 39.0054 0.801 37.1424 0.801 34.8501V5.15366C0.801 2.86136 2.6856 0.994759 4.9995 0.994759H130.001ZM130.001 0.202759H4.9995C2.25 0.203659 0 2.43206 0 5.15366V34.8501C0 37.5708 2.25 39.8001 4.9995 39.8001H130.001C132.746 39.8001 135 37.5708 135 34.8501V5.15366C135 2.43206 132.75 0.203659 130.001 0.203659V0.202759Z" fill="#A6A6A6"/>
<path d="M44.4688 13.286C43.5868 13.286 42.8272 12.98 42.2053 12.3707C41.5861 11.7587 41.2729 10.9964 41.2729 10.1C41.2729 9.2036 41.5861 8.4404 42.2053 7.8356C42.8236 7.2281 43.5868 6.9176 44.4688 6.9176C44.8945 6.9176 45.3193 7.0031 45.7315 7.175C46.1356 7.3469 46.4587 7.5755 46.6981 7.8608L46.7431 7.9166L46.1104 8.5493L46.0546 8.4827C45.664 8.0327 45.1474 7.8113 44.4688 7.8113C44.1756 7.80801 43.8847 7.86252 43.6126 7.97169C43.3405 8.08087 43.0926 8.24259 42.883 8.4476C42.4402 8.8697 42.2188 9.425 42.2188 10.1C42.2188 10.7786 42.4402 11.3375 42.883 11.7596C43.333 12.1817 43.8676 12.3923 44.4688 12.3923C45.1159 12.3923 45.6568 12.1781 46.0861 11.756C46.3498 11.4923 46.5046 11.144 46.5568 10.6868H44.3878V9.812H47.4361L47.4505 9.875C47.482 10.019 47.4991 10.1666 47.4991 10.343C47.4991 11.1827 47.239 11.8721 46.7332 12.3815C46.1491 12.9791 45.3904 13.2851 44.4688 13.2851V13.286ZM52.1053 13.1483H48.445V7.0553H52.1053V7.9445H49.3765V9.6635H51.838V10.5392H49.3765V12.2582H52.1053V13.1483ZM55.357 13.1483H54.4255V7.9445H52.7515V7.0553H57.0337V7.9445H55.357V13.1483ZM60.7849 13.1483H59.857V7.0553H60.7849V13.1483ZM64.2049 13.1483H63.2815V7.9445H61.6003V7.0553H65.8861V7.9445H64.2058L64.2049 13.1483ZM71.413 13.2851C70.5166 13.2851 69.757 12.9755 69.1522 12.3608C68.551 11.7488 68.245 10.9892 68.245 10.1036C68.245 9.2144 68.551 8.4512 69.1522 7.8428C69.757 7.2308 70.5166 6.9185 71.413 6.9185C72.3022 6.9185 73.0582 7.2308 73.663 7.85C74.2678 8.462 74.5729 9.2207 74.5729 10.1036C74.5729 10.9892 74.2669 11.7524 73.6666 12.3644C73.0618 12.9764 72.3022 13.2851 71.413 13.2851ZM69.8344 11.7524C70.27 12.1844 70.783 12.3959 71.413 12.3959C71.7044 12.4015 71.9939 12.3472 72.2635 12.2365C72.5332 12.1259 72.7773 11.9611 72.9808 11.7524C73.4092 11.3231 73.6279 10.7678 73.6279 10.1C73.6279 9.4358 73.4092 8.8805 72.9799 8.4512C72.5587 8.0219 72.0313 7.8077 71.413 7.8077C70.7866 7.8077 70.27 8.0183 69.8344 8.4512C69.4087 8.8805 69.1909 9.4358 69.1909 10.1C69.1909 10.7678 69.4087 11.324 69.8344 11.7524ZM80.2789 13.1474H79.351L79.3267 13.1096L76.3945 8.4584L76.4224 9.3692V13.1483H75.4945V7.0553H76.5565L79.3753 11.5166L79.3483 10.613V7.0553H80.2789V13.1474ZM68.1325 21.737C65.788 21.737 63.8683 23.5055 63.8683 25.9445C63.8683 28.3673 65.788 30.1565 68.1325 30.1565C70.4878 30.1565 72.4075 28.3673 72.4075 25.9445C72.4075 23.5055 70.4878 21.737 68.1325 21.737ZM68.1325 28.4969C66.8455 28.4969 65.7385 27.443 65.7385 25.9445C65.7385 24.4298 66.8455 23.393 68.1325 23.393C69.4231 23.393 70.5373 24.4298 70.5373 25.9445C70.5373 27.443 69.4231 28.4969 68.1325 28.4969ZM58.8238 21.737C56.4685 21.737 54.556 23.5055 54.556 25.9445C54.556 28.3673 56.4685 30.1565 58.8238 30.1565C61.1764 30.1565 63.0925 28.3673 63.0925 25.9445C63.0925 23.5055 61.1755 21.737 58.8238 21.737ZM58.8238 28.4969C57.5341 28.4969 56.4226 27.443 56.4226 25.9445C56.4226 24.4298 57.5341 23.393 58.8238 23.393C60.1108 23.393 61.2214 24.4298 61.2214 25.9445C61.2214 27.443 60.1108 28.4969 58.8238 28.4969ZM47.743 23.0267V24.8168H52.0603C51.9343 25.8149 51.5959 26.5493 51.0793 27.0632C50.4493 27.6815 49.4683 28.3673 47.743 28.3673C45.088 28.3673 43.0072 26.2469 43.0072 23.618C43.0072 20.9882 45.0889 18.8642 47.743 18.8642C49.1812 18.8642 50.2252 19.4195 50.9947 20.1404L52.2709 18.8786C51.1909 17.8589 49.7572 17.0786 47.743 17.0786C44.1007 17.0786 41.0425 20.0108 41.0425 23.618C41.0425 27.2207 44.1043 30.1565 47.743 30.1565C49.7113 30.1565 51.1918 29.5175 52.3555 28.3178C53.5471 27.1406 53.9161 25.481 53.9161 24.1445C53.9161 23.7269 53.881 23.3471 53.8216 23.0267H47.743ZM93.0526 24.4127C92.7007 23.4695 91.618 21.737 89.4103 21.737C87.2197 21.737 85.399 23.4416 85.399 25.9445C85.399 28.3043 87.2026 30.1565 89.6173 30.1565C91.5721 30.1565 92.7007 28.9757 93.1615 28.2899L91.7125 27.3332C91.2274 28.0334 90.5695 28.4969 89.6173 28.4969C88.6723 28.4969 87.9937 28.0685 87.5572 27.2207L93.2452 24.8897C93.2488 24.8897 93.0526 24.4127 93.0526 24.4127ZM87.2512 25.8149C87.2026 24.1904 88.5238 23.3606 89.4742 23.3606C90.2149 23.3606 90.844 23.7269 91.0555 24.2543L87.2512 25.8149ZM82.6288 29.9H84.499V17.525H82.6288V29.9ZM79.5661 22.6721H79.5031C79.0846 22.1834 78.2827 21.7361 77.2675 21.7361C75.1363 21.7361 73.1887 23.5856 73.1887 25.9589C73.1887 28.3214 75.1363 30.1565 77.2675 30.1565C78.2827 30.1565 79.0855 29.7065 79.5031 29.2007H79.5661V29.8019C79.5661 31.412 78.6976 32.2769 77.2954 32.2769C76.1524 32.2769 75.4459 31.4606 75.1507 30.7757L73.5262 31.4471C73.9942 32.5613 75.2353 33.9356 77.2954 33.9356C79.4887 33.9356 81.3382 32.6594 81.3382 29.5526V21.9926H79.5661V22.6721ZM77.425 28.4969C76.138 28.4969 75.0589 27.4286 75.0589 25.9589C75.0589 24.4757 76.1389 23.393 77.4259 23.393C78.6976 23.393 79.6966 24.4757 79.6966 25.9589C79.6966 27.4286 78.6976 28.4969 77.425 28.4969ZM101.806 17.525H97.3339V29.9H99.2014V25.211H101.806C103.88 25.211 105.909 23.726 105.909 21.368C105.909 19.0082 103.873 17.525 101.806 17.525ZM101.855 23.4911H99.2005V19.2476H101.855C103.248 19.2476 104.042 20.3906 104.042 21.368C104.042 22.3238 103.248 23.4911 101.855 23.4911ZM113.383 21.7118C112.036 21.7118 110.638 22.3031 110.062 23.6072L111.713 24.293C112.071 23.6072 112.726 23.3822 113.419 23.3822C114.385 23.3822 115.366 23.9582 115.381 24.9752V25.1048C115.042 24.9113 114.321 24.6269 113.432 24.6269C111.65 24.6269 109.836 25.5971 109.836 27.4106C109.836 29.0702 111.295 30.1358 112.936 30.1358C114.192 30.1358 114.884 29.5733 115.32 28.9226H115.383V29.8793H117.183V25.1327C117.183 22.9394 115.527 21.7118 113.383 21.7118ZM113.158 28.4933C112.546 28.4933 111.7 28.1918 111.7 27.443C111.7 26.4863 112.757 26.12 113.675 26.12C114.498 26.12 114.881 26.3 115.38 26.5358C115.236 27.6815 114.237 28.4933 113.158 28.4933ZM123.747 21.9827L121.602 27.3476H121.539L119.321 21.9836H117.31L120.639 29.4779L118.74 33.6512H120.689L125.818 21.9827H123.748H123.747ZM106.934 29.9H108.805V17.525H106.934V29.9Z" fill="white"/>
<path d="M10.4346 7.66371C10.143 7.96971 9.97021 8.44041 9.97021 9.05601V30.9476C9.97021 31.5632 10.1394 32.0339 10.4346 32.3399L10.5084 32.4065L22.9014 20.144V19.856L10.5075 7.59351L10.4346 7.66371Z" fill="url(#paint0_linear_134_9186)"/>
<path d="M27.0278 24.2363L22.9004 20.144V19.856L27.0314 15.7673L27.1232 15.8195L32.0165 18.5762C33.4124 19.3601 33.4124 20.6435 32.0165 21.431L27.1232 24.1832C27.1232 24.1805 27.0278 24.2363 27.0278 24.2363Z" fill="url(#paint1_linear_134_9186)"/>
<path d="M27.1233 24.1805L22.9005 20L10.4346 32.339C10.8981 32.8214 11.6541 32.8808 12.5154 32.3993L27.1233 24.1805Z" fill="url(#paint2_linear_134_9186)"/>
<path d="M27.1233 15.8195L12.5163 7.60072C11.6541 7.12192 10.8981 7.18222 10.4346 7.66372L22.9005 20L27.1233 15.8195Z" fill="url(#paint3_linear_134_9186)"/>
</g>
<defs>
<linearGradient id="paint0_linear_134_9186" x1="21.8068" y1="31.1742" x2="5.18663" y2="14.3865" gradientUnits="userSpaceOnUse">
<stop stop-color="#00A0FF"/>
<stop offset="0.007" stop-color="#00A1FF"/>
<stop offset="0.26" stop-color="#00BEFF"/>
<stop offset="0.512" stop-color="#00D2FF"/>
<stop offset="0.76" stop-color="#00DFFF"/>
<stop offset="1" stop-color="#00E3FF"/>
</linearGradient>
<linearGradient id="paint1_linear_134_9186" x1="33.8468" y1="19.9915" x2="9.64101" y2="19.9915" gradientUnits="userSpaceOnUse">
<stop stop-color="#FFE000"/>
<stop offset="0.409" stop-color="#FFBD00"/>
<stop offset="0.775" stop-color="#FFA500"/>
<stop offset="1" stop-color="#FF9C00"/>
</linearGradient>
<linearGradient id="paint2_linear_134_9186" x1="16.4886" y1="25.9817" x2="-6.04977" y2="3.21626" gradientUnits="userSpaceOnUse">
<stop stop-color="#FF3A44"/>
<stop offset="1" stop-color="#C31162"/>
</linearGradient>
<linearGradient id="paint3_linear_134_9186" x1="-1.04532" y1="31.3626" x2="9.01907" y2="21.1968" gradientUnits="userSpaceOnUse">
<stop stop-color="#32A071"/>
<stop offset="0.069" stop-color="#2DA771"/>
<stop offset="0.476" stop-color="#15CF74"/>
<stop offset="0.801" stop-color="#06E775"/>
<stop offset="1" stop-color="#00F076"/>
</linearGradient>
<clipPath id="clip0_134_9186">
<rect width="135" height="40" fill="white"/>
</clipPath>
</defs>
</svg>
