<svg width="22" height="22" viewBox="0 0 22 22" fill="#fff" xmlns="http://www.w3.org/2000/svg">
<g clip-path="url(#clip0_102_4025)">
<path d="M8.24999 0.916626L13.75 0.916626C16.3169 0.916626 17.6004 0.916626 18.5808 1.41618C19.4432 1.8556 20.1444 2.55676 20.5838 3.41917C21.0833 4.3996 21.0833 5.68305 21.0833 8.24996V13.75C21.0833 16.3169 21.0833 17.6003 20.5838 18.5807C20.1444 19.4432 19.4432 20.1443 18.5808 20.5837C17.6004 21.0833 16.3169 21.0833 13.75 21.0833H8.24999M8.24999 0.916626C5.68308 0.916626 4.39963 0.916626 3.4192 1.41618C2.55679 1.8556 1.85563 2.55676 1.41621 3.41917C0.916656 4.3996 0.916656 5.68305 0.916656 8.24996L0.916657 13.75C0.916657 16.3169 0.916657 17.6003 1.41621 18.5807C1.85563 19.4432 2.55679 20.1443 3.4192 20.5837C4.39963 21.0833 5.68308 21.0833 8.24999 21.0833M8.24999 0.916626L8.24999 21.0833M8.24999 11L22 11" stroke="#5F6D7E" stroke-width="1.67" stroke-linecap="round"/>
</g>
<defs>
<clipPath id="clip0_102_4025">
<rect width="22" height="22" fill="white"/>
</clipPath>
</defs>
</svg>
