<svg width="60" height="60" viewBox="0 0 60 60" fill="none" xmlns="http://www.w3.org/2000/svg">
<path d="M27.5 22.5H49.9869C51.2268 22.5 51.8467 22.5 52.2107 22.9007C52.5746 23.3014 52.5271 23.9315 52.432 25.1917L50.8795 45.767C50.5489 50.1471 50.3837 52.3372 48.9734 53.6686C47.563 55 45.4083 55 41.099 55H29.8384C25.529 55 23.3743 55 21.964 53.6686C19.8654 51.6875 20.2017 47.6734 20 45" stroke="#574EFA" stroke-width="3" stroke-linecap="round" stroke-linejoin="round"/>
<path d="M27.5 22.2727V35.9091C27.5 40.1946 27.5 42.3373 26.0355 43.6687C24.5711 45 22.214 45 17.5 45C12.786 45 10.4289 45 8.96447 43.6687C7.5 42.3373 7.5 40.1946 7.5 35.9091V33.6364C7.5 27.2081 7.5 23.994 9.6967 21.997C11.8934 20 15.4289 20 22.5 20H25C26.1785 20 26.7678 20 27.1339 20.3328C27.5 20.6657 27.5 21.2014 27.5 22.2727Z" stroke="#574EFA" stroke-width="3" stroke-linecap="round" stroke-linejoin="round"/>
<path d="M47.5 22.5C47.5 12.835 41.8751 5 34.9364 5C28.6071 5 23.3709 11.5193 22.5 20" stroke="#574EFA" stroke-width="3" stroke-linecap="round" stroke-linejoin="round"/>
<path d="M7.5 35H27.5" stroke="#574EFA" stroke-width="3" stroke-linecap="round" stroke-linejoin="round"/>
<path d="M27.5 32.5H50" stroke="#574EFA" stroke-width="3" stroke-linecap="round" stroke-linejoin="round"/>
</svg>
