<svg width="161" height="55" viewBox="0 0 161 55" fill="none" xmlns="http://www.w3.org/2000/svg">
<g clipPath="url(#clip0_202_10704)">
<path d="M24.1146 3.52356C10.8425 3.52356 0.0827026 14.283 0.0827026 27.5552C0.0827026 40.828 10.8425 51.5866 24.1146 51.5866C37.3883 51.5866 48.1469 40.828 48.1469 27.5552C48.1469 14.2839 37.3883 3.52471 24.1144 3.52471L24.1146 3.52356V3.52356ZM35.1355 38.1841C34.7051 38.89 33.781 39.1139 33.0751 38.6805C27.4326 35.234 20.3295 34.4534 11.9642 36.3647C11.1581 36.5483 10.3546 36.0433 10.1709 35.2369C9.98641 34.4305 10.4895 33.627 11.2976 33.4433C20.452 31.3518 28.3044 32.2524 34.6391 36.1236C35.345 36.557 35.5689 37.4781 35.1355 38.1841V38.1841ZM38.077 31.6405C37.5346 32.5221 36.381 32.8005 35.5 32.2581C29.0402 28.2876 19.1934 27.1377 11.5527 29.457C10.5618 29.7563 9.5152 29.1978 9.21446 28.2086C8.916 27.2177 9.47474 26.1731 10.4639 25.8718C19.1916 23.2236 30.0418 24.5064 37.46 29.065C38.341 29.6073 38.6194 30.761 38.077 31.6408V31.6405ZM38.3295 24.8267C30.5841 20.2262 17.8053 19.8032 10.4103 22.0476C9.22278 22.4078 7.96699 21.7374 7.60712 20.5499C7.24726 19.3619 7.91705 18.1069 9.10541 17.7459C17.5943 15.1689 31.7062 15.6668 40.6236 20.9606C41.694 21.5945 42.0441 22.974 41.4099 24.0407C40.7786 25.1088 39.3954 25.4609 38.3307 24.8267H38.3295ZM65.4657 25.7082C61.316 24.7188 60.5785 24.0243 60.5785 22.565C60.5785 21.1864 61.8756 20.2586 63.807 20.2586C65.678 20.2586 67.5319 20.9632 69.4775 22.4135C69.5349 22.4574 69.6095 22.4749 69.6813 22.4635C69.7559 22.4525 69.819 22.4127 69.8621 22.3527L71.8881 19.4967C71.9713 19.3791 71.9484 19.2169 71.8364 19.1271C69.5206 17.2695 66.9149 16.3664 63.8672 16.3664C59.3876 16.3664 56.2567 19.0551 56.2567 22.9019C56.2567 27.0272 58.9571 28.4879 63.6233 29.6154C67.5921 30.53 68.2636 31.2962 68.2636 32.6656C68.2636 34.1837 66.9091 35.1278 64.7281 35.1278C62.3061 35.1278 60.3289 34.31 58.1192 32.3987C58.0646 32.3499 57.99 32.3298 57.9212 32.3327C57.8465 32.3385 57.7805 32.3729 57.7346 32.4274L55.4618 35.1307C55.3671 35.2455 55.3786 35.4119 55.4876 35.5095C58.0589 37.8053 61.2213 39.0163 64.6363 39.0163C69.4632 39.0163 72.5826 36.379 72.5826 32.2954C72.5912 28.8497 70.5279 26.9414 65.4743 25.712L65.4657 25.7082V25.7082ZM83.5048 21.616C81.4127 21.616 79.6966 22.4402 78.279 24.129V22.2281C78.279 22.078 78.1585 21.9558 78.0092 21.9558H74.2929C74.1437 21.9558 74.0232 22.078 74.0232 22.2281V43.3496C74.0232 43.4988 74.1437 43.6222 74.2929 43.6222H78.0092C78.1585 43.6222 78.279 43.4988 78.279 43.3496V36.6832C79.6966 38.2702 81.4127 39.0479 83.5048 39.0479C87.3932 39.0479 91.3305 36.0548 91.3305 30.3328C91.3362 24.6097 87.399 21.6157 83.5076 21.6157L83.5048 21.616ZM87.0087 30.3328C87.0087 33.2453 85.2151 35.2799 82.6438 35.2799C80.1041 35.2799 78.1872 33.1535 78.1872 30.3328C78.1872 27.5119 80.1041 25.386 82.6438 25.386C85.1721 25.3857 87.0087 27.4657 87.0087 30.3325V30.3328ZM101.418 21.616C96.4099 21.616 92.487 25.4718 92.487 30.3951C92.487 35.2656 96.3841 39.0794 101.357 39.0794C106.382 39.0794 110.317 35.2369 110.317 30.3328C110.317 25.4454 106.408 21.6166 101.418 21.6166V21.616V21.616ZM101.418 35.3086C98.7545 35.3086 96.7457 33.1678 96.7457 30.3314C96.7457 27.482 98.6856 25.4144 101.357 25.4144C104.038 25.4144 106.058 27.5543 106.058 30.3936C106.058 33.2424 104.107 35.3086 101.418 35.3086V35.3086ZM121.009 21.9558H116.92V17.7758C116.92 17.626 116.799 17.5037 116.65 17.5037H112.934C112.785 17.5037 112.661 17.626 112.661 17.7758V21.9558H110.876C110.727 21.9558 110.606 22.078 110.606 22.2281V25.4213C110.606 25.5711 110.727 25.6936 110.876 25.6936H112.661V33.957C112.661 37.2945 114.323 38.9876 117.603 38.9876C118.934 38.9876 120.039 38.7121 121.081 38.121C121.167 38.075 121.219 37.9832 121.219 37.8856V34.8437C121.219 34.7519 121.17 34.6629 121.09 34.6141C121.009 34.5625 120.909 34.5596 120.826 34.6027C120.111 34.9614 119.419 35.1278 118.645 35.1278C117.454 35.1278 116.92 34.5855 116.92 33.3744V25.695H121.009C121.158 25.695 121.279 25.5728 121.279 25.4227V22.2299C121.285 22.0798 121.164 21.9575 121.012 21.9575L121.009 21.9558V21.9558ZM135.255 21.9722V21.4588C135.255 19.9484 135.834 19.2749 137.131 19.2749C137.906 19.2749 138.529 19.4287 139.226 19.6612C139.312 19.6881 139.401 19.6747 139.47 19.6233C139.542 19.5719 139.582 19.4896 139.582 19.4023V16.2714C139.582 16.1518 139.507 16.0459 139.39 16.0106C138.655 15.7916 137.714 15.5669 136.302 15.5669C132.873 15.5669 131.056 17.4994 131.056 21.1534V21.9397H129.271C129.122 21.9397 128.999 22.062 128.999 22.2118V25.4213C128.999 25.5711 129.122 25.6936 129.271 25.6936H131.056V38.4366C131.056 38.5887 131.18 38.7092 131.329 38.7092H135.042C135.194 38.7092 135.315 38.5887 135.315 38.4366V25.6945H138.784L144.099 38.4366C143.496 39.7739 142.902 40.0408 142.093 40.0408C141.439 40.0408 140.747 39.8457 140.044 39.4582C139.978 39.4238 139.898 39.4181 139.829 39.4382C139.757 39.464 139.697 39.5156 139.668 39.5845L138.408 42.3481C138.348 42.4801 138.4 42.6322 138.526 42.701C139.84 43.4127 141.026 43.7169 142.492 43.7169C145.235 43.7169 146.754 42.437 148.088 38.9991L154.533 22.3441C154.568 22.2603 154.556 22.1656 154.505 22.0912C154.456 22.0175 154.373 21.973 154.284 21.973H150.415C150.298 21.973 150.194 22.0468 150.157 22.1555L146.194 33.472L141.855 22.1481C141.815 22.0428 141.714 21.973 141.602 21.973H135.255V21.9722V21.9722ZM126.995 21.9558H123.279C123.13 21.9558 123.007 22.078 123.007 22.2281V38.4366C123.007 38.5887 123.13 38.7092 123.279 38.7092H126.995C127.145 38.7092 127.268 38.5887 127.268 38.4366V22.2293C127.268 22.0792 127.148 21.9569 126.995 21.9569V21.9558ZM125.159 14.5752C123.687 14.5752 122.493 15.7667 122.493 17.2385C122.493 18.7113 123.687 19.9042 125.159 19.9042C126.631 19.9042 127.822 18.7113 127.822 17.2385C127.822 15.767 126.628 14.5752 125.159 14.5752ZM157.707 27.1675C156.238 27.1675 155.093 25.9866 155.093 24.5526C155.093 23.1186 156.252 21.9242 157.722 21.9242C159.191 21.9242 160.336 23.1048 160.336 24.5377C160.336 25.9717 159.177 27.1675 157.707 27.1675ZM157.722 22.1842C156.381 22.1842 155.368 23.2489 155.368 24.5526C155.368 25.8558 156.376 26.9061 157.707 26.9061C159.047 26.9061 160.06 25.8423 160.06 24.5377C160.06 23.2345 159.053 22.1842 157.722 22.1842V22.1842ZM158.301 24.8066L159.042 25.842H158.416L157.75 24.8921H157.179V25.842H156.657V23.0974H157.879C158.519 23.0974 158.938 23.4237 158.938 23.9729C158.941 24.4229 158.68 24.6978 158.304 24.8066H158.301ZM157.859 23.5683H157.179V24.4364H157.859C158.198 24.4364 158.402 24.2702 158.402 24.0019C158.402 23.7195 158.198 23.5683 157.859 23.5683V23.5683Z" fill="#1ED760"/>
</g>
<defs>
<clipPath id="clip0_202_10704">
<rect width="160.21" height="54.9291" fill="white"/>
</clipPath>
</defs>
</svg>
