<svg width="161" height="62" viewBox="0 0 161 62" fill="none" xmlns="http://www.w3.org/2000/svg">
<g clip-path="url(#clip0_202_10714)">
<path d="M84.5656 18.5192C84.5656 20.3238 83.1119 21.7775 81.3073 21.7775C79.5027 21.7775 78.049 20.3238 78.049 18.5192C78.049 16.7146 79.4526 15.2609 81.3073 15.2609C83.1621 15.311 84.5656 16.7647 84.5656 18.5192ZM71.1313 25.086C71.1313 25.3868 71.1313 25.8881 71.1313 25.8881C71.1313 25.8881 69.5773 23.8829 66.2688 23.8829C60.8049 23.8829 56.544 28.0436 56.544 33.8083C56.544 39.5229 60.7547 43.7337 66.2688 43.7337C69.6274 43.7337 71.1313 41.6785 71.1313 41.6785V42.5306C71.1313 42.9317 71.432 43.2324 71.8331 43.2324H75.8935V24.3842C75.8935 24.3842 72.184 24.3842 71.8331 24.3842C71.432 24.3842 71.1313 24.7351 71.1313 25.086ZM71.1313 37.1669C70.3793 38.2697 68.8755 39.2222 67.0709 39.2222C63.8627 39.2222 61.4064 37.217 61.4064 33.8083C61.4064 30.3996 63.8627 28.3945 67.0709 28.3945C68.8254 28.3945 70.4295 29.397 71.1313 30.4497V37.1669ZM78.9011 24.3842H83.7135V43.2324H78.9011V24.3842ZM150.785 23.8829C147.477 23.8829 145.923 25.8881 145.923 25.8881V15.311H141.11V43.2324C141.11 43.2324 144.82 43.2324 145.171 43.2324C145.572 43.2324 145.872 42.8815 145.872 42.5306V41.6785C145.872 41.6785 147.426 43.7337 150.735 43.7337C156.199 43.7337 160.46 39.5229 160.46 33.8083C160.46 28.0937 156.199 23.8829 150.785 23.8829ZM149.983 39.172C148.128 39.172 146.675 38.2196 145.923 37.1168V30.3996C146.675 29.397 148.279 28.3443 149.983 28.3443C153.191 28.3443 155.647 30.3495 155.647 33.7582C155.647 37.1669 153.191 39.172 149.983 39.172ZM138.604 32.0538V43.2826H133.792V32.6052C133.792 29.4973 132.789 28.2441 130.082 28.2441C128.628 28.2441 127.125 28.996 126.172 30.0988V43.2324H121.36V24.3842H125.17C125.571 24.3842 125.871 24.7351 125.871 25.086V25.8881C127.275 24.4343 129.13 23.8829 130.984 23.8829C133.09 23.8829 134.844 24.4845 136.248 25.6875C137.952 27.0911 138.604 28.8957 138.604 32.0538ZM109.68 23.8829C106.371 23.8829 104.817 25.8881 104.817 25.8881V15.311H100.005V43.2324C100.005 43.2324 103.715 43.2324 104.066 43.2324C104.467 43.2324 104.767 42.8815 104.767 42.5306V41.6785C104.767 41.6785 106.321 43.7337 109.63 43.7337C115.094 43.7337 119.355 39.5229 119.355 33.8083C119.405 28.0937 115.144 23.8829 109.68 23.8829ZM108.878 39.172C107.023 39.172 105.569 38.2196 104.817 37.1168V30.3996C105.569 29.397 107.173 28.3443 108.878 28.3443C112.086 28.3443 114.542 30.3495 114.542 33.7582C114.542 37.1669 112.086 39.172 108.878 39.172ZM95.8445 23.8829C97.2982 23.8829 98.0501 24.1336 98.0501 24.1336V28.595C98.0501 28.595 94.0399 27.2415 91.5335 30.0988V43.2826H86.7212V24.3842C86.7212 24.3842 90.4307 24.3842 90.7815 24.3842C91.1826 24.3842 91.4833 24.7351 91.4833 25.086V25.8881C92.3856 24.8354 94.3406 23.8829 95.8445 23.8829ZM45.8666 41.5281C45.616 40.9265 45.3654 40.2749 45.1147 39.7235C44.7137 38.8211 44.3127 37.969 43.9618 37.1669L43.9116 37.1168C40.4528 29.5975 36.7433 21.9781 32.8333 14.4588L32.6829 14.158C32.2819 13.4061 31.8809 12.6041 31.4798 11.802C30.9786 10.8997 30.4773 9.94727 29.6752 9.04496C28.0711 7.03983 25.7652 5.93701 23.3089 5.93701C20.8025 5.93701 18.5467 7.03983 16.8925 8.94471C16.1406 9.84702 15.5892 10.7995 15.0879 11.7018C14.6869 12.5038 14.2858 13.3059 13.8848 14.0578L13.7344 14.3586C9.87456 21.8778 6.11494 29.4973 2.65609 37.0165L2.60596 37.1168C2.25507 37.9188 1.85404 38.771 1.45301 39.6733C1.20237 40.2247 0.951731 40.8263 0.70109 41.4779C0.0494228 43.3327 -0.15109 45.0872 0.099551 46.8918C0.650962 50.6514 3.15737 53.8095 6.61622 55.2131C7.91956 55.7645 9.27302 56.0151 10.6766 56.0151C11.0776 56.0151 11.5789 55.965 11.9799 55.9149C13.6342 55.7144 15.3385 55.163 16.9928 54.2105C19.048 53.0576 21.003 51.4033 23.2087 48.9972C25.4143 51.4033 27.4194 53.0576 29.4246 54.2105C31.0788 55.163 32.7832 55.7144 34.4374 55.9149C34.8384 55.965 35.3397 56.0151 35.7407 56.0151C37.1443 56.0151 38.5479 55.7645 39.8011 55.2131C43.3101 53.8095 45.7664 50.6013 46.3178 46.8918C46.7188 45.1373 46.5183 43.3828 45.8666 41.5281ZM23.2588 44.1347C20.5519 40.726 18.7974 37.5178 18.1958 34.8109C17.9452 33.6579 17.8951 32.6554 18.0455 31.7531C18.1457 30.951 18.4465 30.2492 18.8475 29.6477C19.8 28.2942 21.4041 27.442 23.2588 27.442C25.1135 27.442 26.7678 28.2441 27.6701 29.6477C28.0711 30.2492 28.3719 30.951 28.4721 31.7531C28.6225 32.6554 28.5724 33.7081 28.3218 34.8109C27.7202 37.4677 25.9657 40.6759 23.2588 44.1347ZM43.26 46.4908C42.9091 49.0974 41.1546 51.3532 38.6983 52.3558C37.4952 52.8571 36.1919 53.0074 34.8886 52.8571C33.6353 52.7067 32.3821 52.3056 31.0788 51.5537C29.2742 50.5512 27.4696 48.9972 25.3642 46.6913C28.6727 42.6309 30.6778 38.9214 31.4297 35.6129C31.7806 34.059 31.8307 32.6554 31.6803 31.352C31.4798 30.0988 31.0287 28.9459 30.3269 27.9433C28.7729 25.6875 26.1662 24.3842 23.2588 24.3842C20.3514 24.3842 17.7447 25.7377 16.1907 27.9433C15.4889 28.9459 15.0378 30.0988 14.8373 31.352C14.6367 32.6554 14.6869 34.1091 15.0879 35.6129C15.8398 38.9214 17.8951 42.681 21.1534 46.7414C19.0982 49.0473 17.2434 50.6013 15.4388 51.6038C14.1355 52.3558 12.8823 52.7568 11.629 52.9072C10.2756 53.0576 8.97225 52.8571 7.8193 52.4059C5.36302 51.4033 3.60853 49.1476 3.25763 46.5409C3.10725 45.2877 3.2075 44.0345 3.70878 42.6309C3.85917 42.1296 4.10981 41.6283 4.36045 41.0268C4.71135 40.2247 5.11238 39.3726 5.5134 38.5204L5.56353 38.4201C9.02238 30.951 12.7319 23.3315 16.5917 15.9125L16.7421 15.6118C17.1432 14.8598 17.5442 14.0578 17.9452 13.3059C18.3462 12.5038 18.7974 11.7519 19.3488 11.1002C20.4015 9.89714 21.8051 9.24548 23.3591 9.24548C24.913 9.24548 26.3166 9.89714 27.3693 11.1002C27.9207 11.7519 28.3719 12.5038 28.7729 13.3059C29.1739 14.0578 29.575 14.8598 29.976 15.6118L30.1264 15.9125C33.9361 23.3816 37.6456 31.0011 41.1045 38.4702V38.5204C41.5055 39.3224 41.8564 40.2247 42.2574 41.0268C42.508 41.6283 42.7587 42.1296 42.9091 42.6309C43.3101 43.9342 43.4605 45.1874 43.26 46.4908Z" fill="#FF5A5F"/>
</g>
<defs>
<clipPath id="clip0_202_10714">
<rect width="160.25" height="60.0938" fill="white" transform="translate(0 0.929199)"/>
</clipPath>
</defs>
</svg>
