<svg width="161" height="47" viewBox="0 0 161 47" fill="none" xmlns="http://www.w3.org/2000/svg">
<g clip-path="url(#clip0_202_10705)">
<path d="M49.5596 29.1837C49.0984 29.299 48.5218 29.4143 47.9453 29.4143C46.7923 29.4143 46.3311 28.7225 46.3311 27.5695V22.3809H49.5596C50.3667 22.3809 51.1738 21.8044 51.1738 20.8819C51.1738 19.9595 50.482 19.383 49.5596 19.383H46.3311V17.6535C46.3311 16.6157 45.524 15.9239 44.6015 15.9239C43.6791 15.9239 42.872 16.731 42.872 17.6535V27.6848C42.872 30.5674 44.2556 32.6428 47.4841 32.6428C48.4065 32.6428 49.6749 32.5275 50.5973 32.0663C51.4044 31.7204 51.635 31.1439 51.635 30.5674C51.635 29.7602 50.8279 28.9531 49.5596 29.1837ZM61.0898 18.9218C60.6286 18.8065 59.7062 18.6912 58.8991 18.6912C56.0165 18.6912 54.4023 20.4207 54.4023 23.0727V30.9133C54.4023 31.8357 55.2094 32.6428 56.1318 32.6428C57.0542 32.6428 57.8614 31.8357 57.8614 30.9133V23.7645C57.8614 22.6115 58.3226 22.1503 59.1297 22.1503C59.9368 22.1503 60.398 22.3809 61.0898 22.3809C62.1276 22.3809 62.7041 21.4585 62.7041 20.7666C62.5888 19.8442 62.1276 19.2677 61.0898 18.9218ZM70.6599 18.6912C67.4315 18.6912 65.1254 20.7666 64.7795 24.1104C64.7795 24.9175 64.6642 26.3012 64.7795 27.3389C65.0101 30.5674 67.3162 32.7581 70.7753 32.7581C72.3895 32.7581 73.8884 32.4122 74.8108 31.8357C75.5027 31.3745 75.618 30.9133 75.618 30.4521C75.618 29.5296 74.8108 28.6072 73.4272 29.0684C72.6201 29.4143 71.6977 29.6449 70.7753 29.6449C69.161 29.6449 67.8927 28.8378 67.8927 27.2236V26.8777H74.4649C75.618 26.8777 76.1945 26.1859 76.1945 25.1481V24.5716C76.3098 20.9972 74.0037 18.6912 70.6599 18.6912ZM72.8507 24.5716H68.008C68.008 22.8421 68.8151 21.6891 70.6599 21.6891C72.2742 21.6891 73.1966 22.7268 73.0813 24.2257C73.0813 24.4563 73.0813 24.5716 72.8507 24.5716ZM84.4963 18.6912C81.2678 18.6912 78.9617 20.7666 78.6158 24.1104C78.6158 24.9175 78.5005 26.3012 78.6158 27.3389C78.8464 30.5674 81.1525 32.7581 84.6116 32.7581C86.2258 32.7581 87.7247 32.4122 88.6472 31.8357C89.339 31.3745 89.4543 30.9133 89.4543 30.4521C89.4543 29.5296 88.6472 28.6072 87.2635 29.0684C86.4564 29.4143 85.534 29.6449 84.6116 29.6449C82.9973 29.6449 81.729 28.8378 81.729 27.2236V26.8777H88.3013C89.4543 26.8777 90.0308 26.1859 90.0308 25.1481V24.5716C90.1461 20.9972 87.84 18.6912 84.4963 18.6912ZM86.687 24.5716H81.8443C81.8443 22.8421 82.6514 21.6891 84.4963 21.6891C86.1105 21.6891 87.0329 22.7268 86.9176 24.2257C86.9176 24.4563 86.9176 24.5716 86.687 24.5716ZM142.724 24.4563L140.879 23.9951C139.726 23.7645 139.38 23.4186 139.38 22.8421C139.38 22.2656 139.957 21.8044 141.225 21.8044C141.917 21.8044 142.724 22.035 143.416 22.3809C144.223 22.8421 145.145 22.7268 145.607 22.1503C146.183 21.5738 146.183 20.536 145.491 19.8442C144.569 19.1524 142.955 18.6912 141.34 18.6912C138.343 18.6912 136.152 20.1901 136.152 22.9574C136.152 25.1481 137.766 26.3012 139.842 26.8777C140.879 27.1083 140.764 27.1083 141.686 27.3389C142.724 27.5695 143.185 28.0307 143.185 28.4919C143.185 29.1837 142.609 29.6449 141.225 29.6449C140.072 29.6449 139.034 29.299 138.227 28.8378C137.42 28.2613 136.498 28.4919 136.037 29.1837C135.575 29.8756 135.691 30.798 136.382 31.2592C137.305 32.0663 138.804 32.7581 141.225 32.7581C144.223 32.7581 146.529 31.1439 146.529 28.3766C146.529 26.3012 145.261 25.0328 142.724 24.4563ZM158.751 26.8777C159.904 26.8777 160.481 26.1859 160.481 25.1481V24.5716C160.481 20.9972 158.175 18.6912 154.831 18.6912C151.602 18.6912 149.296 20.7666 148.95 24.1104C148.95 24.9175 148.835 26.3012 148.95 27.3389C149.181 30.5674 151.487 32.7581 154.946 32.7581C156.56 32.7581 158.059 32.4122 158.982 31.8357C159.674 31.3745 159.789 30.9133 159.789 30.4521C159.789 29.5296 158.982 28.6072 157.598 29.0684C156.791 29.4143 155.869 29.6449 154.946 29.6449C153.332 29.6449 152.064 28.8378 152.064 27.2236V26.8777H158.751ZM154.831 21.6891C156.445 21.6891 157.368 22.7268 157.252 24.2257C157.252 24.4563 157.137 24.5716 157.022 24.5716H152.179C152.179 22.8421 153.101 21.6891 154.831 21.6891ZM112.63 18.6912C109.171 18.6912 106.634 20.8819 106.288 23.8798C106.173 24.9175 106.173 26.5318 106.288 27.5695C106.519 30.5674 109.171 32.7581 112.63 32.7581C116.089 32.7581 118.626 30.5674 118.856 27.5695C118.972 26.5318 118.972 25.0328 118.856 23.9951C118.626 20.8819 116.089 18.6912 112.63 18.6912ZM115.397 26.993C115.282 28.4919 114.244 29.4143 112.63 29.4143C111.016 29.4143 109.978 28.3766 109.863 26.993C109.863 26.3012 109.863 25.1481 109.863 24.4563C109.978 22.9574 111.016 22.035 112.63 22.035C114.244 22.035 115.282 23.0727 115.397 24.4563C115.513 25.1481 115.513 26.3012 115.397 26.993ZM98.9091 18.6912C97.6408 18.6912 96.2571 19.1524 95.7959 19.7289V16.0392C95.7959 15.0015 95.1041 14.3097 94.1817 14.3097C93.2593 14.3097 92.5674 15.1168 92.5674 16.0392V30.9133C92.5674 31.8357 93.3746 32.6428 94.297 32.6428C95.2194 32.6428 95.9112 31.8357 95.9112 30.9133V23.188C96.4877 22.6115 97.4102 22.1503 98.5632 22.1503C99.9468 22.1503 100.754 22.9574 100.754 24.5716V30.9133C100.754 31.951 101.446 32.7581 102.368 32.7581C103.406 32.7581 104.098 31.951 104.098 30.9133V24.341C103.982 20.6513 102.138 18.6912 98.9091 18.6912ZM131.194 18.8065C130.271 18.8065 129.464 19.6136 129.464 20.536V28.7225C128.888 29.0684 128.081 29.4143 127.043 29.4143C125.659 29.4143 124.622 28.6072 124.622 26.993V20.536C124.622 19.4983 123.814 18.6912 122.892 18.6912C121.854 18.6912 121.278 19.4983 121.278 20.536V27.1083C121.278 30.6827 123.353 32.6428 126.928 32.6428C129.58 32.6428 131.424 31.7204 132.232 31.1439C132.693 30.9133 132.808 30.5674 132.808 29.9909V20.536C132.808 19.6136 132.116 18.8065 131.194 18.8065Z" fill="#3E474F"/>
<path d="M30.1887 11.6578C28.9204 10.966 26.9602 12.119 25.8072 14.1945L23.6165 17.8842C22.8093 19.3831 22.9246 21.2279 23.9624 22.7269L24.0777 22.8422C25.1154 24.2258 26.3837 25.6094 26.8449 26.0707C27.0755 26.3013 27.3061 26.6472 27.4214 27.1084C27.7674 28.3767 27.0755 29.7603 25.6919 30.1062C24.4236 30.4522 23.0399 29.7603 22.694 28.3767C22.5787 28.0308 22.5787 27.6849 22.5787 27.4543C22.694 26.8778 22.4634 26.0707 21.6563 25.1482C20.8492 24.3411 19.3503 25.9554 18.7737 27.5696V27.6849C18.3125 29.2991 17.9666 30.7981 18.0819 30.9134C18.0819 31.0287 18.1972 31.0287 18.1972 31.144C18.8891 32.5276 18.4278 34.1418 17.0442 34.8337C15.6606 35.5255 14.0463 35.0643 13.3545 33.6806C12.6627 32.297 13.1239 30.6828 14.5075 29.9909C14.6229 29.9909 14.6229 29.8756 14.7382 29.8756C14.8535 29.8756 15.0841 29.1838 15.43 28.2614C15.6606 27.4543 15.7759 27.1084 15.8912 26.7625C16.0065 26.3013 16.2371 25.1482 16.1218 24.687C16.0065 24.1105 15.43 24.1105 14.8535 24.4564C14.5075 24.687 13.8157 25.2635 13.5851 25.4941C13.0086 25.9553 12.5474 26.6472 12.3168 27.2237C12.2015 27.4543 11.9709 27.8002 11.7403 28.0308C10.7026 28.8379 9.20363 28.7226 8.28121 27.6849C7.47409 26.6472 7.58939 25.1482 8.62712 24.2258C8.97302 23.9952 9.31893 23.7646 9.66484 23.7646C10.2414 23.6493 12.3168 22.381 13.5851 21.4585C13.8157 21.3432 14.1616 20.9973 14.2769 20.882C14.6229 20.4208 14.2769 20.0749 13.931 20.0749C12.8933 20.1902 11.7403 20.3055 11.5097 20.6514C11.3944 20.7667 11.2791 20.9973 11.0485 21.1126C10.126 21.8045 8.74242 21.5738 8.0506 20.6514C7.35879 19.729 7.58939 18.3454 8.51181 17.6536C8.85772 17.3077 9.43423 17.1923 9.78014 17.1923C10.5873 17.1923 12.6627 17.6536 14.2769 17.3077L14.7382 17.1923C16.4677 16.8464 18.5431 15.3475 19.3503 13.8486C19.3503 13.8486 20.1574 12.4649 21.0798 10.7354C22.1175 9.00586 22.0022 7.04571 20.9645 6.4692L19.0044 5.31617C17.9666 4.73966 16.4677 4.73966 15.43 5.31617L2.05486 12.9261C1.01714 13.5027 0.210022 14.8863 0.210022 16.0393V30.7981C0.210022 31.9511 1.01714 33.3347 2.05486 33.9112L15.43 41.5212C16.4677 42.0977 18.0819 42.0977 19.0044 41.5212L32.3795 33.9112C33.4172 33.3347 34.2243 31.9511 34.2243 30.7981V16.0393C34.2243 14.8863 33.4172 13.5027 32.3795 12.9261C32.3795 12.9261 31.457 12.3496 30.1887 11.6578Z" fill="#5FCF80"/>
</g>
<defs>
<clipPath id="clip0_202_10705">
<rect width="160.21" height="46.6065" fill="white" transform="translate(0.210022)"/>
</clipPath>
</defs>
</svg>
