<svg width="161" height="61" viewBox="0 0 161 61" fill="none" xmlns="http://www.w3.org/2000/svg">
<path d="M55.8212 44.1283V26.0473H56.1433L69.3045 44.1283H73.4462V17.5761H68.8443V35.6116H68.5222L55.361 17.5761H51.2194V44.1283H55.8212ZM86.4693 44.5382C92.5437 44.5382 96.2712 40.6214 96.2712 34.0631C96.2712 27.5503 92.5437 23.5879 86.4693 23.5879C80.4409 23.5879 76.6674 27.5503 76.6674 34.0631C76.7135 40.6214 80.3949 44.5382 86.4693 44.5382ZM86.4693 40.7125C83.248 40.7125 81.4073 38.2987 81.4073 34.0631C81.4073 29.873 83.248 27.4136 86.4693 27.4136C89.6906 27.4136 91.5313 29.873 91.5313 34.0631C91.5313 38.2987 89.6906 40.7125 86.4693 40.7125ZM100.459 19.0791V24.1345H97.2376V27.778H100.459V38.7541C100.459 42.6709 102.3 44.2194 106.993 44.2194C107.868 44.2194 108.742 44.1283 109.432 43.9917V40.4392C108.88 40.4848 108.512 40.5303 107.868 40.5303C105.935 40.5303 105.061 39.665 105.061 37.661V27.778H109.432V24.1345H105.061V19.0791H100.459ZM112.193 44.1283H116.795V23.9978H112.193V44.1283ZM114.494 20.6731C116.013 20.6731 117.255 19.4434 117.255 17.9405C117.255 16.392 116.013 15.1623 114.494 15.1623C112.976 15.1623 111.733 16.392 111.733 17.9405C111.733 19.4434 112.976 20.6731 114.494 20.6731ZM129.404 44.5382C135.479 44.5382 139.206 40.6214 139.206 34.0631C139.206 27.5503 135.479 23.5879 129.404 23.5879C123.376 23.5879 119.602 27.5503 119.602 34.0631C119.602 40.6214 123.284 44.5382 129.404 44.5382ZM129.404 40.7125C126.183 40.7125 124.342 38.2987 124.342 34.0631C124.342 29.873 126.183 27.4136 129.404 27.4136C132.58 27.4136 134.466 29.873 134.466 34.0631C134.42 38.2987 132.58 40.7125 129.404 40.7125ZM141.921 44.1283H146.523V32.4235C146.523 29.4631 148.272 27.5958 150.987 27.5958C153.794 27.5958 155.082 29.1443 155.082 32.1958V44.1283H159.684V31.1027C159.684 26.275 157.199 23.5879 152.689 23.5879C149.652 23.5879 147.627 24.9543 146.661 27.2315H146.339V23.9978H141.875C141.921 23.9978 141.921 44.1283 141.921 44.1283Z" fill="black"/>
<path fill-rule="evenodd" clip-rule="evenodd" d="M7.09579 15.8767C8.43516 16.9572 8.91961 16.8719 11.4274 16.7013L35.0515 15.2795C35.5644 15.2795 35.137 14.7677 34.966 14.7109L31.0334 11.8959C30.2925 11.3272 29.2666 10.6447 27.3573 10.8153L4.50255 12.493C3.67613 12.5783 3.50515 13.0048 3.84711 13.3176L7.09579 15.8767ZM8.52065 21.3645V46.1593C8.52065 47.4957 9.17608 47.9791 10.6864 47.8938L36.6473 46.3867C38.1577 46.3014 38.3287 45.3915 38.3287 44.311V19.6869C38.3287 18.6064 37.9012 18.0092 36.9893 18.0945L9.86001 19.6869C8.86261 19.7722 8.52065 20.284 8.52065 21.3645ZM34.1396 22.7009C34.3106 23.4402 34.1396 24.2079 33.3987 24.2932L32.1448 24.5491V42.8609C31.0619 43.4296 30.0645 43.7708 29.2096 43.7708C27.8702 43.7708 27.5282 43.3443 26.5308 42.0932L18.3522 29.2693V41.6666L20.9454 42.2353C20.9454 42.2353 20.9454 43.7424 18.8651 43.7424L13.1087 44.0836C12.9377 43.7423 13.1087 42.9178 13.6786 42.7471L15.189 42.3206V25.9424L13.1087 25.7718C12.9377 25.0325 13.3652 23.952 14.5335 23.8667L20.7174 23.4402L29.2381 36.4063V24.9472L27.0723 24.6913C26.9013 23.7814 27.5852 23.099 28.4117 23.0137L34.1396 22.7009ZM2.59324 10.2182L26.3884 8.48373C29.2951 8.22782 30.0645 8.39842 31.8883 9.73484L39.4685 15.0521C40.7224 15.962 41.1499 16.2179 41.1499 17.2131V46.4152C41.1499 48.235 40.4944 49.3155 38.1577 49.4861L10.5439 51.1637C8.77712 51.249 7.9507 50.9931 7.0388 49.8273L1.42486 42.5765C0.427457 41.2401 0 40.2449 0 39.0791V13.1185C0 11.6115 0.683931 10.3888 2.59324 10.2182Z" fill="black"/>
</svg>
