<svg width="161" height="55" viewBox="0 0 161 55" fill="none" xmlns="http://www.w3.org/2000/svg">
<g clipPath="url(#clip0_202_10718)">
<path d="M60.3816 15.2415H51.5564C50.9525 15.2415 50.4389 15.6802 50.3447 16.2764L46.7754 38.9065C46.7044 39.353 47.0502 39.7556 47.5032 39.7556H51.7164C52.3203 39.7556 52.8339 39.3169 52.9281 38.7194L53.8908 32.6157C53.9837 32.0182 54.4985 31.5795 55.1012 31.5795H57.8949C63.7083 31.5795 67.0634 28.7664 67.9396 23.1917C68.3344 20.7528 67.9563 18.8366 66.8143 17.4945C65.56 16.0209 63.3354 15.2415 60.3816 15.2415ZM61.3997 23.5066C60.9171 26.6733 58.4976 26.6733 56.158 26.6733H54.8263L55.7606 20.7593C55.8161 20.4019 56.1258 20.1386 56.4871 20.1386H57.0975C58.6911 20.1386 60.1945 20.1386 60.9713 21.0471C61.4346 21.589 61.5765 22.3943 61.3997 23.5066Z" fill="#253B80"/>
<path d="M86.7619 23.4047H82.5357C82.1757 23.4047 81.8647 23.6679 81.8092 24.0253L81.6221 25.2074L81.3266 24.779C80.4117 23.4511 78.3716 23.0072 76.3353 23.0072C71.6652 23.0072 67.6765 26.5443 66.8997 31.5059C66.4958 33.9809 67.07 36.3476 68.474 37.998C69.7619 39.5156 71.6046 40.1479 73.797 40.1479C77.5599 40.1479 79.6465 37.7283 79.6465 37.7283L79.4581 38.9026C79.3871 39.3517 79.7329 39.7543 80.1833 39.7543H83.99C84.5953 39.7543 85.1063 39.3156 85.2018 38.7181L87.4858 24.2538C87.5581 23.8086 87.2135 23.4047 86.7619 23.4047ZM80.8711 31.6298C80.4633 34.0442 78.5471 35.6649 76.103 35.6649C74.8758 35.6649 73.8951 35.2714 73.2654 34.5255C72.6408 33.7848 72.4034 32.7305 72.6021 31.5562C72.9828 29.1625 74.9313 27.4888 77.3379 27.4888C78.538 27.4888 79.5136 27.8876 80.1562 28.6399C80.8001 29.4 81.0556 30.4607 80.8711 31.6298Z" fill="#253B80"/>
<path d="M109.269 23.4046H105.023C104.617 23.4046 104.237 23.6059 104.007 23.9427L98.1498 32.5705L95.667 24.2795C95.5109 23.7608 95.0321 23.4046 94.4902 23.4046H90.3169C89.8098 23.4046 89.4575 23.9001 89.6188 24.3776L94.2966 38.1051L89.8988 44.3133C89.553 44.8024 89.9014 45.4747 90.4989 45.4747H94.7405C95.1431 45.4747 95.5199 45.2785 95.7483 44.9482L109.873 24.5595C110.211 24.0717 109.864 23.4046 109.269 23.4046Z" fill="#253B80"/>
<path d="M123.33 15.2415H114.503C113.901 15.2415 113.387 15.6802 113.293 16.2764L109.723 38.9065C109.653 39.353 109.998 39.7556 110.449 39.7556H114.978C115.399 39.7556 115.759 39.4485 115.825 39.0304L116.838 32.6157C116.931 32.0183 117.445 31.5795 118.048 31.5795H120.84C126.655 31.5795 130.009 28.7664 130.886 23.1918C131.283 20.7529 130.902 18.8366 129.76 17.4946C128.507 16.0209 126.283 15.2415 123.33 15.2415ZM124.348 23.5066C123.867 26.6733 121.447 26.6733 119.106 26.6733H117.776L118.711 20.7593C118.767 20.4019 119.074 20.1386 119.437 20.1386H120.047C121.639 20.1386 123.144 20.1386 123.921 21.0471C124.384 21.5891 124.525 22.3943 124.348 23.5066Z" fill="#179BD7"/>
<path d="M149.709 23.4047H145.485C145.122 23.4047 144.814 23.6679 144.76 24.0254L144.573 25.2074L144.276 24.779C143.361 23.4511 141.322 23.0072 139.286 23.0072C134.616 23.0072 130.628 26.5443 129.852 31.5059C129.449 33.981 130.021 36.3476 131.425 37.9981C132.715 39.5156 134.555 40.1479 136.748 40.1479C140.51 40.1479 142.597 37.7284 142.597 37.7284L142.409 38.9026C142.338 39.3517 142.684 39.7543 143.136 39.7543H146.942C147.545 39.7543 148.058 39.3156 148.152 38.7181L150.438 24.2538C150.507 23.8086 150.162 23.4047 149.709 23.4047ZM143.818 31.6298C143.413 34.0442 141.494 35.665 139.05 35.665C137.825 35.665 136.842 35.2714 136.212 34.5255C135.588 33.7848 135.353 32.7306 135.549 31.5563C135.932 29.1625 137.878 27.4889 140.285 27.4889C141.485 27.4889 142.46 27.8876 143.103 28.6399C143.749 29.4 144.005 30.4607 143.818 31.6298Z" fill="#179BD7"/>
<path d="M154.691 15.8621L151.069 38.9064C150.998 39.3529 151.343 39.7555 151.794 39.7555H155.435C156.041 39.7555 156.554 39.3168 156.647 38.7193L160.219 16.0905C160.29 15.644 159.944 15.2401 159.494 15.2401H155.416C155.056 15.2414 154.746 15.5046 154.691 15.8621Z" fill="#179BD7"/>
<path d="M10.1261 44.1533L10.801 39.8665L9.29769 39.8317H2.11908L7.10785 8.19959C7.12333 8.1041 7.17366 8.01506 7.24721 7.95183C7.32077 7.8886 7.41497 7.85376 7.51304 7.85376H19.6172C23.6356 7.85376 26.4087 8.68995 27.8565 10.3404C28.5353 11.1147 28.9676 11.9238 29.1766 12.8141C29.396 13.7484 29.3999 14.8646 29.1857 16.226L29.1702 16.3254V17.1977L29.8489 17.5822C30.4206 17.8855 30.8748 18.2326 31.2232 18.6301C31.8039 19.2921 32.1794 20.1334 32.3382 21.1309C32.5021 22.1568 32.4479 23.3775 32.1794 24.7596C31.8697 26.3494 31.3691 27.734 30.6929 28.867C30.0709 29.9109 29.2786 30.7768 28.3379 31.4478C27.4397 32.0853 26.3725 32.5692 25.166 32.8789C23.9969 33.1834 22.6639 33.337 21.2018 33.337H20.2598C19.5862 33.337 18.932 33.5796 18.4184 34.0145C17.9035 34.4584 17.5628 35.0649 17.4583 35.7282L17.3873 36.114L16.195 43.6694L16.1408 43.9469C16.1266 44.0346 16.1021 44.0785 16.066 44.1082C16.0337 44.1353 15.9872 44.1533 15.9421 44.1533H10.1261Z" fill="#253B80"/>
<path d="M30.4917 16.4259C30.4555 16.6569 30.4142 16.893 30.3678 17.1356C28.7715 25.3311 23.3105 28.1623 16.3357 28.1623H12.7845C11.9315 28.1623 11.2128 28.7817 11.0799 29.623L9.26166 41.1543L8.74678 44.4229C8.66032 44.9752 9.08616 45.4733 9.64362 45.4733H15.9422C16.688 45.4733 17.3216 44.9313 17.4391 44.1958L17.501 43.8758L18.6869 36.35L18.763 35.9371C18.8792 35.199 19.5141 34.657 20.2599 34.657H21.2019C27.3043 34.657 32.0815 32.1794 33.4777 25.0098C34.061 22.0147 33.759 19.5139 32.2157 17.755C31.7485 17.2247 31.1691 16.7846 30.4917 16.4259Z" fill="#179BD7"/>
<path d="M28.8217 15.7602C28.5778 15.6892 28.3262 15.6247 28.0681 15.5666C27.8087 15.5099 27.5429 15.4595 27.2693 15.4157C26.3118 15.2608 25.2627 15.1873 24.1388 15.1873H14.6516C14.418 15.1873 14.1961 15.2402 13.9974 15.3357C13.5599 15.546 13.2347 15.9602 13.156 16.4674L11.1378 29.2503L11.0797 29.6232C11.2126 28.7818 11.9314 28.1624 12.7844 28.1624H16.3356C23.3103 28.1624 28.7714 25.33 30.3676 17.1358C30.4154 16.8932 30.4554 16.657 30.4915 16.4261C30.0876 16.2119 29.6502 16.0286 29.1792 15.8725C29.063 15.8338 28.943 15.7963 28.8217 15.7602Z" fill="#222D65"/>
<path d="M13.1561 16.4673C13.2348 15.9602 13.56 15.5459 13.9975 15.3369C14.1975 15.2414 14.4181 15.1885 14.6517 15.1885H24.1389C25.2628 15.1885 26.3119 15.2621 27.2694 15.4169C27.543 15.4608 27.8088 15.5111 28.0682 15.5679C28.3263 15.626 28.5779 15.6905 28.8218 15.7614C28.9431 15.7976 29.0631 15.835 29.1806 15.8724C29.6516 16.0286 30.089 16.2131 30.4929 16.426C30.9678 13.3974 30.489 11.3353 28.8515 9.46806C27.0462 7.41242 23.7879 6.53235 19.6185 6.53235H7.51438C6.6627 6.53235 5.93619 7.15175 5.80457 7.9944L0.76289 39.9517C0.663527 40.584 1.15131 41.1544 1.78877 41.1544H9.26161L11.1379 29.2502L13.1561 16.4673Z" fill="#253B80"/>
</g>
<defs>
<clipPath id="clip0_202_10718">
<rect width="160.25" height="53.7902" fill="white" transform="translate(0.75 0.929199)"/>
</clipPath>
</defs>
</svg>
