<svg width="161" height="54" viewBox="0 0 161 54" fill="none" xmlns="http://www.w3.org/2000/svg">
<g clip-path="url(#clip0_202_10711)">
<path fill-rule="evenodd" clip-rule="evenodd" d="M0.0500488 43.0203C0.0500488 45.0737 1.38257 46.4054 3.4367 46.4054L13.3317 46.4056C19.2346 46.4056 24.0633 44.4091 27.3462 40.9142H0.0500488V43.0203ZM13.3317 8.8393L3.4367 8.83911C1.38257 8.83911 0.0500488 10.171 0.0500488 12.2244V14.3306H27.3462C24.0633 10.8356 19.2346 8.8393 13.3317 8.8393ZM21.9671 32.9751C21.9671 34.6363 23.0497 35.714 24.7187 35.714H30.6479C31.3201 34.0468 31.7717 32.214 31.9816 30.2361H24.7187C23.0497 30.2361 21.9671 31.3137 21.9671 32.9751ZM13.7487 22.2831C13.7487 23.9445 14.8313 25.0221 16.5004 25.0221H31.9816C31.7717 23.0442 31.3201 21.2114 30.6479 19.5442H16.5004C14.8313 19.5442 13.7487 20.6218 13.7487 22.2831ZM16.4985 32.9751C16.4985 31.3137 15.4159 30.2361 13.7468 30.2361H0.0500488V35.714H13.7468C15.4159 35.714 16.4985 34.6365 16.4985 32.9751ZM8.28009 22.2831C8.28009 20.6218 7.19749 19.5442 5.52841 19.5442H0.0500488V25.0221H5.52841C7.19749 25.0221 8.28009 23.9445 8.28009 22.2831Z" fill="#0062FF"/>
<path fill-rule="evenodd" clip-rule="evenodd" d="M69.6837 27.057C70.1246 24.9133 71.5489 23.8233 73.4209 23.8233C75.2768 23.8233 76.6339 24.9621 77.0668 27.057H69.6837ZM73.5227 20.1094C68.7561 20.1094 65.7914 23.9258 65.7914 28.5938C65.7914 33.4285 68.9595 37.0143 73.6681 37.0143C76.9155 37.0143 78.8853 35.5094 80.1044 33.6144L77.073 31.6737C76.3109 32.717 75.0914 33.2683 73.7843 33.2683C71.6461 33.2683 70.2143 32.265 69.7263 30.2587H77.7274C77.7266 30.2613 77.7261 30.2639 77.7254 30.2667L80.6422 30.2838C80.7528 29.7559 80.818 29.2104 80.818 28.5938C80.818 24.5277 78.3184 20.1094 73.5227 20.1094Z" fill="#0062FF"/>
<path fill-rule="evenodd" clip-rule="evenodd" d="M53.5821 33.2575C50.6493 33.2575 48.8863 31.155 48.8863 28.5616C48.8863 25.9682 50.6831 23.8659 53.5821 23.8659C56.4811 23.8659 58.2779 25.9682 58.2779 28.5616C58.2779 31.155 56.5149 33.2575 53.5821 33.2575ZM57.9583 22.5912C56.7873 21.1847 55.1246 20.3225 53.0607 20.3225C48.4474 20.3225 45.1296 24.0592 45.1296 28.6683C45.1296 33.2776 48.4159 37.0141 53.0607 37.0141C55.1246 37.0141 56.7873 36.1519 57.9583 34.7454V36.6031H62.0346V14.4742H57.9583V22.5912Z" fill="#0062FF"/>
<path fill-rule="evenodd" clip-rule="evenodd" d="M93.2832 28.2845C94.3898 29.0576 95.0912 30.2168 95.0912 31.7465C95.0912 34.838 93.0074 36.9829 89.1114 36.9829C85.445 36.9829 83.479 35.1043 82.6962 33.2069L86.0614 31.2418C86.0614 31.2418 86.5144 33.2922 89.0511 33.2922C90.6214 33.2922 91.1048 32.5981 91.1048 31.9852C91.1048 31.7013 91.0141 31.1787 89.8967 30.737C87.6524 29.8501 83.3131 29.4522 83.3131 25.406C83.3131 22.094 85.9092 20.3276 89.1114 20.3276C92.1058 20.3276 94.0293 22.1907 94.7595 23.6404L91.4671 25.5638C91.4671 25.5638 90.8329 23.955 89.1417 23.955C87.4506 23.955 87.2995 24.933 87.2995 25.2168C87.2995 26.0449 88.1437 26.3848 89.9571 26.9203C91.0308 27.2373 92.1337 27.5252 93.2866 28.2816C93.2855 28.2826 93.2843 28.2835 93.2832 28.2845ZM159.707 24.6806H156.295V31.2417C156.295 33.2923 158.288 32.8505 159.707 32.8505V36.5412C159.707 36.5412 158.96 36.6674 157.654 36.6674C154.755 36.6674 152.399 35.7842 152.399 31.2417V24.6806H149.772V20.769H152.399V16.3528H156.295V20.769H159.707V24.6806ZM104.776 33.0083C106.393 33.0083 107.636 32.2028 108.264 30.8814L111.641 32.9039C110.318 35.3279 107.853 37.0143 104.776 37.0143C100.111 37.0143 96.8488 33.2859 96.8488 28.6868C96.8488 24.0874 100.141 20.359 104.776 20.359C107.807 20.359 110.264 22.018 111.601 24.4097L108.232 26.4784C107.591 25.1743 106.358 24.3651 104.776 24.3651C102.419 24.3651 100.745 26.2999 100.745 28.6868C100.745 31.0734 102.403 33.0083 104.776 33.0083Z" fill="#0062FF"/>
<path fill-rule="evenodd" clip-rule="evenodd" d="M140.59 32.965C138.052 32.965 136.526 30.9865 136.526 28.546C136.526 26.1055 138.081 24.1271 140.59 24.1271C143.098 24.1271 144.653 26.1055 144.653 28.546C144.653 30.9865 143.127 32.965 140.59 32.965ZM141.074 20.2721C145.357 20.2721 148.438 23.9766 148.438 28.546C148.438 33.1156 145.386 36.8198 141.074 36.8198C139.157 36.8198 137.614 35.9651 136.526 34.5707V42.6491H132.741V20.711H136.526V22.5213C137.614 21.1269 139.157 20.2721 141.074 20.2721ZM125.466 36.4123V20.7422H129.25V36.4123H125.466ZM118.412 23.4189C119.143 21.52 120.631 20.4339 122.872 20.4291V24.942C120.244 24.6765 118.346 26.0721 118.415 29.3687C118.414 29.3663 118.413 29.3638 118.412 29.3613V36.4123H114.628V20.7424H118.412V23.4189ZM125.466 18.651V14.4742H129.375V18.651H125.466Z" fill="#0062FF"/>
</g>
<defs>
<clipPath id="clip0_202_10711">
<rect width="160.21" height="53.035" fill="white" transform="translate(0.0500488)"/>
</clipPath>
</defs>
</svg>
