<svg width="161" height="44" viewBox="0 0 161 44" fill="none" xmlns="http://www.w3.org/2000/svg">
<g clipPath="url(#clip0_202_10708)">
<path d="M67.7668 26.0575V19.6607C67.7668 19.4937 67.6548 19.3826 67.487 19.3826H65.3597V16.8794H67.487C67.6548 16.8794 67.7668 16.7681 67.7668 16.6013V12.5963H70.7896V16.6013C70.7896 16.7681 70.9017 16.8794 71.0696 16.8794H74.0365V19.3826H71.0696C70.9017 19.3826 70.7896 19.4937 70.7896 19.6607V25.3344C70.7896 28.0045 71.7413 28.2269 72.9729 28.2269C73.4207 28.2269 74.0924 28.1713 74.4843 28.1156V30.73C73.9805 30.7856 73.1409 30.8969 72.1892 30.8969C71.0136 30.8413 67.7668 30.8413 67.7668 26.0575ZM149.944 27.615L152.407 26.3356C152.967 27.615 154.031 28.4494 155.262 28.4494C156.214 28.4494 157.277 28.06 157.277 26.8919C157.277 26.1131 156.774 25.6681 155.598 25.2788L153.919 24.7226C151.568 23.9994 150.392 22.6644 150.392 20.7731C150.392 18.3813 152.407 16.6013 155.15 16.6013C157.333 16.6013 159.181 17.7694 160.076 19.605L157.613 20.94C157.053 19.7718 156.158 19.1044 155.094 19.1044C154.031 19.1044 153.303 19.6607 153.303 20.495C153.303 21.2181 153.863 21.7744 154.982 22.1081L156.662 22.6644C159.125 23.4431 160.3 24.7781 160.3 26.6137C160.3 29.5063 157.781 31.0082 155.262 31.0082C152.743 30.9526 150.728 29.6732 149.944 27.615ZM140.652 25.1118C140.596 25.1675 140.54 25.2232 140.54 25.2788V30.6188H137.461V10.8718H140.54V21.6631C140.54 21.7744 140.596 21.8856 140.707 21.8856C140.82 21.9413 140.931 21.8856 140.987 21.83L145.97 16.8237H149.72L143.898 22.6644C143.786 22.7756 143.786 22.8869 143.898 22.9981L150.224 30.6188H146.473L141.603 24.6113C141.547 24.5556 141.491 24.5 141.435 24.5C141.379 24.5 141.323 24.5 141.267 24.5556L140.652 25.1118ZM135.949 18.715L133.99 20.5507C132.871 19.7163 131.751 19.3269 130.519 19.3269C127.944 19.3269 126.041 21.2181 126.041 23.7769C126.041 26.3356 127.944 28.2269 130.519 28.2269C131.639 28.2269 132.814 27.8375 134.046 27.0032L135.781 28.8388C133.262 30.6745 131.919 31.0082 130.184 31.0082C128.112 31.0082 126.265 30.285 124.921 28.95C123.634 27.6707 122.906 25.7794 122.906 23.7769C122.906 19.605 125.985 16.5456 130.239 16.5456C131.639 16.5456 133.71 16.7681 135.949 18.715ZM121.507 12.7631C121.507 13.7644 120.667 14.5988 119.659 14.5988C118.652 14.5988 117.812 13.7644 117.812 12.7631C117.812 11.7618 118.652 10.9275 119.659 10.9275C120.667 10.9275 121.507 11.7618 121.507 12.7631ZM121.227 30.6188H118.148V16.8794H121.227V30.6188ZM111.431 24.6113V30.6745H108.352V16.935H111.374V18.6037C111.374 18.715 111.431 18.8263 111.542 18.8818C111.654 18.9375 111.766 18.8818 111.822 18.7707C112.606 17.4913 114.061 16.6569 115.629 16.6569C115.853 16.6569 116.021 16.6569 116.133 16.7125V19.8275C115.965 19.7718 115.685 19.7718 115.405 19.7718C112.942 19.7163 111.431 21.6075 111.431 24.6113ZM94.9166 23.7769C94.9166 21.2737 96.82 19.3269 99.283 19.3269C101.746 19.3269 103.649 21.2737 103.649 23.7769C103.649 26.28 101.746 28.2269 99.283 28.2269C96.82 28.2269 94.9166 26.28 94.9166 23.7769ZM95.1966 29.0056C95.2526 29.0056 95.2526 29.0056 95.3085 29.0056C95.3644 29.0056 95.4765 29.0613 95.5324 29.1169C96.596 30.3407 98.1635 31.0082 99.9549 31.0082C103.761 31.0082 106.672 27.8375 106.672 23.7769C106.672 21.7744 106.001 19.9944 104.713 18.6037C103.482 17.2688 101.746 16.5456 99.8988 16.5456C98.1635 16.5456 96.54 17.2688 95.4765 18.5481C95.4205 18.6037 95.3085 18.6594 95.1966 18.6037C95.0846 18.5481 95.0287 18.4926 95.0287 18.3813V10.9275H91.9498V30.6745H95.0287V29.2837C95.0287 29.1169 95.0846 29.0613 95.1966 29.0056ZM82.4333 28.2269C80.0263 28.2269 78.0669 26.28 78.0669 23.7769C78.0669 21.2737 79.9703 19.3269 82.4333 19.3269C84.8964 19.3269 86.7997 21.2737 86.7997 23.7769C86.7997 26.28 84.8405 28.2269 82.4333 28.2269ZM89.6546 30.6188V16.8794H86.6318V18.27C86.6318 18.3813 86.5758 18.4926 86.4639 18.4926C86.3519 18.5481 86.24 18.4926 86.1839 18.4369C85.1764 17.2131 83.6089 16.5456 81.7616 16.5456C77.955 16.5456 75.0441 19.7163 75.0441 23.7769C75.0441 27.8375 78.011 31.0082 81.7616 31.0082C83.4969 31.0082 85.1203 30.285 86.1839 29.0056C86.24 28.8945 86.3519 28.8945 86.4639 28.95C86.5758 29.0056 86.6318 29.0613 86.6318 29.1726V30.6745H89.6546V30.6188ZM56.5151 28.2269C54.1079 28.2269 52.1487 26.28 52.1487 23.7769C52.1487 21.2737 54.052 19.3269 56.5151 19.3269C58.9221 19.3269 60.8814 21.2737 60.8814 23.7769C60.8814 26.28 58.9221 28.2269 56.5151 28.2269ZM63.7364 30.6188V16.8794H60.7135V18.27C60.7135 18.3813 60.6575 18.4926 60.5455 18.4926C60.4336 18.5481 60.3216 18.4926 60.2657 18.4369C59.258 17.2131 57.6905 16.5456 55.8433 16.5456C52.0367 16.5456 49.1258 19.7163 49.1258 23.7769C49.1258 27.8375 52.0928 31.0082 55.8433 31.0082C57.5787 31.0082 59.2021 30.285 60.2657 29.0056C60.3216 28.8945 60.4336 28.8945 60.5455 28.95C60.6575 29.0056 60.7135 29.0613 60.7135 29.1726V30.6745H63.7364V30.6188ZM40.1692 28.2269C37.7061 28.2269 35.8028 26.28 35.8028 23.7769C35.8028 21.2737 37.7061 19.3269 40.1692 19.3269C42.5762 19.3269 44.5355 21.2737 44.5355 23.7769C44.5355 26.28 42.5762 28.2269 40.1692 28.2269ZM47.3905 30.6188V10.9275H44.3116V18.3256C44.3116 18.4369 44.2556 18.5481 44.1437 18.5481C44.0317 18.6037 43.9198 18.5481 43.8638 18.4926C42.8002 17.2688 41.2328 16.6013 39.4414 16.6013C35.6349 16.6013 32.7239 19.7718 32.7239 23.8326C32.7239 25.835 33.3957 27.615 34.6832 29.0056C35.9147 30.3407 37.6501 31.0637 39.4974 31.0637C41.2328 31.0637 42.8562 30.3407 43.9198 29.0613C43.9757 29.0056 44.0877 28.95 44.1996 29.0056C44.3116 29.0613 44.3676 29.1169 44.3676 29.2282V30.6745H47.3905V30.6188Z" fill="black"/>
<path d="M24.9309 18.6872L13.4362 25.2066L1.2086 18.2603L0.630005 18.5707V23.6156L13.4362 30.9112L24.9309 24.3917V27.0693L13.4362 33.5888L1.2086 26.6424L0.630005 26.9529V27.8067L13.4362 35.1022L26.281 27.8067V22.7618L25.7024 22.4513L13.4362 29.3977L1.98002 22.8782V20.2394L13.4362 26.7201L26.281 19.4244V14.4572L25.6252 14.108L13.4362 21.0155L2.59716 14.8453L13.4362 8.71389L22.3851 13.7587L23.1951 13.3318V12.7109L13.4362 7.20044L0.630005 14.4572V15.2334L13.4362 22.5289L24.9309 16.0095V18.6872Z" fill="#FF3621"/>
</g>
<defs>
<clipPath id="clip0_202_10708">
<rect width="160.21" height="43.2027" fill="white" transform="translate(0.630005)"/>
</clipPath>
</defs>
</svg>
