<svg width="161" height="60" viewBox="0 0 161 60" fill="none" xmlns="http://www.w3.org/2000/svg">
<g clip-path="url(#clip0_202_10717)">
<path d="M34.1346 9.42725H7.49067C3.79705 9.42725 0.803528 12.4208 0.803528 16.1144V42.7583C0.803528 46.452 3.79705 49.4455 7.49067 49.4455H34.1346C37.8283 49.4455 40.8218 46.452 40.8218 42.7583V16.1144C40.8218 12.4208 37.8283 9.42725 34.1346 9.42725ZM33.5472 40.0585C33.5472 41.2254 32.6017 42.1709 31.4348 42.1709H10.1905C9.02364 42.1709 8.07811 41.2254 8.07811 40.0585V18.8142C8.07811 17.6474 9.02364 16.7018 10.1905 16.7018H31.4348C32.6017 16.7018 33.5472 17.6474 33.5472 18.8142V40.0585ZM16.5678 34.8682C15.8959 34.8682 15.3567 34.325 15.3567 33.653V25.1714C15.3567 24.4995 15.8959 23.9523 16.5678 23.9523H25.0615C25.7294 23.9523 26.2726 24.4954 26.2726 25.1714V33.649C26.2726 34.321 25.7294 34.8641 25.0615 34.8641H16.5678V34.8682ZM51.4319 34.2888H55.8015C56.0187 36.7633 57.6965 38.6946 61.0804 38.6946C64.102 38.6946 65.9609 37.2018 65.9609 34.9446C65.9609 32.8322 64.5044 31.8867 61.881 31.2671L58.4932 30.5388C54.8157 29.7381 52.0475 27.3723 52.0475 23.5097C52.0475 19.2487 55.8336 16.3357 60.7504 16.3357C65.9569 16.3357 69.3085 19.0677 69.5982 23.1073H65.3735C64.8705 21.2163 63.3014 20.0897 60.7544 20.0897C58.0587 20.0897 56.2038 21.5462 56.2038 23.4051C56.2038 25.2639 57.8052 26.3905 60.5734 27.0102L63.925 27.7384C67.6025 28.5391 70.1132 30.7601 70.1132 34.6549C70.1132 39.6079 66.3995 42.5572 61.0844 42.5572C55.1094 42.5531 51.798 39.3142 51.4319 34.2888ZM85.7447 49.4455V42.1991L86.0304 39.0205H85.7447C84.7429 41.3058 82.6385 42.5572 79.7818 42.5572C75.1749 42.5572 71.7468 38.8072 71.7468 33.0576C71.7468 27.3079 75.1749 23.558 79.7818 23.558C82.6023 23.558 84.602 24.8777 85.7447 26.9498H86.0304V23.912H89.8166V49.4455H85.7447ZM85.8856 33.0535C85.8856 29.376 83.6364 27.2315 80.8843 27.2315C78.1322 27.2315 75.883 29.376 75.883 33.0535C75.883 36.7311 78.1322 38.8756 80.8843 38.8756C83.6364 38.8756 85.8856 36.7351 85.8856 33.0535ZM92.8382 34.9486V23.912H96.9101V34.5905C96.9101 37.4835 98.3022 38.8756 100.624 38.8756C103.481 38.8756 105.339 36.8397 105.339 33.6611V23.912H109.411V42.195H105.625V38.4089H105.339C104.446 40.8391 102.483 42.5531 99.4489 42.5531C95.0874 42.5531 92.8382 39.7688 92.8382 34.9486ZM111.89 37.0892C111.89 33.6611 114.284 31.6614 118.533 31.4119L123.566 31.09V29.6617C123.566 27.9477 122.315 26.9136 120.102 26.9136C118.066 26.9136 116.851 27.9477 116.529 29.4122H112.457C112.888 25.6985 115.958 23.5539 120.098 23.5539C124.777 23.5539 127.634 25.5536 127.634 29.4122V42.195H123.848V38.8032H123.562C122.705 41.0524 120.919 42.5531 117.491 42.5531C114.211 42.5531 111.89 40.3402 111.89 37.0892ZM123.57 34.84V33.8743L119.462 34.16C117.249 34.3008 116.247 35.1257 116.247 36.7673C116.247 38.1594 117.39 39.1613 118.995 39.1613C121.892 39.1613 123.57 37.3064 123.57 34.84ZM130.672 42.1991V23.912H134.458V27.4125H134.744C135.279 25.0185 137.101 23.912 139.813 23.912H141.672V27.5896H139.35C136.707 27.5896 134.744 29.3036 134.744 32.5546V42.195H130.672V42.1991ZM160.301 33.8059H146.408C146.621 37.1616 148.979 39.0567 151.586 39.0567C153.799 39.0567 155.191 38.1634 155.98 36.6627H160.015C158.909 40.3764 155.658 42.5531 151.55 42.5531C146.158 42.5531 142.372 38.5175 142.372 33.0535C142.372 27.5896 146.263 23.5539 151.586 23.5539C156.941 23.5539 160.442 27.2315 160.442 31.8022C160.446 32.6995 160.374 33.1622 160.301 33.8059ZM156.41 30.9854C156.27 28.4506 154.161 26.7366 151.59 26.7366C149.16 26.7366 147.128 28.2736 146.625 30.9854H156.41Z" fill="#1A1A1A"/>
</g>
<defs>
<clipPath id="clip0_202_10717">
<rect width="160.25" height="58.2727" fill="white" transform="translate(0.5 0.929199)"/>
</clipPath>
</defs>
</svg>
