<svg width="161" height="71" viewBox="0 0 161 71" fill="none" xmlns="http://www.w3.org/2000/svg">
<g clip-path="url(#clip0_202_10715)">
<path fill-rule="evenodd" clip-rule="evenodd" d="M99.2188 56.0069C89.9483 62.84 76.5112 66.4858 64.9421 66.4858C48.7203 66.4858 34.1166 60.4859 23.0683 50.5071C22.2003 49.7224 22.978 48.653 24.0196 49.264C35.9429 56.2013 50.6855 60.3748 65.9143 60.3748C76.1848 60.3748 87.4831 58.2499 97.8716 53.8403C99.441 53.1736 100.753 54.868 99.2188 56.0069Z" fill="#FF9900"/>
<path fill-rule="evenodd" clip-rule="evenodd" d="M103.073 51.5974C101.892 50.0835 95.2399 50.8821 92.2539 51.2363C91.3442 51.3474 91.2053 50.5557 92.0247 49.9863C97.3232 46.2572 106.017 47.3336 107.031 48.5836C108.045 49.8405 106.767 58.5555 101.788 62.7151C101.024 63.354 100.295 63.0137 100.636 62.1665C101.754 59.3749 104.26 53.1182 103.073 51.5974Z" fill="#FF9900"/>
<path fill-rule="evenodd" clip-rule="evenodd" d="M92.4627 23.6609V20.036C92.4627 19.4874 92.8793 19.1193 93.3793 19.1193H109.608C110.129 19.1193 110.545 19.4943 110.545 20.036V23.14C110.539 23.6609 110.101 24.3414 109.323 25.4177L100.914 37.4243C104.039 37.348 107.337 37.8132 110.17 39.4104C110.809 39.7715 110.983 40.2992 111.032 40.8201V44.688C111.032 45.2158 110.448 45.8338 109.837 45.5144C104.844 42.8964 98.2125 42.6117 92.6918 45.5422C92.1293 45.8477 91.5391 45.2366 91.5391 44.7088V41.0353C91.5391 40.4451 91.546 39.4382 92.1363 38.5424L101.879 24.5706H93.4001C92.8793 24.5706 92.4627 24.2025 92.4627 23.6609Z" fill="black"/>
<path fill-rule="evenodd" clip-rule="evenodd" d="M33.263 46.2783H28.3256C27.8534 46.2436 27.4784 45.8894 27.4437 45.438V20.0985C27.4437 19.5916 27.8673 19.1888 28.3951 19.1888H32.9991C33.4783 19.2096 33.8602 19.5777 33.8949 20.036V23.3484H33.9852C35.1865 20.1471 37.4434 18.6541 40.485 18.6541C43.5752 18.6541 45.5057 20.1471 46.8945 23.3484C48.0889 20.1471 50.8041 18.6541 53.7138 18.6541C55.7831 18.6541 58.047 19.5083 59.4289 21.4249C60.9913 23.5567 60.6719 26.6539 60.6719 29.3691L60.6649 45.3616C60.6649 45.8686 60.2413 46.2783 59.7136 46.2783H54.7832C54.2901 46.2436 53.8943 45.8477 53.8943 45.3616V31.9315C53.8943 30.8621 53.9915 28.1955 53.7554 27.1816C53.3874 25.4803 52.2832 25.0011 50.8527 25.0011C49.6583 25.0011 48.4084 25.7997 47.9014 27.0775C47.3945 28.3552 47.4431 30.494 47.4431 31.9315V45.3616C47.4431 45.8686 47.0195 46.2783 46.4917 46.2783H41.5613C41.0614 46.2436 40.6725 45.8477 40.6725 45.3616L40.6655 31.9315C40.6655 29.1052 41.1308 24.9456 37.624 24.9456C34.0755 24.9456 34.2143 29.001 34.2143 31.9315V45.3616C34.2143 45.8686 33.7907 46.2783 33.263 46.2783Z" fill="black"/>
<path fill-rule="evenodd" clip-rule="evenodd" d="M124.517 18.6541C131.843 18.6541 135.808 24.9456 135.808 32.9453C135.808 40.6743 131.427 46.806 124.517 46.806C117.323 46.806 113.406 40.5146 113.406 32.6745C113.406 24.7859 117.371 18.6541 124.517 18.6541ZM124.559 23.8276C120.92 23.8276 120.691 28.7857 120.691 31.8759C120.691 34.9731 120.642 41.584 124.517 41.584C128.343 41.584 128.524 36.2508 128.524 33.0009C128.524 30.8621 128.434 28.3066 127.788 26.2789C127.232 24.515 126.128 23.8276 124.559 23.8276Z" fill="black"/>
<path fill-rule="evenodd" clip-rule="evenodd" d="M145.308 46.2783H140.392C139.899 46.2436 139.503 45.8477 139.503 45.3616L139.496 20.0152C139.538 19.5499 139.947 19.1888 140.447 19.1888H145.024C145.454 19.2096 145.808 19.5013 145.906 19.8971V23.772H145.996C147.378 20.3068 149.315 18.6541 152.725 18.6541C154.94 18.6541 157.1 19.4527 158.488 21.6401C159.78 23.6678 159.78 27.0775 159.78 29.5288V45.4797C159.725 45.9241 159.315 46.2783 158.829 46.2783H153.877C153.426 46.2436 153.051 45.9102 153.003 45.4797V31.7162C153.003 28.9455 153.322 24.89 149.912 24.89C148.711 24.89 147.607 25.6956 147.058 26.9177C146.364 28.4663 146.274 30.0079 146.274 31.7162V45.3616C146.267 45.8686 145.836 46.2783 145.308 46.2783Z" fill="black"/>
<path fill-rule="evenodd" clip-rule="evenodd" d="M79.5256 34.1744C79.5256 36.098 79.5742 37.7021 78.602 39.4104C77.8173 40.7992 76.5673 41.6534 75.1854 41.6534C73.2896 41.6534 72.1786 40.209 72.1786 38.0771C72.1786 33.8689 75.9493 33.105 79.5256 33.105V34.1744ZM84.5046 46.2088C84.1782 46.5005 83.706 46.5213 83.338 46.3269C81.6991 44.9658 81.4005 44.3339 80.5047 43.0353C77.7965 45.7991 75.8729 46.6255 72.3661 46.6255C68.2065 46.6255 64.9774 44.063 64.9774 38.9312C64.9774 34.9244 67.144 32.1953 70.2411 30.862C72.9216 29.6815 76.6645 29.4732 79.5256 29.1468V28.5079C79.5256 27.3344 79.6158 25.9455 78.9214 24.9317C78.3242 24.022 77.1715 23.647 76.1507 23.647C74.2688 23.647 72.5952 24.6122 72.1855 26.6122C72.1022 27.0566 71.7758 27.4941 71.3244 27.5149L66.5398 27.001C66.1371 26.9108 65.6857 26.5844 65.8038 25.9663C66.9009 20.161 72.1508 18.411 76.8451 18.411C79.2478 18.411 82.3866 19.0499 84.2824 20.8693C86.6851 23.1123 86.4559 26.1052 86.4559 29.3621V37.0563C86.4559 39.3687 87.4142 40.3826 88.317 41.6326C88.6295 42.077 88.6989 42.6117 88.2961 42.945C87.2892 43.7853 85.4976 45.3477 84.5115 46.2227L84.5046 46.2088Z" fill="black"/>
<path fill-rule="evenodd" clip-rule="evenodd" d="M14.7982 34.1744C14.7982 36.098 14.8468 37.7021 13.8746 39.4104C13.0899 40.7992 11.8469 41.6534 10.458 41.6534C8.56225 41.6534 7.45812 40.209 7.45812 38.0771C7.45812 33.8689 11.2288 33.105 14.7982 33.105V34.1744ZM19.7772 46.2088C19.4508 46.5004 18.9786 46.5213 18.6106 46.3268C16.9717 44.9658 16.6801 44.3338 15.7773 43.0353C13.0691 45.7991 11.1525 46.6254 7.63866 46.6254C3.48601 46.6254 0.25 44.063 0.25 38.9312C0.25 34.9244 2.42354 32.1953 5.51373 30.862C8.1942 29.6815 11.9371 29.4732 14.7982 29.1468V28.5079C14.7982 27.3344 14.8884 25.9455 14.201 24.9317C13.5968 24.022 12.4441 23.647 11.4302 23.647C9.54833 23.647 7.86782 24.6122 7.45812 26.6122C7.37478 27.0566 7.0484 27.4941 6.60398 27.5149L1.81245 27.001C1.40969 26.9108 0.965255 26.5844 1.07636 25.9663C2.1805 20.161 7.42339 18.411 12.1177 18.411C14.5204 18.411 17.6592 19.0499 19.555 20.8693C21.9577 23.1123 21.7285 26.1052 21.7285 29.3621V37.0563C21.7285 39.3687 22.6868 40.3826 23.5896 41.6325C23.909 42.077 23.9784 42.6117 23.5757 42.945C22.5688 43.7852 20.7772 45.3477 19.7911 46.2227L19.7772 46.2088Z" fill="black"/>
</g>
<defs>
<clipPath id="clip0_202_10715">
<rect width="160.25" height="69.9273" fill="white" transform="translate(0.25 0.929199)"/>
</clipPath>
</defs>
</svg>
