<svg width="162" height="54" viewBox="0 0 162 54" fill="none" xmlns="http://www.w3.org/2000/svg">
<g clipPath="url(#clip0_202_10710)">
<path d="M12.807 14.0771C19.4021 14.0771 24.7739 19.4489 24.7739 26.0972C24.7739 32.7454 19.4021 38.1172 12.807 38.1172C6.21189 38.1172 0.840088 32.7986 0.840088 26.0972C0.840088 19.3957 6.21189 14.0771 12.807 14.0771ZM106.627 13.8112V34.8729C106.627 36.4685 107.266 36.8939 108.489 37.2131L108.542 37.479H101.787V34.8729C100.99 36.7876 99.3408 37.9577 97.2134 37.9577C93.5967 37.9577 91.2033 34.6601 91.2033 29.767C91.2033 27.0013 92.0011 24.6611 93.4903 22.906C94.9264 21.204 96.8943 20.2999 99.0749 20.2999C100.139 20.2999 101.043 20.5126 101.787 20.9913V18.1192C101.787 17.481 101.628 17.0555 101.309 16.7364C100.883 16.3641 100.192 16.2045 99.1281 16.3109H99.0749V16.045L106.627 13.8112ZM132.263 20.3531V34.8729C132.263 36.4685 132.901 36.8939 134.125 37.2131V37.479H127.37V34.8197C126.572 36.7344 124.817 37.9577 122.849 37.9577C120.509 37.9577 119.02 36.8939 118.435 34.8197L118.328 34.2878C118.222 33.756 118.169 33.2241 118.169 32.6922V24.9271C118.169 23.2251 117.796 22.6932 116.307 22.5869H116.254V22.3209L123.009 20.3531V32.5859C123.009 34.3942 123.806 35.4047 125.296 35.4047C126.2 35.4047 126.944 34.9261 127.37 34.1283V24.9271C127.37 23.1719 127.051 22.6401 125.828 22.5337H125.774V22.2678L132.263 20.3531ZM83.4914 20.2999C85.2997 20.2999 87.0548 20.9381 88.2249 22.055C89.5546 23.3315 90.246 25.193 90.2992 27.6396V27.6927H80.1406C79.9279 31.203 82.1085 34.0751 84.9806 34.1814C87.0548 34.341 88.8632 33.0645 89.8737 30.9903L90.1396 31.0967C89.5546 34.9792 87.2676 37.9045 83.2786 37.9045C78.7578 37.9045 76.2049 34.1283 76.0985 29.3947V28.1714C76.3112 26.0972 76.9495 24.2356 78.0664 22.8528C78.7578 22.0018 79.5556 21.3636 80.5129 20.9381C81.3107 20.5126 82.4808 20.2999 83.4382 20.2999H83.4914ZM153.857 20.3531C156.729 20.3531 158.484 22.1614 158.484 25.2462V35.1388C158.484 36.3089 159.016 36.8939 160.345 37.2131H160.399V37.479H153.591V25.4057C153.591 23.491 152.899 22.5337 151.463 22.5337C150.293 22.5337 149.708 23.3847 149.389 24.1293C149.442 24.5016 149.495 24.8739 149.495 25.2462V35.2984C149.495 36.5216 149.868 36.9471 150.931 37.2131H150.985V37.479H144.655V25.4057C144.655 23.491 143.911 22.5337 142.528 22.5337C141.411 22.5337 140.826 23.3315 140.56 23.9697V35.3515C140.56 36.5748 140.932 37.0003 141.996 37.2662H142.049V37.5322H135.72V24.8739C135.72 23.1719 135.295 22.6401 133.859 22.5337H133.805V22.2678L140.56 20.4062V23.2251C141.251 21.4168 142.847 20.3531 144.868 20.3531C147.155 20.3531 148.751 21.47 149.283 23.491C149.974 21.5763 151.729 20.3531 153.857 20.3531ZM56.8451 14.8749L63.1742 29.7138L69.5034 14.8749H76.3112L76.258 15.1408L76.1807 15.158C75.0079 15.4253 74.3965 15.8639 74.3965 17.3214V35.4047C74.5029 36.5748 75.1411 36.9471 76.258 37.2131H76.3112V37.479H67.6419V37.2131H67.6951C68.812 36.9471 69.4502 36.5748 69.5566 35.4047V17.8001L61.2064 37.4258H60.7277L52.5902 18.332V34.9792C52.5902 36.4685 53.2284 36.8939 54.4517 37.1599H54.5049V37.4258H49.5054V37.1599H49.5586C50.7819 36.8939 51.4201 36.4685 51.4201 34.9792V17.3214C51.4201 15.8322 50.7819 15.4067 49.5586 15.1408H49.5054V14.8749H56.8451ZM114.871 20.3531V34.8729L114.872 34.9711C114.898 36.4861 115.535 36.9006 116.733 37.2131L116.786 37.479H110.031V24.9271C110.031 23.2251 109.659 22.6932 108.17 22.5869H108.117V22.3209L114.871 20.3531ZM31.954 14.7685C35.1983 14.7685 37.9108 19.8744 37.9108 26.0972C37.9108 32.3731 35.2515 37.4258 31.954 37.4258C28.6564 37.4258 25.9971 32.3731 25.9971 26.0972C25.9971 19.8212 28.6564 14.7685 31.954 14.7685ZM41.102 15.9386C42.3253 15.9386 43.2294 20.5126 43.2294 26.0972C43.2294 31.6817 42.2721 36.2557 41.102 36.2557C39.9436 36.2557 38.9937 31.7727 38.9748 26.2644L38.9746 26.0972C38.9746 20.5126 39.9319 15.9386 41.102 15.9386ZM99.8727 21.2572C97.7452 21.2572 96.4156 24.0761 96.4156 28.4373C96.4156 30.5116 96.7879 32.3199 97.4261 33.5432C98.0112 34.7133 98.8621 35.3515 99.8195 35.3515C100.777 35.3515 101.468 34.9261 101.787 34.1283V22.4273C101.415 21.6827 100.724 21.2572 99.8727 21.2572ZM83.4382 21.3104C81.5235 21.3104 80.4065 23.5974 80.247 26.7886V26.8418H86.0443C86.1507 24.342 85.7252 22.6932 84.9274 21.8954C84.5019 21.5231 84.0232 21.3104 83.4382 21.3104ZM112.265 13.9707C113.807 13.9707 114.978 15.1408 114.978 16.6832C114.978 18.2256 113.807 19.3957 112.265 19.3957C110.723 19.3957 109.553 18.2256 109.553 16.6832C109.553 15.1408 110.723 13.9707 112.265 13.9707Z" fill="black"/>
</g>
<defs>
<clipPath id="clip0_202_10710">
<rect width="160.21" height="53.035" fill="white" transform="translate(0.840088)"/>
</clipPath>
</defs>
</svg>
