<svg width="161" height="48" viewBox="0 0 161 48" fill="none" xmlns="http://www.w3.org/2000/svg">
<g clipPath="url(#clip0_202_10707)">
<path d="M10.2277 31.4525C9.38577 30.6068 8.71972 29.6041 8.26771 28.5019C7.8157 27.3996 7.58661 26.2194 7.59356 25.0289C7.5905 23.8384 7.82593 22.6593 8.28609 21.5604C8.74625 20.4616 9.4219 19.465 10.2735 18.6291C10.6383 18.3064 10.9331 17.9129 11.1398 17.4729C11.3466 17.0328 11.4608 16.5553 11.4757 16.0698C11.4906 15.5842 11.4057 15.1007 11.2263 14.6489C11.0469 14.1971 10.7768 13.7865 10.4324 13.4423C10.088 13.098 9.67664 12.8273 9.2235 12.6468C8.77036 12.4663 8.28496 12.3798 7.79704 12.3925C7.30912 12.4052 6.82894 12.5168 6.38589 12.7207C5.94285 12.9245 5.54627 13.2162 5.22043 13.5779C2.1599 16.6061 0.433197 20.7203 0.420119 25.0155C0.40704 29.3108 2.10866 33.4353 5.15069 36.4819C5.47547 36.8431 5.87074 37.1347 6.31243 37.3389C6.75411 37.543 7.23295 37.6556 7.71975 37.6696C8.20655 37.6836 8.69112 37.5987 9.1439 37.4202C9.59669 37.2418 10.0082 36.9734 10.3534 36.6314C10.6986 36.2895 10.9702 35.8812 11.1516 35.4314C11.3331 34.9815 11.4206 34.4997 11.4088 34.0151C11.3971 33.5305 11.2863 33.0534 11.0832 32.6128C10.8801 32.1722 10.5891 31.7775 10.2277 31.4525V31.4525Z" fill="#FFDA00"/>
<path d="M10.2737 18.6288C11.99 16.9376 14.31 15.9928 16.7251 16.0013C19.1402 16.0099 21.4533 16.9711 23.1575 18.6744C23.4811 19.0394 23.8764 19.3346 24.3189 19.542C24.7614 19.7494 25.2418 19.8645 25.7307 19.8802C26.2195 19.896 26.7064 19.812 27.1615 19.6336C27.6165 19.4551 28.0301 19.1859 28.3768 18.8425C28.7234 18.4991 28.9959 18.0887 29.1773 17.6366C29.3588 17.1846 29.4454 16.7003 29.4319 16.2137C29.4184 15.7271 29.305 15.2484 29.0988 14.807C28.8925 14.3656 28.5977 13.9708 28.2325 13.647C26.7318 12.134 24.9456 10.9311 22.9764 10.1072C21.0073 9.28332 18.894 8.85474 16.758 8.84608C14.6219 8.83742 12.5052 9.24885 10.5294 10.0567C8.55357 10.8646 6.75755 12.053 5.24451 13.5538C4.87838 13.8748 4.58193 14.2669 4.3733 14.706C4.16468 15.145 4.04827 15.6218 4.03119 16.1072C4.01411 16.5926 4.09673 17.0764 4.27399 17.5289C4.45124 17.9814 4.71941 18.3931 5.06208 18.7389C5.40474 19.0847 5.8147 19.3573 6.26686 19.5399C6.71901 19.7225 7.20386 19.8114 7.69172 19.8011C8.17959 19.7908 8.66021 19.6815 9.10417 19.4799C9.54813 19.2783 9.94609 18.9887 10.2737 18.6288V18.6288Z" fill="#67B3FF"/>
<path d="M23.1351 31.4977C22.2858 32.3374 21.2783 33.002 20.1705 33.4536C19.0627 33.9052 17.8763 34.1349 16.6792 34.1294C15.4824 34.1312 14.2973 33.8953 13.1932 33.4356C12.0892 32.9759 11.0883 32.3015 10.2493 31.4521C9.92502 31.089 9.52971 30.7956 9.08756 30.5899C8.64541 30.3841 8.16571 30.2704 7.67785 30.2556C7.18999 30.2408 6.70423 30.3252 6.2503 30.5038C5.79638 30.6823 5.38385 30.9512 5.03798 31.294C4.6921 31.6368 4.42015 32.0462 4.23879 32.4972C4.05743 32.9482 3.97046 33.4313 3.98322 33.917C3.99598 34.4026 4.10819 34.8805 4.31299 35.3215C4.51779 35.7625 4.81086 36.1572 5.17426 36.4815C6.67756 37.9943 8.46604 39.197 10.4372 40.0206C12.4084 40.8442 14.5234 41.2725 16.6612 41.2809C18.799 41.2894 20.9174 40.8779 22.8951 40.07C24.8728 39.262 26.6708 38.0736 28.1862 36.5727C28.521 36.2426 28.7872 35.8501 28.9696 35.4176C29.152 34.9851 29.247 34.5211 29.2492 34.0521C29.2514 33.583 29.1608 33.1181 28.9825 32.6839C28.8042 32.2497 28.5418 31.8547 28.2101 31.5215C27.8784 31.1883 27.4841 30.9233 27.0496 30.7418C26.615 30.5603 26.1488 30.4657 25.6775 30.4635C25.2063 30.4613 24.7392 30.5515 24.303 30.7289C23.8667 30.9064 23.4699 31.1676 23.1351 31.4977V31.4977Z" fill="#EB5A68"/>
<path d="M10.2736 18.6287C9.7709 19.1284 9.13039 19.4683 8.43333 19.6052C7.73627 19.7421 7.01405 19.6699 6.35831 19.3976C5.70256 19.1254 5.14282 18.6654 4.7501 18.0761C4.35737 17.4868 4.14936 16.7946 4.15244 16.0875C4.15552 15.3803 4.36956 14.69 4.76741 14.1041C5.16525 13.5182 5.72898 13.0631 6.38707 12.7965C7.04517 12.53 7.76798 12.4639 8.46383 12.6069C9.15967 12.7498 9.79719 13.0952 10.2955 13.5993C10.9594 14.2708 11.3296 15.1763 11.3255 16.1184C11.3214 17.0606 10.9433 17.9629 10.2736 18.6287Z" fill="#47A1FF"/>
<path d="M10.204 36.4816C9.70109 36.9811 9.06045 37.3208 8.36333 37.4574C7.66622 37.594 6.94403 37.5215 6.28839 37.249C5.63275 36.9765 5.0732 36.5163 4.68071 35.9269C4.28822 35.3374 4.08048 34.6452 4.08384 33.938C4.0872 33.2308 4.30152 32.5406 4.69959 31.9548C5.09767 31.3691 5.66157 30.9142 6.31978 30.6479C6.97798 30.3816 7.70082 30.3159 8.3966 30.4591C9.09239 30.6023 9.72977 30.9479 10.2279 31.4522C10.8915 32.124 11.2614 33.0297 11.2569 33.9718C11.2525 34.9139 10.874 35.8161 10.204 36.4816V36.4816Z" fill="#D5465F"/>
<path d="M44.1921 28.5272C45.2263 27.7497 45.3638 28.1841 46.2365 29.0527C46.6729 29.487 47.8664 30.2426 47.0853 30.8812C45.4554 32.206 43.9849 32.801 41.9047 32.801C37.1963 32.7791 33.8668 29.2808 34.1338 24.6401C34.2473 22.5617 35.0742 20.5944 36.7061 19.2458C38.1986 17.9884 40.0576 17.4411 42.0103 17.4867C42.9674 17.4839 43.9155 17.6699 44.7999 18.034C45.3989 18.2493 45.9633 18.5499 46.4756 18.9265C47.5097 19.7198 47.0275 20.1838 46.2225 20.9831C46.0392 21.1655 45.8559 21.35 45.6945 21.5324C45.2821 21.9429 45.0051 22.2404 44.4552 21.8517C43.3991 21.1199 42.0641 20.7312 40.8028 21.0584C36.738 22.0857 36.9213 29.2867 41.9067 29.3105C42.7331 29.2997 43.5342 29.0251 44.1921 28.5272V28.5272ZM157.184 32.8902C157.02 32.891 156.859 32.8596 156.708 32.7979C156.557 32.7363 156.42 32.6455 156.305 32.5308C156.189 32.4161 156.098 32.2798 156.036 32.1298C155.973 31.9798 155.942 31.819 155.942 31.6567L156.012 15.7018C156.011 15.5395 156.043 15.3786 156.105 15.2285C156.167 15.0784 156.258 14.942 156.373 14.8271C156.488 14.7122 156.625 14.6212 156.776 14.5593C156.927 14.4974 157.088 14.4657 157.251 14.4663H158.584C158.748 14.4657 158.909 14.4974 159.06 14.5595C159.211 14.6215 159.348 14.7127 159.463 14.8278C159.578 14.9429 159.67 15.0795 159.732 15.2299C159.793 15.3802 159.825 15.5413 159.824 15.7038L159.754 31.6586C159.755 31.8209 159.723 31.9816 159.661 32.1316C159.599 32.2816 159.508 32.4179 159.393 32.5326C159.277 32.6474 159.14 32.7382 158.99 32.7999C158.839 32.8616 158.678 32.893 158.515 32.8922L157.184 32.8902ZM150.21 31.0399C148.763 32.3885 147.384 33.0965 145.34 33.0965C141.207 33.0727 139.231 29.6675 139.231 25.8498L139.255 19.3588C139.254 19.1966 139.286 19.0359 139.348 18.886C139.41 18.7361 139.502 18.5999 139.617 18.4854C139.733 18.3709 139.87 18.2803 140.021 18.2188C140.171 18.1573 140.333 18.1262 140.496 18.1273H141.829C141.992 18.1265 142.153 18.1578 142.304 18.2196C142.455 18.2813 142.592 18.3721 142.707 18.4868C142.822 18.6015 142.914 18.7378 142.976 18.8878C143.038 19.0378 143.069 19.1986 143.068 19.3608L143.046 25.8518C143.046 27.9778 144.194 29.6457 146.446 29.6457C148.697 29.6457 150.074 27.7716 150.096 25.6793V23.3609C150.078 23.2709 150.071 23.179 150.074 23.0872L150.096 19.4064C150.095 19.2442 150.127 19.0834 150.189 18.9334C150.251 18.7834 150.342 18.6471 150.457 18.5324C150.573 18.4177 150.709 18.3269 150.86 18.2652C151.011 18.2035 151.172 18.1721 151.335 18.1729H152.65C152.813 18.1721 152.975 18.2035 153.126 18.2652C153.276 18.3269 153.413 18.4177 153.529 18.5324C153.644 18.6471 153.735 18.7834 153.797 18.9334C153.859 19.0834 153.891 19.2442 153.89 19.4064L153.846 31.6586C153.843 31.9828 153.711 32.2925 153.478 32.5197C153.246 32.7469 152.932 32.873 152.607 32.8704H151.481C151.161 32.8604 150.857 32.7296 150.631 32.5045C150.405 32.2793 150.273 31.9769 150.263 31.6586L150.21 31.0399ZM134.355 18.1729H136.927C137.09 18.1752 137.251 18.2096 137.401 18.2742C137.551 18.3388 137.686 18.4322 137.799 18.5491C137.912 18.666 138.001 18.804 138.06 18.9553C138.12 19.1065 138.148 19.2679 138.145 19.4302V20.2751C138.142 20.6007 138.011 20.9124 137.78 21.1431C137.549 21.3737 137.237 21.505 136.909 21.5086H134.331L134.285 31.5892C134.286 31.7515 134.254 31.9124 134.192 32.0625C134.13 32.2126 134.039 32.3491 133.924 32.4639C133.809 32.5788 133.672 32.6698 133.521 32.7317C133.37 32.7937 133.209 32.8253 133.046 32.8248H131.715C131.552 32.8253 131.39 32.7937 131.239 32.7318C131.088 32.6699 130.951 32.5789 130.836 32.464C130.72 32.3492 130.629 32.2128 130.567 32.0627C130.505 31.9125 130.473 31.7516 130.473 31.5892L130.519 17.6473C130.519 14.6071 132.265 12.2054 135.389 11.9317C135.481 11.9317 135.548 11.9099 135.64 11.9099C135.824 11.898 136.008 11.898 136.192 11.9099H137.388C137.55 11.9122 137.711 11.9466 137.861 12.0111C138.01 12.0755 138.146 12.1688 138.259 12.2854C138.372 12.4021 138.461 12.5399 138.52 12.6909C138.58 12.8419 138.608 13.0032 138.605 13.1653V13.9427C138.603 14.2694 138.472 14.5822 138.24 14.8134C138.008 15.0446 137.694 15.1756 137.366 15.1782H136.401C134.931 15.1782 134.311 16.2968 134.287 17.6691L134.355 18.1729ZM125.123 18.1273H127.943C128.269 18.1304 128.58 18.2621 128.808 18.4933C129.036 18.7246 129.163 19.0366 129.16 19.3608V20.2057C129.157 20.5298 129.025 20.8395 128.793 21.0667C128.56 21.2939 128.247 21.42 127.921 21.4174H125.1L125.078 27.5851C125.078 28.7751 125.651 29.4593 126.845 29.4593H127.419C127.745 29.4629 128.056 29.595 128.284 29.8266C128.512 30.0582 128.639 30.3704 128.636 30.6948V31.5515C128.633 31.8756 128.5 32.1849 128.268 32.412C128.036 32.6391 127.722 32.7654 127.397 32.7633H126.317C126.117 32.7672 125.918 32.7593 125.719 32.7395C122.665 32.5412 121.31 30.5699 121.31 27.597C121.334 23.5969 121.334 19.6206 121.356 15.6205C121.357 15.4598 121.39 15.301 121.454 15.1531C121.517 15.0053 121.609 14.8712 121.724 14.7587C121.839 14.6462 121.976 14.5574 122.125 14.4973C122.275 14.4373 122.435 14.4072 122.597 14.4088H123.906C124.232 14.4119 124.543 14.5436 124.771 14.7748C124.999 15.0061 125.126 15.3181 125.123 15.6423V18.1273ZM84.2762 17.9666H87.0957C87.4214 17.9698 87.7325 18.1014 87.9608 18.3327C88.189 18.564 88.3158 18.876 88.3131 19.2002V20.049C88.3094 20.373 88.177 20.6824 87.9447 20.9095C87.7125 21.1365 87.3993 21.2628 87.0737 21.2607H84.2443V27.4305C84.2443 28.6204 84.8182 29.3046 86.0117 29.3046H86.5876C86.7488 29.3061 86.9081 29.3393 87.0564 29.4021C87.2047 29.4649 87.3391 29.5562 87.452 29.6708C87.5649 29.7853 87.6539 29.9209 87.7142 30.0697C87.7744 30.2185 87.8046 30.3777 87.803 30.5381V31.383C87.7999 31.7072 87.6676 32.0168 87.4352 32.244C87.2028 32.4712 86.8894 32.5974 86.5637 32.5947H85.7148C82.3833 32.5729 80.4545 31.1549 80.4545 27.4384C80.4784 23.4383 80.4784 19.46 80.5003 15.4599C80.504 15.1355 80.6367 14.8258 80.8694 14.5987C81.1021 14.3715 81.4158 14.2455 81.7417 14.2481H83.0508C83.3765 14.2518 83.6875 14.384 83.9153 14.6156C84.1432 14.8473 84.2694 15.1595 84.2662 15.4837L84.2762 17.9666ZM67.6962 19.7039C69.0512 18.4466 70.5217 17.6473 72.4265 17.6473C76.5611 17.6691 78.6971 21.0188 78.6732 24.892L78.6513 31.383C78.6518 31.5454 78.62 31.7063 78.5578 31.8564C78.4956 32.0065 78.4042 32.143 78.2888 32.2578C78.1735 32.3726 78.0364 32.4636 77.8856 32.5255C77.7347 32.5874 77.5731 32.619 77.4099 32.6185H76.0789C75.9157 32.619 75.754 32.5874 75.6032 32.5255C75.4524 32.4636 75.3153 32.3726 75.1999 32.2578C75.0846 32.143 74.9931 32.0065 74.9309 31.8564C74.8687 31.7063 74.837 31.5454 74.8375 31.383L74.8614 24.9376C74.8614 22.8116 73.7137 21.1437 71.4621 21.1437C69.2106 21.1437 67.8337 22.996 67.8118 25.0982L67.7879 31.383C67.7847 31.7072 67.6524 32.0168 67.4201 32.244C67.1877 32.4712 66.8742 32.5974 66.5485 32.5947H65.2394C64.9137 32.5916 64.6026 32.4599 64.3743 32.2286C64.146 31.9973 64.0193 31.6853 64.022 31.3612C64.0439 27.4523 64.0439 23.5216 64.0678 19.6127V19.0871C64.0689 18.7633 64.1988 18.4531 64.4293 18.2245C64.6597 17.9958 64.9718 17.8675 65.2972 17.8675H66.423C66.7429 17.8769 67.047 18.0076 67.2733 18.2329C67.4996 18.4581 67.6309 18.7608 67.6404 19.0792L67.6962 19.7039ZM108.621 19.8626C109.976 18.6072 111.445 17.806 113.351 17.806C117.486 17.8298 119.62 21.1893 119.598 25.0526L119.574 31.5515C119.575 31.7139 119.543 31.8747 119.481 32.0248C119.42 32.175 119.328 32.3114 119.213 32.4262C119.098 32.5411 118.961 32.6321 118.81 32.6941C118.659 32.756 118.498 32.7876 118.335 32.7871H117.004C116.841 32.7876 116.679 32.756 116.528 32.6941C116.377 32.6322 116.24 32.5412 116.125 32.4264C116.009 32.3115 115.918 32.1751 115.856 32.025C115.794 31.8748 115.762 31.7139 115.762 31.5515L115.786 25.1061C115.786 22.9802 114.637 21.3123 112.387 21.3123C110.137 21.3123 108.759 23.1626 108.735 25.2668L108.703 31.5515C108.699 31.8759 108.566 32.1856 108.334 32.4127C108.101 32.6399 107.787 32.7659 107.461 32.7633H106.152C105.827 32.7596 105.516 32.6277 105.289 32.3965C105.061 32.1653 104.934 31.8536 104.937 31.5297L104.983 19.2537C104.983 19.0924 105.016 18.9327 105.079 18.7839C105.141 18.6351 105.233 18.5002 105.348 18.3868C105.464 18.2735 105.601 18.1839 105.751 18.1234C105.901 18.0628 106.062 18.0325 106.224 18.034H107.35C107.671 18.0446 107.976 18.1771 108.202 18.4042C108.428 18.6314 108.558 18.9361 108.565 19.2557L108.621 19.8626ZM55.193 17.5323C50.7137 17.5085 47.5456 20.7312 47.5217 25.1656C47.4998 29.6457 50.6221 32.8248 55.1472 32.8466C59.6722 32.8684 62.8404 29.7151 62.8623 25.2053C62.8862 20.8006 59.6483 17.5541 55.193 17.5323ZM92.3739 26.6987C92.6947 28.7552 94.6713 29.6001 96.6001 29.6239C97.567 29.6155 98.5214 29.4053 99.4016 29.0071C99.5432 28.9497 99.6809 28.8835 99.8141 28.8088C100.274 28.5569 100.687 28.3983 101.101 28.8088C101.33 29.0368 101.538 29.2669 101.767 29.4712C101.983 29.6767 102.183 29.8988 102.365 30.1355C102.984 30.911 102.548 31.0954 101.837 31.5753C100.32 32.5808 98.3456 33.0826 96.5304 33.0826C91.6626 33.0608 88.4466 30.1078 88.4466 25.2212C88.4705 20.6023 91.6845 17.5402 96.3232 17.562C101.055 17.5858 103.741 20.3524 103.811 25.0605C103.833 26.3397 103.879 26.7522 102.548 26.7522L92.3739 26.6987ZM55.193 20.9831C57.5123 20.9831 59.0506 22.996 59.0506 25.2132C59.0506 27.5217 57.604 29.378 55.1691 29.378C52.7342 29.378 51.3115 27.5038 51.3115 25.1954C51.3115 22.8869 52.782 20.9831 55.193 20.9831V20.9831ZM92.4755 23.5216L100.101 23.5434C99.8241 21.6455 98.24 20.8918 96.4268 20.8918C94.6135 20.8918 93.0394 21.7387 92.4755 23.5216Z" fill="#29303A"/>
</g>
<defs>
<clipPath id="clip0_202_10707">
<rect width="160.21" height="47.1784" fill="white" transform="translate(0.420044)"/>
</clipPath>
</defs>
</svg>
