<svg width="22" height="22" viewBox="0 0 22 22" fill="none" xmlns="http://www.w3.org/2000/svg">
<path d="M15.4 20.1667L15.4 19.3317H15.4V20.1667ZM6.59999 20.1667L6.59999 21.0017H6.59999V20.1667ZM3.66666 17.2334L2.83166 17.2334L3.66666 17.2334ZM3.66666 4.76671L4.50166 4.76671L3.66666 4.76671ZM3.86648 2.83439L3.12249 2.45531L3.12249 2.45531L3.86648 2.83439ZM6.59999 1.83337L6.59999 2.66837L6.59999 1.83337ZM4.66768 2.0332L4.28859 1.28921L4.28859 1.28921L4.66768 2.0332ZM4.66767 19.9669L4.28859 20.7109L4.28859 20.7109L4.66767 19.9669ZM3.86648 19.1657L4.61047 18.7866L4.61047 18.7866L3.86648 19.1657ZM17.3323 19.9669L16.9532 19.2229L16.9532 19.2229L17.3323 19.9669ZM18.3333 17.2334L19.1683 17.2334V17.2334H18.3333ZM18.1335 19.1657L17.3895 18.7866L17.3895 18.7866L18.1335 19.1657ZM19.1683 7.33338C19.1683 6.87222 18.7945 6.49838 18.3333 6.49838C17.8722 6.49838 17.4983 6.87222 17.4983 7.33338H19.1683ZM12.8333 2.66837C13.2945 2.66837 13.6683 2.29453 13.6683 1.83337C13.6683 1.37222 13.2945 0.998375 12.8333 0.998375L12.8333 2.66837ZM18.1768 7.17689L18.7673 6.58646L18.7673 6.58646L18.1768 7.17689ZM12.9898 1.98986L12.3994 2.58029L12.3994 2.58029L12.9898 1.98986ZM18.112 7.33338L18.112 8.16838L18.112 7.33338ZM13.75 7.33338L13.75 6.49838L13.75 7.33338ZM12.8333 6.41671L13.6683 6.41671V6.41671H12.8333ZM12.8333 2.05468L11.9983 2.05468V2.05468H12.8333ZM7.33332 10.165C6.87217 10.165 6.49832 10.5389 6.49832 11C6.49832 11.4612 6.87217 11.835 7.33332 11.835V10.165ZM14.6667 11.835C15.1278 11.835 15.5017 11.4612 15.5017 11C15.5017 10.5389 15.1278 10.165 14.6667 10.165V11.835ZM7.33332 6.49838C6.87217 6.49838 6.49832 6.87222 6.49832 7.33338C6.49832 7.79453 6.87217 8.16837 7.33332 8.16837V6.49838ZM9.16666 8.16837C9.62781 8.16837 10.0017 7.79453 10.0017 7.33338C10.0017 6.87222 9.62781 6.49838 9.16666 6.49838V8.16837ZM7.33332 13.8317C6.87217 13.8317 6.49832 14.2056 6.49832 14.6667C6.49832 15.1279 6.87217 15.5017 7.33332 15.5017V13.8317ZM14.6667 15.5017C15.1278 15.5017 15.5017 15.1279 15.5017 14.6667C15.5017 14.2056 15.1278 13.8317 14.6667 13.8317V15.5017ZM15.4 19.3317H6.59999V21.0017H15.4V19.3317ZM4.50166 17.2334L4.50166 4.76671L2.83166 4.76671L2.83166 17.2334L4.50166 17.2334ZM4.50166 4.76671C4.50166 4.23955 4.50231 3.8944 4.52386 3.63057C4.54462 3.3765 4.58053 3.27223 4.61047 3.21347L3.12249 2.45531C2.9526 2.78873 2.88861 3.13723 2.85941 3.49458C2.83101 3.84218 2.83166 4.2671 2.83166 4.76671L4.50166 4.76671ZM6.59999 0.998374C6.10039 0.998374 5.67547 0.997725 5.32787 1.02612C4.97052 1.05532 4.62201 1.11932 4.28859 1.28921L5.04676 2.77719C5.10551 2.74725 5.20978 2.71134 5.46386 2.69058C5.72768 2.66902 6.07283 2.66837 6.59999 2.66837L6.59999 0.998374ZM4.61047 3.21347C4.70618 3.02563 4.85891 2.8729 5.04676 2.77718L4.28859 1.28921C3.78652 1.54503 3.37831 1.95323 3.12249 2.45531L4.61047 3.21347ZM6.59999 19.3317C6.07283 19.3317 5.72768 19.3311 5.46386 19.3095C5.20978 19.2887 5.10551 19.2528 5.04676 19.2229L4.28859 20.7109C4.62201 20.8808 4.97051 20.9448 5.32786 20.974C5.67547 21.0024 6.10039 21.0017 6.59999 21.0017L6.59999 19.3317ZM2.83166 17.2334C2.83166 17.733 2.83101 18.1579 2.85941 18.5055C2.8886 18.8628 2.9526 19.2114 3.12249 19.5448L4.61047 18.7866C4.58053 18.7279 4.54462 18.6236 4.52386 18.3695C4.50231 18.1057 4.50166 17.7605 4.50166 17.2334L2.83166 17.2334ZM5.04676 19.2229C4.85891 19.1272 4.70618 18.9745 4.61047 18.7866L3.12249 19.5448C3.37831 20.0469 3.78651 20.4551 4.28859 20.7109L5.04676 19.2229ZM15.4 21.0017C15.8996 21.0017 16.3245 21.0024 16.6721 20.974C17.0295 20.9448 17.378 20.8808 17.7114 20.7109L16.9532 19.2229C16.8945 19.2528 16.7902 19.2887 16.5361 19.3095C16.2723 19.3311 15.9271 19.3317 15.4 19.3317L15.4 21.0017ZM17.4983 17.2334C17.4983 17.7605 17.4977 18.1057 17.4761 18.3695C17.4554 18.6236 17.4194 18.7279 17.3895 18.7866L18.8775 19.5448C19.0474 19.2114 19.1114 18.8629 19.1406 18.5055C19.169 18.1579 19.1683 17.733 19.1683 17.2334L17.4983 17.2334ZM17.7114 20.7109C18.2135 20.4551 18.6217 20.0469 18.8775 19.5448L17.3895 18.7866C17.2938 18.9745 17.1411 19.1272 16.9532 19.2229L17.7114 20.7109ZM17.4983 7.33338V17.2334H19.1683V7.33338H17.4983ZM6.59999 2.66837L12.8333 2.66837L12.8333 0.998375L6.59999 0.998374L6.59999 2.66837ZM18.7673 6.58646L13.5802 1.39943L12.3994 2.58029L17.5864 7.76733L18.7673 6.58646ZM18.112 6.49838L13.75 6.49838L13.75 8.16838L18.112 8.16838L18.112 6.49838ZM13.6683 6.41671V2.05468H11.9983V6.41671H13.6683ZM13.75 6.49838C13.7049 6.49838 13.6683 6.46181 13.6683 6.41671L11.9983 6.41671C11.9983 7.38413 12.7826 8.16838 13.75 8.16838L13.75 6.49838ZM13.5802 1.39943C12.9965 0.815658 11.9983 1.22911 11.9983 2.05468L13.6683 2.05468C13.6683 2.71692 12.8676 3.04857 12.3994 2.58029L13.5802 1.39943ZM17.5864 7.76733C17.1181 7.29905 17.4498 6.49838 18.112 6.49838L18.112 8.16838C18.9376 8.16838 19.351 7.17023 18.7673 6.58646L17.5864 7.76733ZM7.33332 11.835H14.6667V10.165H7.33332V11.835ZM7.33332 8.16837H9.16666V6.49838H7.33332V8.16837ZM7.33332 15.5017H14.6667V13.8317H7.33332V15.5017Z" fill="#5F6D7E"/>
</svg>
