<svg width="20" height="21" viewBox="0 0 20 21" fill="none" xmlns="http://www.w3.org/2000/svg">
<path d="M9.68734 10.1308H10.3123M9.68734 10.7558H10.3123M3.854 10.1308H4.479M3.854 10.7558H4.479M15.5207 10.1308H16.1457M15.5207 10.7558H16.1457M10.8334 10.4433C10.8334 10.9036 10.4603 11.2767 10 11.2767C9.5398 11.2767 9.16671 10.9036 9.16671 10.4433C9.16671 9.98308 9.5398 9.60999 10 9.60999C10.4603 9.60999 10.8334 9.98308 10.8334 10.4433ZM5.00004 10.4433C5.00004 10.9036 4.62694 11.2767 4.16671 11.2767C3.70647 11.2767 3.33337 10.9036 3.33337 10.4433C3.33337 9.98308 3.70647 9.60999 4.16671 9.60999C4.62694 9.60999 5.00004 9.98308 5.00004 10.4433ZM16.6667 10.4433C16.6667 10.9036 16.2936 11.2767 15.8334 11.2767C15.3731 11.2767 15 10.9036 15 10.4433C15 9.98308 15.3731 9.60999 15.8334 9.60999C16.2936 9.60999 16.6667 9.98308 16.6667 10.4433Z" stroke="black" stroke-width="2" stroke-linecap="round"/>
</svg>
