<svg width="20" height="21" viewBox="0 0 20 21" fill="none" xmlns="http://www.w3.org/2000/svg">
<path d="M4.17657 14.5802L4.96872 14.8442L4.17657 14.5802ZM4.80089 12.7072L4.00874 12.4432H4.00874L4.80089 12.7072ZM5.44509 11.6649L6.03553 12.2553L6.03553 12.2553L5.44509 11.6649ZM11.6666 5.44335L11.0762 4.85292L11.0762 4.85292L11.6666 5.44335ZM15 8.77669L15.5904 9.36712L15 8.77669ZM8.77843 14.9982L8.18799 14.4078L8.18799 14.4078L8.77843 14.9982ZM7.73608 15.6424L8.00013 16.4346L8.00013 16.4346L7.73608 15.6424ZM5.86312 16.2667L6.12717 17.0589H6.12717L5.86312 16.2667ZM8.43672 15.3172L7.93385 14.6506L7.93385 14.6506L8.43672 15.3172ZM8.17417 15.4794L7.80284 14.7315L8.17417 15.4794ZM15.803 6.36999L15.0548 6.74074V6.74075L15.803 6.36999ZM15.803 7.85004L15.0548 7.47929V7.47929L15.803 7.85004ZM12.5933 4.64034L12.964 5.38852V5.38852L12.5933 4.64034ZM14.0733 4.64034L13.7026 5.38852L13.7026 5.38852L14.0733 4.64034ZM4.96388 12.2691L5.71177 12.6405L5.71178 12.6405L4.96388 12.2691ZM5.12615 12.0066L4.45956 11.5037L4.45956 11.5037L5.12615 12.0066ZM3.86599 16.0723L3.0795 16.3528L3.86599 16.0723ZM4.37101 16.5773L4.09055 17.3638L4.09055 17.3638L4.37101 16.5773ZM11.4237 5.68628C11.0976 5.36019 10.5689 5.36019 10.2429 5.68628C9.91677 6.01237 9.91677 6.54106 10.2429 6.86715L11.4237 5.68628ZM13.5762 10.2005C13.9023 10.5266 14.431 10.5266 14.7571 10.2005C15.0831 9.87439 15.0831 9.3457 14.7571 9.01961L13.5762 10.2005ZM4.96872 14.8442L5.59304 12.9713L4.00874 12.4432L3.38442 14.3161L4.96872 14.8442ZM6.03553 12.2553L12.2571 6.03378L11.0762 4.85292L4.85466 11.0745L6.03553 12.2553ZM14.4095 8.18625L8.18799 14.4078L9.36886 15.5887L15.5904 9.36712L14.4095 8.18625ZM7.47203 14.8503L5.59907 15.4746L6.12717 17.0589L8.00013 16.4346L7.47203 14.8503ZM8.18799 14.4078C8.00622 14.5896 7.96948 14.6237 7.93385 14.6506L8.93959 15.9837C9.08933 15.8708 9.21861 15.7389 9.36886 15.5887L8.18799 14.4078ZM8.00013 16.4346C8.20172 16.3674 8.37749 16.3107 8.54549 16.2273L7.80284 14.7315C7.76286 14.7514 7.71591 14.769 7.47203 14.8503L8.00013 16.4346ZM7.93385 14.6506C7.89278 14.6815 7.84892 14.7087 7.80284 14.7315L8.54549 16.2273C8.68411 16.1585 8.81604 16.077 8.9396 15.9837L7.93385 14.6506ZM14.4095 6.03379C14.9116 6.53583 15.0095 6.6494 15.0548 6.74074L16.5511 5.99924C16.3535 5.60043 15.9971 5.25962 15.5904 4.85292L14.4095 6.03379ZM15.5904 9.36712C15.9971 8.96042 16.3535 8.61961 16.5511 8.2208L15.0548 7.47929C15.0095 7.57063 14.9116 7.6842 14.4095 8.18625L15.5904 9.36712ZM15.0548 6.74075C15.1701 6.97343 15.1701 7.24661 15.0548 7.47929L16.5511 8.2208C16.898 7.52089 16.898 6.69915 16.5511 5.99924L15.0548 6.74075ZM12.2571 6.03378C12.7591 5.53174 12.8727 5.43378 12.964 5.38852L12.2225 3.89217C11.8237 4.0898 11.4829 4.44622 11.0762 4.85292L12.2571 6.03378ZM15.5904 4.85292C15.1837 4.44621 14.8429 4.0898 14.4441 3.89217L13.7026 5.38852C13.7939 5.43378 13.9075 5.53174 14.4095 6.03379L15.5904 4.85292ZM12.964 5.38852C13.1967 5.27322 13.4699 5.27322 13.7026 5.38852L14.4441 3.89217C13.7442 3.54533 12.9224 3.54533 12.2225 3.89217L12.964 5.38852ZM5.59304 12.9713C5.67433 12.7274 5.69193 12.6804 5.71177 12.6405L4.21599 11.8978C4.13258 12.0658 4.07593 12.2416 4.00874 12.4432L5.59304 12.9713ZM4.85466 11.0744C4.70441 11.2247 4.57252 11.354 4.45956 11.5037L5.79275 12.5095C5.81963 12.4738 5.85376 12.4371 6.03553 12.2553L4.85466 11.0744ZM5.71178 12.6405C5.73466 12.5944 5.76176 12.5505 5.79275 12.5095L4.45956 11.5037C4.36636 11.6273 4.28482 11.7592 4.21599 11.8978L5.71178 12.6405ZM3.38442 14.3161C3.25397 14.7075 3.13701 15.0557 3.07043 15.3391C3.00676 15.61 2.94652 15.9799 3.0795 16.3528L4.65248 15.7918C4.68891 15.894 4.64825 15.9249 4.69615 15.7211C4.74114 15.5296 4.82775 15.2672 4.96872 14.8442L3.38442 14.3161ZM5.59907 15.4746C5.17615 15.6156 4.9137 15.7022 4.72224 15.7472C4.51839 15.7951 4.5493 15.7544 4.65147 15.7908L4.09055 17.3638C4.46345 17.4968 4.8333 17.4365 5.10426 17.3729C5.3876 17.3063 5.73583 17.1893 6.12717 17.0589L5.59907 15.4746ZM3.0795 16.3528C3.2477 16.8244 3.61887 17.1956 4.09055 17.3638L4.65147 15.7908C4.65147 15.7908 4.65152 15.7908 4.65159 15.7909C4.65167 15.7909 4.65175 15.791 4.65182 15.791C4.65195 15.7911 4.65204 15.7912 4.65209 15.7912C4.65214 15.7913 4.65221 15.7914 4.6523 15.7915C4.65234 15.7916 4.65239 15.7916 4.65242 15.7917C4.65246 15.7918 4.65248 15.7918 4.65248 15.7918L3.0795 16.3528ZM10.2429 6.86715L13.5762 10.2005L14.7571 9.01961L11.4237 5.68628L10.2429 6.86715Z" fill="#272D37"/>
</svg>
