<svg width="24" height="25" viewBox="0 0 24 25" fill="none" xmlns="http://www.w3.org/2000/svg">
<g clip-path="url(#clip0_134_9198)">
<path d="M24 12.3259C24 5.69851 18.6274 0.325928 12 0.325928C5.37258 0.325928 0 5.69851 0 12.3259C0 18.3154 4.3882 23.2799 10.125 24.1801V15.7947H7.07812V12.3259H10.125V9.68218C10.125 6.67468 11.9166 5.01343 14.6576 5.01343C15.9701 5.01343 17.3438 5.2478 17.3438 5.2478V8.20093H15.8306C14.34 8.20093 13.875 9.12601 13.875 10.0759V12.3259H17.2031L16.6711 15.7947H13.875V24.1801C19.6118 23.2799 24 18.3154 24 12.3259Z" fill="#272D37"/>
<path d="M16.6711 15.7947L17.2031 12.3259H13.875V10.0759C13.875 9.12694 14.34 8.20093 15.8306 8.20093H17.3438V5.2478C17.3438 5.2478 15.9705 5.01343 14.6576 5.01343C11.9166 5.01343 10.125 6.67468 10.125 9.68218V12.3259H7.07812V15.7947H10.125V24.1801C11.3674 24.3745 12.6326 24.3745 13.875 24.1801V15.7947H16.6711Z" fill="white"/>
</g>
<defs>
<clipPath id="clip0_134_9198">
<rect width="24" height="24" fill="white" transform="translate(0 0.325928)"/>
</clipPath>
</defs>
</svg>
