<svg width="22" height="22" viewBox="0 0 22 22" fill="none" xmlns="http://www.w3.org/2000/svg">
<path d="M8.25031 3.44515C8.25031 2.55499 8.97193 1.83337 9.86209 1.83337H12.1385C13.0287 1.83337 13.7503 2.55499 13.7503 3.44516C13.7503 4.68591 15.0935 5.46137 16.168 4.84099C16.9389 4.3959 17.9247 4.66003 18.3698 5.43095L19.508 7.40235C19.9531 8.17327 19.6889 9.15903 18.918 9.60412C17.8435 10.2245 17.8435 11.7755 18.918 12.3958C19.6889 12.8409 19.9531 13.8267 19.508 14.5976L18.3698 16.569C17.9247 17.3399 16.9389 17.6041 16.168 17.159C15.0935 16.5386 13.7503 17.3141 13.7503 18.5549C13.7503 19.4451 13.0287 20.1667 12.1385 20.1667H9.86213C8.97195 20.1667 8.25031 19.4451 8.25031 18.5549C8.25031 17.3141 6.90715 16.5386 5.83262 17.159C5.06171 17.6041 4.07595 17.3399 3.63087 16.569L2.49267 14.5976C2.04758 13.8267 2.31172 12.8409 3.08263 12.3958C4.15716 11.7755 4.15717 10.2245 3.08263 9.60411C2.31172 9.15903 2.04758 8.17326 2.49267 7.40235L3.63087 5.43093C4.07596 4.66002 5.06172 4.39589 5.83263 4.84098C6.90715 5.46135 8.25031 4.68589 8.25031 3.44515Z" stroke="#5F6D7E" stroke-width="1.67"/>
<path d="M14.667 11C14.667 13.0251 13.0254 14.6667 11.0003 14.6667C8.97527 14.6667 7.33364 13.0251 7.33364 11C7.33364 8.975 8.97527 7.33337 11.0003 7.33337C13.0254 7.33337 14.667 8.975 14.667 11Z" stroke="#5F6D7E" stroke-width="1.67"/>
</svg>
