<svg width="22" height="22" viewBox="0 0 22 22" fill="#fff" xmlns="http://www.w3.org/2000/svg">
<path d="M2.75001 4.58329L9.87445 10.1245C10.5365 10.6394 11.4635 10.6394 12.1256 10.1245L19.25 4.58329M4.76668 18.3333H17.2333C18.2601 18.3333 18.7735 18.3333 19.1657 18.1335C19.5106 17.9577 19.7911 17.6772 19.9669 17.3323C20.1667 16.9401 20.1667 16.4267 20.1667 15.4V6.59996C20.1667 5.5732 20.1667 5.05981 19.9669 4.66764C19.7911 4.32268 19.5106 4.04222 19.1657 3.86645C18.7735 3.66663 18.2601 3.66663 17.2333 3.66663H4.76668C3.73991 3.66663 3.22653 3.66663 2.83436 3.86645C2.4894 4.04222 2.20893 4.32268 2.03316 4.66764C1.83334 5.05981 1.83334 5.5732 1.83334 6.59996V15.4C1.83334 16.4267 1.83334 16.9401 2.03316 17.3323C2.20893 17.6772 2.4894 17.9577 2.83436 18.1335C3.22653 18.3333 3.73991 18.3333 4.76668 18.3333Z" stroke="#574EFA" stroke-width="1.67"/>
</svg>
