<svg width="110" height="33" viewBox="0 0 110 33" fill="none" xmlns="http://www.w3.org/2000/svg">
<path d="M38.2715 32.6483C38.1167 32.6483 37.9585 32.6143 37.8104 32.5429C37.2796 32.2877 37.0584 31.6513 37.3136 31.1205L47.8607 9.23015C48.0376 8.86094 48.4119 8.62785 48.8202 8.62785C49.2286 8.62785 49.6029 8.86264 49.7798 9.23015L56.172 22.496C56.4272 23.0269 56.2044 23.6632 55.6752 23.9184C55.1444 24.1736 54.5081 23.9507 54.2528 23.4216L48.822 12.1481L39.2345 32.0461C39.0508 32.4272 38.6696 32.6501 38.2732 32.6501L38.2715 32.6483Z" fill="#D78100"/>
<path d="M61.6029 24.0239C61.1946 24.0239 60.8203 23.7891 60.6433 23.4216L54.2511 10.1557C53.9959 9.62487 54.2188 8.98855 54.748 8.73334C55.2788 8.47812 55.9151 8.70101 56.1703 9.23014L61.6029 20.5037L71.1904 0.6057C71.4456 0.07486 72.0819 -0.148022 72.6128 0.108891C73.1436 0.364102 73.3648 1.00043 73.1096 1.53127L62.5625 23.4216C62.3856 23.7908 62.0113 24.0239 61.6029 24.0239Z" fill="#D78100"/>
<path d="M70.3159 10.1353L68.982 12.9001C69.2559 13.9958 69.4022 15.1442 69.4022 16.325C69.4022 24.1515 63.0372 30.5199 55.2107 30.5199C50.6476 30.5199 46.5778 28.3523 43.9814 24.9954L42.964 27.1052C45.9568 30.5063 50.3362 32.6518 55.2107 32.6518C64.2129 32.6518 71.5341 25.3272 71.5341 16.3267C71.5341 14.1387 71.1019 12.046 70.3159 10.1387V10.1353ZM55.2107 2.13187C59.7773 2.13187 63.8437 4.29947 66.44 7.65975L67.4575 5.5466C64.4681 2.14888 60.0853 0 55.2107 0C46.2086 0 38.8874 7.32457 38.8874 16.3233C38.8874 18.5113 39.3196 20.6041 40.1073 22.5113L41.4378 19.75C41.1639 18.6509 41.0176 17.5041 41.0176 16.3216C41.0176 8.49854 47.3826 2.13017 55.209 2.13017L55.2107 2.13187Z" fill="#6069E8"/>
<path d="M0 16.325C0 10.6849 4.35391 6.47897 10.0519 6.47897C15.7499 6.47897 20.1328 10.6866 20.1328 16.325C20.1328 21.9635 15.7499 26.1728 10.0519 26.1728C4.35391 26.1728 0 21.9652 0 16.325ZM17.7355 16.325C17.7355 11.8554 14.4041 8.63976 10.0502 8.63976C5.69632 8.63976 2.39388 11.8537 2.39388 16.325C2.39388 20.7963 5.72524 24.0103 10.0502 24.0103C14.3752 24.0103 17.7355 20.7963 17.7355 16.325Z" fill="#6069E8"/>
<path d="M24.3097 25.3238V7.38752C24.3097 6.81245 24.6126 6.47897 25.157 6.47897H25.9142C26.4586 6.47897 26.7615 6.81245 26.7615 7.38752V24.0222H35.488C36.0325 24.0222 36.3966 24.325 36.3966 24.8695V25.3238C36.3966 25.8682 36.0325 26.1728 35.488 26.1728H25.1553C24.6109 26.1728 24.308 25.8699 24.308 25.3238H24.3097Z" fill="#6069E8"/>
<path d="M109.676 7.37391V25.5467C109.676 25.9346 109.379 26.1728 109.05 26.1728H108.931C108.603 26.1728 108.305 25.904 107.946 25.4871L96.2487 11.4029V25.2778C96.2487 25.8155 95.951 26.1728 95.4133 26.1728H94.7277C94.19 26.1728 93.8923 25.8138 93.8923 25.2778V7.10509C93.8923 6.71717 94.19 6.47897 94.5184 6.47897H94.6375C94.9659 6.47897 95.2943 6.74779 95.6226 7.16464L107.32 21.2489V7.37391C107.32 6.80734 107.619 6.47897 108.155 6.47897H108.841C109.407 6.47897 109.676 6.80734 109.676 7.37391Z" fill="#6069E8"/>
<path d="M89.5384 6.47727H77.5366C77.2031 6.47727 76.9326 6.74769 76.9326 7.08127V8.02385C76.9326 8.35743 77.2031 8.62785 77.5366 8.62785H89.5384C89.872 8.62785 90.1424 8.35743 90.1424 8.02385V7.08127C90.1424 6.74769 89.872 6.47727 89.5384 6.47727Z" fill="#6069E8"/>
<path d="M89.5384 15.2497H77.5366C77.2031 15.2497 76.9326 15.5202 76.9326 15.8537V16.7963C76.9326 17.1299 77.2031 17.4003 77.5366 17.4003H89.5384C89.872 17.4003 90.1424 17.1299 90.1424 16.7963V15.8537C90.1424 15.5202 89.872 15.2497 89.5384 15.2497Z" fill="#6069E8"/>
<path d="M89.5384 24.0205H77.5366C77.2031 24.0205 76.9326 24.2909 76.9326 24.6245V25.5671C76.9326 25.9007 77.2031 26.1711 77.5366 26.1711H89.5384C89.872 26.1711 90.1424 25.9007 90.1424 25.5671V24.6245C90.1424 24.2909 89.872 24.0205 89.5384 24.0205Z" fill="#6069E8"/>
</svg>
