<svg width="60" height="60" viewBox="0 0 60 60" fill="none" xmlns="http://www.w3.org/2000/svg">
<path d="M55 28.75V12.7849C55 10.8075 55 9.81876 54.5147 8.79916C54.2379 8.21763 53.6076 7.42659 53.1025 7.02697C52.217 6.32629 51.478 6.15702 50 5.81849C47.7008 5.29187 45.1648 5 42.5 5C37.7073 5 33.3313 5.94409 30 7.5C26.6687 9.05591 22.2927 10 17.5 10C14.8352 10 12.2992 9.70813 10 9.18151C7.60008 8.63182 5 10.3229 5 12.7849V39.7151C5 41.6925 5 42.6812 5.48529 43.7008C5.76207 44.2824 6.39241 45.0734 6.89746 45.473C7.78298 46.1737 8.52199 46.343 10 46.6815C12.2992 47.2081 14.8352 47.5 17.5 47.5C21.1721 47.5 24.5996 46.9458 27.5 45.9868" stroke="#574EFA" stroke-width="3" stroke-linecap="round"/>
<path d="M36.25 26.25C36.25 29.7018 33.4518 32.5 30 32.5C26.5482 32.5 23.75 29.7018 23.75 26.25C23.75 22.7982 26.5482 20 30 20C33.4518 20 36.25 22.7982 36.25 26.25Z" stroke="#574EFA" stroke-width="3"/>
<path d="M13.75 28.75L13.75 28.7725" stroke="#574EFA" stroke-width="2" stroke-linecap="round" stroke-linejoin="round"/>
<path d="M46.25 23.7305L46.25 23.7529" stroke="#574EFA" stroke-width="2" stroke-linecap="round" stroke-linejoin="round"/>
<path d="M48.3333 35L50.3913 36.8947C50.8393 37.335 51.0633 37.5552 50.9844 37.7422C50.9056 37.9293 50.5888 37.9293 49.9552 37.9293H42.1942C38.221 37.9293 35 41.095 35 45C35 45.8802 35.1636 46.7227 35.4626 47.5M41.6667 55L39.6087 53.1053C39.1607 52.665 38.9367 52.4448 39.0156 52.2578C39.0944 52.0707 39.4112 52.0707 40.0448 52.0707H47.8058C51.779 52.0707 55 48.905 55 45C55 44.1198 54.8364 43.2773 54.5374 42.5" stroke="#574EFA" stroke-width="3" stroke-linecap="round" stroke-linejoin="round"/>
</svg>
