<svg width="34" height="35" viewBox="0 0 34 35" fill="none" xmlns="http://www.w3.org/2000/svg">
<path fill-rule="evenodd" clip-rule="evenodd" d="M30.1358 14.7624C29.6139 9.35645 26.4486 0.856445 16.6666 0.856445C6.88459 0.856445 3.71933 9.35645 3.1974 14.7624C1.36645 15.4641 0.158726 17.2391 0.166788 19.2164V21.5964C0.166788 24.2253 2.27746 26.3564 4.88105 26.3564C7.48464 26.3564 9.59527 24.2253 9.59527 21.5964V19.2164C9.5868 17.2817 8.42344 15.5432 6.64888 14.8134C6.98561 11.6854 8.63558 4.25645 16.6666 4.25645C24.6976 4.25645 26.3307 11.6854 26.6675 14.8134C24.8965 15.5448 23.739 17.2845 23.7379 19.2164V21.5964C23.7452 23.4239 24.7845 25.087 26.4149 25.8804C25.7078 27.2234 23.9063 29.0424 19.4783 29.5864C18.5931 28.2293 16.8807 27.6943 15.3911 28.3096C13.9016 28.9248 13.0514 30.5183 13.3621 32.1127C13.6727 33.7071 15.0572 34.8564 16.6666 34.8564C17.9383 34.8493 19.0976 34.1194 19.6635 32.9694C26.8863 32.1364 29.1929 28.3794 29.9169 26.1694C31.8755 25.5288 33.1928 23.6751 33.1664 21.5964V19.2164C33.1745 17.2391 31.9667 15.4641 30.1358 14.7624ZM6.22797 21.5964C6.22797 22.3476 5.62493 22.9564 4.88105 22.9564C4.13716 22.9564 3.53413 22.3476 3.53413 21.5964V19.2164C3.53413 18.7306 3.79085 18.2816 4.20759 18.0386C4.62433 17.7957 5.13777 17.7957 5.55451 18.0386C5.97124 18.2816 6.22797 18.7306 6.22797 19.2164V21.5964ZM27.1052 19.2164C27.1052 18.4653 27.7083 17.8564 28.4521 17.8564C29.196 17.8564 29.7991 18.4653 29.7991 19.2164V21.5964C29.7991 22.3476 29.196 22.9564 28.4521 22.9564C27.7083 22.9564 27.1052 22.3476 27.1052 21.5964V19.2164Z" fill="white"/>
</svg>
