<svg width="34" height="34" viewBox="0 0 34 34" fill="none" xmlns="http://www.w3.org/2000/svg">
<path fill-rule="evenodd" clip-rule="evenodd" d="M30.1358 13.906C29.6139 8.5 26.4486 0 16.6666 0C6.88459 0 3.71933 8.5 3.1974 13.906C1.36645 14.6076 0.158726 16.3826 0.166788 18.36V20.74C0.166788 23.3689 2.27746 25.5 4.88105 25.5C7.48464 25.5 9.59527 23.3689 9.59527 20.74V18.36C9.5868 16.4253 8.42344 14.6868 6.64888 13.957C6.98561 10.829 8.63558 3.4 16.6666 3.4C24.6976 3.4 26.3307 10.829 26.6675 13.957C24.8965 14.6884 23.739 16.428 23.7379 18.36V20.74C23.7452 22.5675 24.7845 24.2306 26.4149 25.024C25.7078 26.367 23.9063 28.186 19.4783 28.73C18.5931 27.3729 16.8807 26.8379 15.3911 27.4531C13.9016 28.0683 13.0514 29.6618 13.3621 31.2562C13.6727 32.8507 15.0572 34 16.6666 34C17.9383 33.9929 19.0976 33.263 19.6635 32.113C26.8863 31.28 29.1929 27.523 29.9169 25.313C31.8755 24.6724 33.1928 22.8186 33.1664 20.74V18.36C33.1745 16.3826 31.9667 14.6076 30.1358 13.906ZM6.22797 20.74C6.22797 21.4911 5.62493 22.1 4.88105 22.1C4.13716 22.1 3.53413 21.4911 3.53413 20.74V18.36C3.53413 17.8741 3.79085 17.4251 4.20759 17.1822C4.62433 16.9393 5.13777 16.9393 5.55451 17.1822C5.97124 17.4251 6.22797 17.8741 6.22797 18.36V20.74ZM27.1052 18.36C27.1052 17.6089 27.7083 17 28.4521 17C29.196 17 29.7991 17.6089 29.7991 18.36V20.74C29.7991 21.4911 29.196 22.1 28.4521 22.1C27.7083 22.1 27.1052 21.4911 27.1052 20.74V18.36Z" fill="white"/>
</svg>
