<svg width="40" height="40" viewBox="0 0 40 40" fill="none" xmlns="http://www.w3.org/2000/svg">
<g clipPath="url(#clip0_0_92)">
<path d="M33.9325 3.11352C31.7553 1.00995 27.8197 0.108093 22.7848 0.108093H8.17232C7.67417 0.108109 7.19236 0.258761 6.81352 0.532964C6.43469 0.807166 6.18367 1.18693 6.1056 1.60399L0.0212212 34.3148C-0.0997163 34.9599 0.489502 35.544 1.26075 35.544H10.282L12.5476 23.3624L12.4773 23.7439C12.6387 22.8828 13.5075 22.2477 14.5362 22.2477H18.8231C27.2447 22.2477 33.8389 19.3481 35.7651 10.9601C35.8223 10.7121 35.8718 10.4706 35.9147 10.2347C35.6715 10.1256 35.6715 10.1256 35.9147 10.2347C36.4883 7.13445 35.9108 5.02412 33.9325 3.11352Z" fill="#27346A"/>
<path d="M15.9995 9.11789C16.2461 9.01835 16.5159 8.96676 16.789 8.9669H28.245C29.6015 8.9669 30.8668 9.04174 32.0231 9.19948C32.3466 9.24321 32.6685 9.29542 32.9883 9.35604C33.4414 9.44081 33.8894 9.54456 34.3304 9.6669C34.8989 9.82783 35.4283 10.0152 35.9148 10.2347C36.4883 7.13326 35.9108 5.02412 33.9325 3.11352C31.754 1.00995 27.8197 0.108093 22.7848 0.108093H8.17107C7.14216 0.108093 6.26685 0.74306 6.1056 1.60399L0.021222 34.3137C-0.0997155 34.9597 0.489503 35.5431 1.2595 35.5431H10.282L14.9825 10.2755C15.0287 10.0272 15.1454 9.79203 15.3226 9.59038C15.4997 9.38872 15.732 9.22658 15.9995 9.11789Z" fill="#27346A"/>
<path d="M35.7652 10.9601C33.8389 19.3469 27.2448 22.2477 18.8231 22.2477H14.535C13.5063 22.2477 12.6373 22.8828 12.4775 23.7439L9.65891 38.8902C9.5536 39.4547 10.0686 39.9662 10.7423 39.9662H18.347C18.7827 39.9661 19.2039 39.8343 19.5351 39.5944C19.8663 39.3545 20.0857 39.0224 20.1538 38.6576L20.2278 38.3292L21.6611 30.629L21.7534 30.2035C21.8215 29.8387 22.0408 29.5066 22.372 29.2667C22.7032 29.0268 23.1244 28.895 23.56 28.8948H24.6981C32.0648 28.8948 37.8331 26.3579 39.5188 19.0207C40.2223 15.9544 39.8583 13.3944 37.997 11.5963C37.4325 11.0517 36.7314 10.6019 35.9147 10.2347C35.8705 10.4718 35.8225 10.7121 35.7652 10.9601Z" fill="#2790C3"/>
<path d="M33.8987 9.55336C33.5984 9.47902 33.2952 9.4132 32.9897 9.35601C32.6698 9.29639 32.3479 9.24453 32.0245 9.20051C30.867 9.04171 29.6026 8.96674 28.2448 8.96674H16.7903C16.5169 8.96621 16.247 9.01825 16.0008 9.11893C15.733 9.22728 15.5004 9.38932 15.3232 9.59104C15.1459 9.79275 15.0294 10.028 14.9836 10.2765L12.5489 23.3624L12.4786 23.7438C12.6387 22.8828 13.5075 22.2477 14.5364 22.2477H18.8245C27.2461 22.2477 33.8401 19.3481 35.7664 10.9601C35.8237 10.712 35.8719 10.4716 35.9161 10.2347C35.4283 10.0164 34.9003 9.8278 34.3317 9.66793C34.1882 9.62761 34.0439 9.58942 33.8989 9.55336" fill="#1F264F"/>
</g>
<defs>
<clipPath id="clip0_0_92">
<rect width="40" height="40" fill="white"/>
</clipPath>
</defs>
</svg>
