<svg width="60" height="60" viewBox="0 0 60 60" fill="none" xmlns="http://www.w3.org/2000/svg">
<circle cx="21.25" cy="26.25" r="3.75" stroke="#574EFA" stroke-width="3"/>
<circle cx="38.75" cy="26.25" r="3.75" stroke="#574EFA" stroke-width="3"/>
<path d="M20.6254 36.305L20.2222 37.7498H20.2222L20.6254 36.305ZM17.5 35.275L18.0341 33.8734L17.5 35.275ZM6.00846 26.3898C5.3952 25.8329 4.44655 25.8785 3.88959 26.4918C3.33263 27.105 3.37828 28.0537 3.99154 28.6107L6.00846 26.3898ZM22.5548 52.4432L22.4179 53.9369H22.4179L22.5548 52.4432ZM15.0356 45.3332L16.5327 45.2397L16.5327 45.2397L15.0356 45.3332ZM21.0286 34.8602C20.0152 34.5774 19.0165 34.2477 18.0341 33.8734L16.9659 36.6767C18.0328 37.0833 19.1189 37.4419 20.2222 37.7498L21.0286 34.8602ZM18.0341 33.8734C13.6501 32.2028 9.58878 29.6414 6.00846 26.3898L3.99154 28.6107C7.82599 32.0931 12.2042 34.8622 16.9659 36.6767L18.0341 33.8734ZM22.6916 50.9495C19.3382 50.6422 16.7051 48.001 16.5327 45.2397L13.5385 45.4267C13.8168 49.8822 17.8194 53.5156 22.4179 53.9369L22.6916 50.9495ZM16.5327 45.2397C16.3235 41.8898 17.1024 38.9584 18.7984 36.0261L16.2016 34.524C14.241 37.9136 13.2888 41.4273 13.5385 45.4267L16.5327 45.2397ZM26 49.6409C26 50.0915 25.8923 50.3105 25.8115 50.4221C25.7252 50.5414 25.5744 50.668 25.2902 50.7766C24.6607 51.0172 23.7187 51.0435 22.6916 50.9495L22.4179 53.9369C23.5197 54.0379 25.0503 54.0799 26.3611 53.579C27.0472 53.3168 27.7336 52.8833 28.2418 52.1811C28.7556 51.4711 29 50.6071 29 49.6409H26ZM20.2222 37.7498C21.9465 38.2309 23.0953 38.8311 23.8792 39.4874C24.6459 40.1292 25.1269 40.8772 25.4404 41.7724C25.7637 42.6957 25.915 43.7936 25.9749 45.1313C26.0354 46.484 26 47.9395 26 49.6409H29C29 48.0413 29.0364 46.4391 28.9719 44.9972C28.9067 43.5402 28.736 42.1065 28.2718 40.7809C27.7978 39.4272 27.0257 38.209 25.805 37.1871C24.6016 36.1796 23.0288 35.4183 21.0286 34.8602L20.2222 37.7498Z" fill="#574EFA"/>
<path d="M37.5152 54.9478L37.6528 56.4415H37.6528L37.5152 54.9478ZM44.9957 47.8352L43.4986 47.7422L43.4986 47.7422L44.9957 47.8352ZM42.553 35.2748L42.0169 33.8739L42.553 35.2748ZM39.4409 36.3047L39.8457 37.7491L39.4409 36.3047ZM56.0108 28.6083C56.6229 28.05 56.6665 27.1013 56.1083 26.4892C55.55 25.8771 54.6013 25.8335 53.9892 26.3917L56.0108 28.6083ZM37.6528 56.4415C42.2373 56.0192 46.2165 52.3791 46.4929 47.9281L43.4986 47.7422C43.3267 50.5108 40.7043 53.1477 37.3776 53.4542L37.6528 56.4415ZM46.4929 47.9281C46.7651 43.545 46.1593 38.5358 43.8533 34.5269L41.2528 36.0227C43.1607 39.3396 43.75 43.6938 43.4986 47.7422L46.4929 47.9281ZM31.0955 52.1445C31.0955 53.087 31.3353 53.9334 31.8348 54.6336C32.3285 55.3257 32.9969 55.7648 33.6732 56.037C34.9705 56.5593 36.4955 56.5481 37.6528 56.4415L37.3776 53.4542C36.3432 53.5495 35.4082 53.5015 34.7936 53.2541C34.514 53.1415 34.3634 53.0125 34.2771 52.8915C34.1966 52.7786 34.0955 52.5669 34.0955 52.1445H31.0955ZM39.8457 37.7491C40.9446 37.4411 42.0264 37.0824 43.0891 36.6757L42.0169 33.8739C41.039 34.2481 40.0448 34.5777 39.0361 34.8604L39.8457 37.7491ZM43.0891 36.6757C47.8319 34.8607 52.1923 32.091 56.0108 28.6083L53.9892 26.3917C50.4244 29.643 46.381 32.2038 42.0169 33.8739L43.0891 36.6757ZM39.0361 34.8604C36.7864 35.4908 35.0734 36.4257 33.8168 37.6809C32.5524 38.9439 31.8433 40.4383 31.4549 42.0275C31.0727 43.5912 30.9948 45.2744 31.0003 46.9504C31.003 47.7929 31.0274 48.6602 31.0504 49.523C31.0735 50.3924 31.0955 51.2631 31.0955 52.1445H34.0955C34.0955 51.2182 34.0724 50.3106 34.0493 49.4431C34.026 48.569 34.0028 47.7406 34.0002 46.9406C33.995 45.3315 34.0753 43.9419 34.3691 42.7397C34.6567 41.5629 35.1413 40.5981 35.937 39.8034C36.7404 39.0008 37.9539 38.2792 39.8457 37.7491L39.0361 34.8604Z" fill="#574EFA"/>
<path d="M49.9954 22.4998C49.9726 14.714 49.7265 10.5864 47.0687 7.92869C44.1398 4.99976 39.4258 4.99976 29.9977 4.99976C20.5696 4.99976 15.8555 4.99976 12.9266 7.92869C10.2689 10.5864 10.0228 14.714 10 22.4998" stroke="#574EFA" stroke-width="3" stroke-linecap="round"/>
</svg>
