<svg width="60" height="60" viewBox="0 0 60 60" fill="none" xmlns="http://www.w3.org/2000/svg">
<path d="M7.5 8.75H22.5" stroke="#574EFA" stroke-width="3" stroke-linecap="round" stroke-linejoin="round"/>
<path d="M7.5 23.75H22.5" stroke="#574EFA" stroke-width="3" stroke-linecap="round" stroke-linejoin="round"/>
<path d="M7.5 38.75H52.5" stroke="#574EFA" stroke-width="3" stroke-linecap="round" stroke-linejoin="round"/>
<path d="M7.5 53.75H52.5" stroke="#574EFA" stroke-width="3" stroke-linecap="round" stroke-linejoin="round"/>
<path d="M33.9645 24.7855C35.4289 26.25 37.786 26.25 42.5 26.25C47.214 26.25 49.5711 26.25 51.0355 24.7855C52.5 23.3211 52.5 20.964 52.5 16.25C52.5 11.536 52.5 9.17893 51.0355 7.71447C49.5711 6.25 47.214 6.25 42.5 6.25C37.786 6.25 35.4289 6.25 33.9645 7.71447C32.5 9.17893 32.5 11.536 32.5 16.25C32.5 20.964 32.5 23.3211 33.9645 24.7855Z" stroke="#574EFA" stroke-width="3" stroke-linecap="round" stroke-linejoin="round"/>
</svg>
