<svg width="31" height="27" viewBox="0 0 31 27" fill="none" xmlns="http://www.w3.org/2000/svg">
<path fill-rule="evenodd" clip-rule="evenodd" d="M11.5515 3.37105C14.1925 3.3047 16.8073 3.3047 19.4484 3.37106C21.6562 3.42653 23.1485 3.46783 24.2897 3.66658C25.3634 3.85358 25.972 4.15691 26.4664 4.65326C26.5618 4.74901 26.6498 4.84835 26.7311 4.95363L19.0019 9.33304C17.289 10.3035 16.3329 10.6262 15.4999 10.6262C14.6669 10.6262 13.7108 10.3035 11.998 9.33304L4.26881 4.95363C4.35005 4.84834 4.43806 4.74899 4.53345 4.65324C5.02792 4.15689 5.63645 3.85356 6.71023 3.66656C7.85143 3.46781 9.34369 3.42652 11.5515 3.37105ZM3.41769 7.91948C3.33994 8.85707 3.31342 10.011 3.28157 11.5045C3.25315 12.8375 3.25315 14.1625 3.28157 15.4955C3.32746 17.647 3.36227 19.0938 3.55512 20.2043C3.73555 21.2433 4.03306 21.8445 4.53346 22.3468C5.02792 22.8432 5.63645 23.1465 6.71024 23.3335C7.85143 23.5322 9.34369 23.5735 11.5515 23.629C14.1925 23.6954 16.8073 23.6954 19.4484 23.629C21.6562 23.5735 23.1485 23.5322 24.2897 23.3335C25.3634 23.1465 25.972 22.8432 26.4664 22.3468C26.9668 21.8445 27.2643 21.2433 27.4448 20.2043C27.6376 19.0938 27.6724 17.647 27.7183 15.4955C27.7467 14.1625 27.7467 12.8375 27.7183 11.5046C27.6865 10.011 27.6599 8.85707 27.5822 7.91948L20.4808 11.9432C18.692 12.9567 17.1575 13.6262 15.4999 13.6262C13.8424 13.6262 12.3079 12.9567 10.5191 11.9432L3.41769 7.91948ZM19.5237 0.372007C16.8325 0.304386 14.1674 0.304383 11.4761 0.371998L11.3652 0.374783C9.29674 0.426685 7.58112 0.469733 6.19552 0.711041C4.7178 0.968392 3.46778 1.47225 2.40811 2.53595C1.35437 3.5937 0.852361 4.82549 0.599347 6.28248C0.36311 7.64284 0.327444 9.31808 0.284637 11.3287L0.282255 11.4406C0.25292 12.8162 0.25292 14.1838 0.282257 15.5595L0.284639 15.6713C0.327448 17.682 0.363115 19.3572 0.599352 20.7176C0.852368 22.1746 1.35437 23.4063 2.40811 24.4641C3.46778 25.5278 4.7178 26.0317 6.19552 26.289C7.58113 26.5303 9.29675 26.5734 11.3652 26.6253L11.4761 26.6281C14.1674 26.6957 16.8325 26.6957 19.5237 26.6281L19.6347 26.6253C21.7031 26.5734 23.4188 26.5303 24.8044 26.289C26.2821 26.0317 27.5321 25.5278 28.5918 24.4641C29.6455 23.4063 30.1475 22.1746 30.4005 20.7176C30.6368 19.3572 30.6724 17.682 30.7152 15.6714V15.6713L30.7176 15.5595C30.747 14.1838 30.747 12.8162 30.7176 11.4406L30.7152 11.3288V11.3287C30.6724 9.31807 30.6368 7.64285 30.4005 6.2825C30.1475 4.82551 29.6455 3.59373 28.5918 2.53597C27.5321 1.47228 26.2821 0.968413 24.8044 0.711061C23.4188 0.46975 21.7032 0.426698 19.6347 0.374792L19.5237 0.372007Z" fill="#574EFA"/>
</svg>
