<svg width="31" height="34" viewBox="0 0 31 34" fill="none" xmlns="http://www.w3.org/2000/svg">
<path fill-rule="evenodd" clip-rule="evenodd" d="M4.4475 10.4997C6.30669 6.04834 10.7887 3.17999 15.5002 3.17999C20.2117 3.17999 24.6938 6.04834 26.5529 10.4997C28.2545 14.5738 27.4047 17.9813 25.354 21.1627C23.5582 23.9485 20.9279 26.4348 18.3047 28.9143L18.3044 28.9146C17.8277 29.3652 17.3512 29.8156 16.8801 30.2675C16.5119 30.6206 16.0173 30.82 15.5002 30.82C14.9837 30.82 14.4897 30.6211 14.1217 30.2688C13.6193 29.7841 13.1108 29.3017 12.6023 28.8193C10.0135 26.3633 7.42582 23.9083 5.64929 21.1584C3.59668 17.9811 2.74371 14.5791 4.4475 10.4997ZM15.5002 0.179993C9.61359 0.179993 4.0182 3.74346 1.67925 9.34354C-0.499159 14.5592 0.687126 19.0059 3.12939 22.7863C5.1203 25.8681 8.02513 28.6189 10.6107 31.0673C11.1017 31.5323 11.5812 31.9863 12.0407 32.4297L12.0439 32.4328C12.9732 33.3239 14.2127 33.82 15.5002 33.82C16.7878 33.82 18.0273 33.3239 18.9565 32.4328L18.9566 32.4327C19.3913 32.0158 19.8433 31.5893 20.3058 31.1529L20.3061 31.1527C22.9192 28.6872 25.8638 25.9089 27.8755 22.788C30.3148 19.0039 31.4969 14.5528 29.3212 9.34354C26.9822 3.74346 21.3868 0.179993 15.5002 0.179993ZM11.8923 15.1436C11.8923 13.1517 13.5071 11.5369 15.499 11.5369C17.4909 11.5369 19.1057 13.1517 19.1057 15.1436C19.1057 17.1355 17.4909 18.7503 15.499 18.7503C13.5071 18.7503 11.8923 17.1355 11.8923 15.1436ZM15.499 8.53694C11.8502 8.53694 8.89233 11.4948 8.89233 15.1436C8.89233 18.7924 11.8502 21.7503 15.499 21.7503C19.1478 21.7503 22.1057 18.7924 22.1057 15.1436C22.1057 11.4948 19.1478 8.53694 15.499 8.53694Z" fill="#574EFA"/>
</svg>
