<svg width="39" height="28" viewBox="0 0 39 28" fill="none" xmlns="http://www.w3.org/2000/svg">
<path fill-rule="evenodd" clip-rule="evenodd" d="M38.4187 14.3527L37.4036 11.0534V8.08741C37.4036 6.566 36.5941 5.23044 35.3834 4.4879L34.9196 2.98038C34.5881 1.90311 33.857 1.01936 32.8608 0.492013C31.8645 -0.0355901 30.7225 -0.143317 29.6456 0.1883L17.6871 3.86776H5.4809C3.15425 3.86776 1.26138 5.76064 1.26138 8.08741V9.46126C0.219409 10.5316 -0.22318 12.1234 0.246276 13.649L1.26138 16.9483V19.9143C1.26138 21.4357 2.07088 22.7712 3.28145 23.5138L3.74533 25.0216C4.30291 26.8335 5.97683 28.0004 7.78067 28.0004C8.19069 28.0004 8.60745 27.9402 9.01927 27.8134L20.9777 24.1339H33.1839C35.5106 24.1339 37.4035 22.2411 37.4035 19.9143V18.5408C37.6818 18.2552 37.9231 17.9304 38.1149 17.568C38.6424 16.5718 38.7501 15.4299 38.4187 14.3527ZM30.3528 2.4873C30.5291 2.43305 30.7094 2.40631 30.8886 2.40631C31.1807 2.40631 31.47 2.47743 31.7353 2.618C32.1634 2.84474 32.4778 3.22464 32.6204 3.68774L32.6759 3.86776H25.8663L30.3528 2.4873ZM8.31204 25.5143C7.35587 25.8089 6.33869 25.2699 6.04445 24.314L5.98903 24.1338H12.7985L8.31204 25.5143ZM34.9981 19.9142C34.9981 20.9145 34.1843 21.7284 33.1839 21.7284H5.4809C4.48059 21.7284 3.6668 20.9146 3.6668 19.9142V8.08741C3.6668 7.08711 4.48059 6.27319 5.4809 6.27319H33.1839C34.1842 6.27319 34.9981 7.08698 34.9981 8.08741V19.9142ZM19.3322 12.2567H16.4628L13.3873 9.18121C12.9972 8.79118 12.3919 8.71655 11.9187 9.00002C11.4455 9.28361 11.2259 9.85262 11.3858 10.3806L11.9544 12.2569H9.50663L8.76578 11.2381C8.33591 10.6472 7.50862 10.5168 6.91768 10.9462C6.32674 11.376 6.19604 12.2035 6.62578 12.7943L7.50317 14.0008L6.62578 15.2072C6.19604 15.7981 6.32674 16.6255 6.91768 17.0553C7.1526 17.2261 7.42491 17.3084 7.69474 17.3084C8.10359 17.3084 8.50685 17.1194 8.76578 16.7634L9.50663 15.7446H11.9542L11.3856 17.6209C11.2256 18.1489 11.4453 18.7179 11.9185 19.0015C12.1105 19.1165 12.3241 19.1726 12.5364 19.1726C12.8473 19.1726 13.1553 19.0521 13.3871 18.8203L16.4627 15.7448H19.3321C20.2953 15.7448 21.0761 14.9639 21.0761 14.0008C21.0761 13.0376 20.2954 12.2567 19.3322 12.2567ZM26.368 14.0608C26.368 13.5628 26.7721 13.1587 27.2701 13.1587C27.7691 13.1587 28.1721 13.5628 28.1721 14.0608C28.1721 14.5586 27.7691 14.9628 27.2701 14.9628C26.7721 14.9628 26.368 14.5586 26.368 14.0608ZM27.2701 10.3931C26.7721 10.3931 26.368 10.7971 26.368 11.2951C26.368 11.793 26.7721 12.1972 27.2701 12.1972C27.7691 12.1972 28.1721 11.793 28.1721 11.2951C28.1721 10.7971 27.7691 10.3931 27.2701 10.3931ZM26.368 8.52823C26.368 8.03022 26.7721 7.62618 27.2701 7.62618C27.7691 7.62618 28.1721 8.03022 28.1721 8.52823C28.1721 9.02611 27.7691 9.43028 27.2701 9.43028C26.7721 9.43028 26.368 9.02611 26.368 8.52823ZM27.2701 18.6919C26.7721 18.6919 26.368 19.0959 26.368 19.5939C26.368 20.0918 26.7721 20.496 27.2701 20.496C27.7691 20.496 28.1721 20.0918 28.1721 19.5939C28.1721 19.0959 27.7691 18.6919 27.2701 18.6919ZM26.368 16.827C26.368 16.329 26.7721 15.925 27.2701 15.925C27.7691 15.925 28.1721 16.329 28.1721 16.827C28.1721 17.3249 27.7691 17.7291 27.2701 17.7291C26.7721 17.7291 26.368 17.3249 26.368 16.827Z" fill="white"/>
</svg>
