<svg width="60" height="60" viewBox="0 0 60 60" fill="none" xmlns="http://www.w3.org/2000/svg">
<path d="M32.5 55H16.4772C12.6137 55 9.54077 53.12 6.78165 50.4914C1.13341 45.1103 10.407 40.81 13.9439 38.704C18.8264 35.7967 24.4818 34.6009 30 35.1165" stroke="#574EFA" stroke-width="3" stroke-linecap="round" stroke-linejoin="round"/>
<path d="M38.75 16.25C38.75 22.4632 33.7132 27.5 27.5 27.5C21.2868 27.5 16.25 22.4632 16.25 16.25C16.25 10.0368 21.2868 5 27.5 5C33.7132 5 38.75 10.0368 38.75 16.25Z" stroke="#574EFA" stroke-width="3"/>
<path d="M53.9337 56.0549C54.5163 56.6439 55.466 56.649 56.0549 56.0663C56.6439 55.4837 56.649 54.534 56.0663 53.9451L53.9337 56.0549ZM49.3225 51.3939L53.9337 56.0549L56.0663 53.9451L51.4552 49.284L49.3225 51.3939ZM54.5 44C54.5 38.201 49.799 33.5 44 33.5V36.5C48.1421 36.5 51.5 39.8579 51.5 44H54.5ZM44 33.5C38.201 33.5 33.5 38.201 33.5 44H36.5C36.5 39.8579 39.8579 36.5 44 36.5V33.5ZM33.5 44C33.5 49.799 38.201 54.5 44 54.5V51.5C39.8579 51.5 36.5 48.1421 36.5 44H33.5ZM44 54.5C49.799 54.5 54.5 49.799 54.5 44H51.5C51.5 48.1421 48.1421 51.5 44 51.5V54.5Z" fill="#574EFA"/>
</svg>
