<svg width="164" height="164" viewBox="0 0 164 164" fill="none" xmlns="http://www.w3.org/2000/svg">
<path d="M82 0C36.736 0 0 36.736 0 82C0 127.264 36.736 164 82 164C127.264 164 164 127.264 164 82C164 36.736 127.264 0 82 0ZM82 24.6C95.612 24.6 106.6 35.588 106.6 49.2C106.6 62.812 95.612 73.8 82 73.8C68.388 73.8 57.4 62.812 57.4 49.2C57.4 35.588 68.388 24.6 82 24.6ZM82 141.04C61.5 141.04 43.378 130.544 32.8 114.636C33.046 98.318 65.6 89.38 82 89.38C98.318 89.38 130.954 98.318 131.2 114.636C120.622 130.544 102.5 141.04 82 141.04Z" fill="#3C3C43" fill-opacity="0.18"/>
</svg>
