<svg width="32" height="32" viewBox="0 0 32 32" fill="none" xmlns="http://www.w3.org/2000/svg">
<path d="M16.3334 14.3064C18.3888 14.3064 20.36 15.123 21.8135 16.5764C23.2669 18.0298 24.0834 20.001 24.0834 22.0564V31.3564H20.9834V22.0564C20.9834 20.8704 20.5303 19.7291 19.7166 18.8661C18.9029 18.0032 17.7902 17.4838 16.6062 17.4142L16.3334 17.4064C15.1473 17.4064 14.006 17.8595 13.1431 18.6732C12.2801 19.4869 11.7607 20.5996 11.6911 21.7836L11.6834 22.0564V31.3564H8.58337V22.0564C8.58337 20.001 9.39989 18.0298 10.8533 16.5764C12.3067 15.123 14.2779 14.3064 16.3334 14.3064ZM6.25837 18.9564C6.69082 18.9564 7.11087 19.0076 7.51387 19.1021C7.24886 19.8911 7.09192 20.7123 7.04732 21.5434L7.03337 22.0564V22.1897C6.85521 22.126 6.66989 22.0843 6.48157 22.0657L6.25837 22.0564C5.68041 22.0565 5.12317 22.2718 4.69532 22.6604C4.26748 23.0489 3.99971 23.5829 3.94422 24.1582L3.93337 24.3814V31.3564H0.833374V24.3814C0.833374 22.9426 1.40493 21.5628 2.42232 20.5454C3.4397 19.528 4.81957 18.9564 6.25837 18.9564ZM26.4084 18.9564C27.8472 18.9564 29.227 19.528 30.2444 20.5454C31.2618 21.5628 31.8334 22.9426 31.8334 24.3814V31.3564H28.7334V24.3814C28.7333 23.8035 28.518 23.2462 28.1295 22.8184C27.7409 22.3906 27.2069 22.1228 26.6316 22.0673L26.4084 22.0564C26.1371 22.0564 25.8767 22.1029 25.6334 22.1882V22.0564C25.6334 21.0241 25.466 20.0321 25.1544 19.1052C25.5559 19.0076 25.9759 18.9564 26.4084 18.9564ZM6.25837 9.65644C7.28609 9.65644 8.27171 10.0647 8.99841 10.7914C9.72512 11.5181 10.1334 12.5037 10.1334 13.5314C10.1334 14.5592 9.72512 15.5448 8.99841 16.2715C8.27171 16.9982 7.28609 17.4064 6.25837 17.4064C5.23066 17.4064 4.24504 16.9982 3.51834 16.2715C2.79163 15.5448 2.38337 14.5592 2.38337 13.5314C2.38337 12.5037 2.79163 11.5181 3.51834 10.7914C4.24504 10.0647 5.23066 9.65644 6.25837 9.65644ZM26.4084 9.65644C27.4361 9.65644 28.4217 10.0647 29.1484 10.7914C29.8751 11.5181 30.2834 12.5037 30.2834 13.5314C30.2834 14.5592 29.8751 15.5448 29.1484 16.2715C28.4217 16.9982 27.4361 17.4064 26.4084 17.4064C25.3807 17.4064 24.395 16.9982 23.6683 16.2715C22.9416 15.5448 22.5334 14.5592 22.5334 13.5314C22.5334 12.5037 22.9416 11.5181 23.6683 10.7914C24.395 10.0647 25.3807 9.65644 26.4084 9.65644ZM6.25837 12.7564C6.05283 12.7564 5.85571 12.8381 5.71037 12.9834C5.56503 13.1288 5.48337 13.3259 5.48337 13.5314C5.48337 13.737 5.56503 13.9341 5.71037 14.0795C5.85571 14.2248 6.05283 14.3064 6.25837 14.3064C6.46392 14.3064 6.66104 14.2248 6.80638 14.0795C6.95172 13.9341 7.03337 13.737 7.03337 13.5314C7.03337 13.3259 6.95172 13.1288 6.80638 12.9834C6.66104 12.8381 6.46392 12.7564 6.25837 12.7564ZM26.4084 12.7564C26.2028 12.7564 26.0057 12.8381 25.8604 12.9834C25.715 13.1288 25.6334 13.3259 25.6334 13.5314C25.6334 13.737 25.715 13.9341 25.8604 14.0795C26.0057 14.2248 26.2028 14.3064 26.4084 14.3064C26.6139 14.3064 26.811 14.2248 26.9564 14.0795C27.1017 13.9341 27.1834 13.737 27.1834 13.5314C27.1834 13.3259 27.1017 13.1288 26.9564 12.9834C26.811 12.8381 26.6139 12.7564 26.4084 12.7564ZM16.3334 0.356445C17.9777 0.356445 19.5547 1.00966 20.7174 2.17238C21.8802 3.33511 22.5334 4.9121 22.5334 6.55645C22.5334 8.20079 21.8802 9.77778 20.7174 10.9405C19.5547 12.1032 17.9777 12.7564 16.3334 12.7564C14.689 12.7564 13.112 12.1032 11.9493 10.9405C10.7866 9.77778 10.1334 8.20079 10.1334 6.55645C10.1334 4.9121 10.7866 3.33511 11.9493 2.17238C13.112 1.00966 14.689 0.356445 16.3334 0.356445ZM16.3334 3.45645C15.5112 3.45645 14.7227 3.78305 14.1413 4.36441C13.56 4.94578 13.2334 5.73427 13.2334 6.55645C13.2334 7.37862 13.56 8.16711 14.1413 8.74848C14.7227 9.32984 15.5112 9.65644 16.3334 9.65644C17.1555 9.65644 17.944 9.32984 18.5254 8.74848C19.1068 8.16711 19.4334 7.37862 19.4334 6.55645C19.4334 5.73427 19.1068 4.94578 18.5254 4.36441C17.944 3.78305 17.1555 3.45645 16.3334 3.45645Z" fill="white"/>
</svg>
