<svg width="33" height="33" viewBox="0 0 33 33" fill="none" xmlns="http://www.w3.org/2000/svg">
<path d="M4.19513 16.4137C2.77641 13.9399 2.09138 11.9199 1.67833 9.87229C1.06744 6.84392 2.46545 3.88569 4.78139 1.9981C5.7602 1.20033 6.88225 1.4729 7.46106 2.51129L8.76777 4.85557C9.80351 6.71371 10.3214 7.64278 10.2187 8.62777C10.1159 9.61276 9.41753 10.415 8.0207 12.0195L4.19513 16.4137ZM4.19513 16.4137C7.06673 21.4209 11.5732 25.9298 16.5862 28.8048M16.5862 28.8048C19.06 30.2235 21.08 30.9085 23.1276 31.3216C26.156 31.9324 29.1142 30.5344 31.0018 28.2185C31.7996 27.2397 31.527 26.1176 30.4886 25.5388L28.1443 24.2321C26.2862 23.1964 25.3571 22.6785 24.3721 22.7812C23.3871 22.8839 22.5849 23.5824 20.9804 24.9792L16.5862 28.8048Z" stroke="#574EFA" stroke-width="3" stroke-linejoin="round"/>
</svg>
